{"glyphs":{"0":{"ha":515,"x_min":0,"x_max":0,"o":"m 383 406 b 354 201 392 335 378 264 b 143 1 311 97 235 -6 b 25 136 71 10 33 60 b 56 335 17 201 29 272 b 160 493 79 401 117 456 b 383 406 258 567 371 526 m 339 410 b 204 472 331 514 271 539 b 108 326 171 442 133 389 b 138 22 47 157 75 28 b 299 210 183 18 250 89 b 339 410 321 272 343 343 "},"1":{"ha":478,"x_min":0,"x_max":0,"o":"m 108 25 l 322 460 b 303 442 317 453 310 447 b 183 399 275 415 233 399 l 183 424 b 292 463 229 424 263 436 b 363 540 315 481 342 511 l 390 540 l 175 25 l 263 25 l 263 0 l 17 0 l 17 25 "},"2":{"ha":544,"x_min":0,"x_max":0,"o":"m 369 460 b 347 378 374 432 360 401 b 232 299 324 340 283 294 b 169 375 194 304 167 336 l 169 375 b 313 526 183 460 246 508 b 439 497 360 539 408 526 b 408 274 514 428 451 324 b 75 42 314 176 175 133 b 214 56 113 64 158 72 b 314 68 256 42 294 10 l 342 60 b 208 14 307 -15 265 -1 b 28 -7 158 25 96 42 l 14 14 b 408 389 133 163 342 192 b 314 501 426 468 390 518 b 190 369 256 489 204 443 b 236 324 190 344 208 324 b 328 389 275 319 313 361 b 346 456 342 410 347 436 l 369 460 "},"3":{"ha":481,"x_min":0,"x_max":0,"o":"m 403 529 l 411 499 l 226 379 b 331 233 310 376 340 304 b 107 0 324 128 231 -15 b 74 288 -46 22 13 194 l 103 288 b 111 22 53 211 -22 43 b 267 238 208 22 260 150 b 182 351 283 321 251 379 l 174 372 l 343 503 l 167 503 l 179 529 "},"4":{"ha":446,"x_min":0,"x_max":0,"o":"m 40 204 l 233 204 l 314 358 l 340 358 l 279 204 l 322 204 l 310 185 l 271 185 l 199 0 l 132 0 l 225 185 l 19 185 l 10 200 l 235 529 l 307 529 "},"5":{"ha":499,"x_min":0,"x_max":0,"o":"m 413 521 b 243 492 374 482 294 475 l 174 389 b 269 399 206 399 239 407 b 350 264 333 386 354 322 b 272 74 350 200 315 125 l 272 74 b 19 78 210 -1 63 -40 b 75 297 -1 128 13 204 l 96 286 b 42 88 36 200 24 132 b 139 35 58 35 96 22 b 282 268 222 65 278 183 b 146 357 290 369 243 403 l 135 379 l 243 539 b 403 535 272 521 354 492 l 413 521 "},"6":{"ha":531,"x_min":0,"x_max":0,"o":"m 164 360 b 296 397 201 389 253 408 l 296 397 b 374 282 347 381 369 331 b 301 75 374 208 347 135 l 301 75 b 185 0 269 26 226 4 b 29 239 25 -17 0 125 b 432 522 89 404 244 564 l 426 501 b 247 451 356 518 296 493 b 164 360 215 426 185 393 m 118 289 b 92 229 106 264 97 243 b 92 60 72 160 72 93 b 306 282 167 -87 314 143 b 118 289 306 413 196 397 "},"7":{"ha":499,"x_min":0,"x_max":0,"o":"m 404 529 l 97 0 l 18 0 l 354 497 l 108 463 l 143 529 "},"8":{"ha":526,"x_min":0,"x_max":0,"o":"m 408 460 b 361 346 408 417 390 378 b 274 299 335 315 303 299 l 272 299 b 356 210 315 288 349 258 b 290 54 356 157 331 100 b 176 -3 260 17 217 1 b 156 290 -44 -18 -7 235 b 219 303 176 297 200 301 b 260 524 114 333 147 482 b 408 460 322 543 399 528 m 115 218 b 92 43 92 185 53 97 b 293 210 164 -67 297 108 b 115 218 290 311 200 319 m 229 463 b 207 332 207 443 181 372 b 364 460 260 250 369 381 b 229 463 361 536 290 540 "},"9":{"ha":554,"x_min":0,"x_max":0,"o":"m 281 167 b 199 75 263 135 233 106 b 21 26 149 38 90 13 l 17 4 b 414 290 203 -36 356 125 b 263 528 443 399 419 539 b 146 449 219 524 179 499 l 146 449 b 79 246 99 394 75 315 b 149 135 79 200 99 150 l 149 135 b 281 167 194 117 244 138 m 329 238 b 142 246 249 129 142 113 b 351 469 133 381 276 611 b 351 294 372 432 372 365 b 329 238 347 282 340 263 "},"\u0000":{"ha":0,"x_min":0,"x_max":0,"o":""},"\r":{"ha":340,"x_min":0,"x_max":0,"o":""}," ":{"ha":340,"x_min":0,"x_max":0,"o":""},"e":{"ha":335,"x_min":0,"x_max":0,"o":"m 228 289 b 158 371 268 354 218 400 b 17 208 99 340 44 275 b 228 289 72 207 192 233 m 11 193 b 7 63 0 163 -17 101 b 67 25 19 40 40 26 b 335 285 204 15 283 168 l 358 285 b 60 0 308 151 218 -6 b -65 125 -19 1 -65 56 b 108 392 -61 218 17 344 b 253 299 185 429 294 396 l 253 299 b 11 193 222 222 82 188 "},"f":{"ha":275,"x_min":0,"x_max":0,"o":"m 440 751 b 290 682 394 808 339 760 b 113 306 264 639 138 371 b 179 325 144 310 168 311 b 104 281 172 296 143 286 b 28 93 63 194 36 111 b -211 -407 -43 -79 -121 -267 b -599 -644 -282 -525 -401 -661 l -599 -644 b -804 -487 -714 -635 -782 -571 b -801 -317 -821 -437 -821 -376 b -710 -156 -787 -258 -754 -203 b -156 -54 -600 -39 -411 31 b -160 -75 -156 -60 -158 -69 b -694 -169 -407 6 -589 -58 b -782 -324 -736 -215 -767 -269 b -785 -481 -797 -379 -797 -433 b -599 -621 -761 -556 -701 -614 l -599 -621 b -271 -394 -447 -619 -347 -510 b -29 100 -179 -256 -101 -69 b 46 281 -22 122 6 199 b -81 271 -8 281 -64 286 b 58 306 -72 306 -7 306 b 300 757 122 446 206 667 b 458 765 350 804 406 819 l 440 751 "},"g":{"ha":454,"x_min":0,"x_max":0,"o":"m 560 471 b 271 93 443 606 292 138 b 29 -407 197 -79 121 -267 b -357 -644 -42 -525 -160 -661 b -468 -156 -626 -622 -624 -306 b 86 -54 -360 -39 -168 31 l 81 -75 b -450 -169 -167 6 -347 -58 b -357 -621 -593 -303 -606 -603 b -29 -394 -201 -619 -107 -510 b 193 57 53 -267 128 -100 b 101 6 165 25 131 10 b -61 125 0 -19 -61 46 b 107 388 -57 218 15 340 b 260 397 156 413 221 411 b 325 351 281 388 304 374 b 575 485 394 474 486 575 l 560 471 m 313 329 b 254 375 293 351 274 367 b 156 367 218 388 186 381 b 0 122 69 325 10 218 b 97 25 -6 60 35 11 b 178 75 126 31 153 47 b 229 146 199 96 214 119 b 313 329 247 192 276 263 "},"h":{"ha":469,"x_min":0,"x_max":0,"o":"m 531 701 b 144 504 439 593 296 499 b 76 335 121 450 100 392 l 86 344 b 179 400 114 375 144 394 b 311 354 235 414 289 396 b 263 151 342 300 283 217 b 282 24 240 99 240 33 b 469 285 378 19 439 213 l 493 285 b 279 4 457 201 393 -1 b 201 157 194 6 175 92 b 251 283 208 182 231 238 b 183 378 279 333 271 394 b 100 328 156 374 125 354 b 15 186 64 288 36 238 b -65 0 -12 121 -40 60 l -129 0 b 43 406 -69 135 -12 269 b 571 1026 183 761 354 1101 b 531 701 700 957 600 785 m 156 528 b 514 717 293 525 428 614 b 561 1006 579 792 667 942 b 156 528 415 1067 282 819 "},"i":{"ha":207,"x_min":0,"x_max":0,"o":"m 111 390 b 0 147 74 311 25 233 b 19 22 -19 88 -22 31 b 207 285 113 17 176 211 l 231 285 b 17 0 194 201 128 -6 b -60 157 -60 7 -83 101 b 44 390 -33 240 11 310 l 111 390 m 121 526 b 146 503 136 526 144 517 b 90 438 146 472 119 438 b 67 481 69 438 61 456 b 121 526 76 506 99 526 "},"j":{"ha":211,"x_min":0,"x_max":0,"o":"m -42 36 b -262 -407 -108 -117 -181 -281 b -647 -644 -332 -525 -450 -661 l -647 -644 b -857 -487 -761 -635 -832 -571 b -854 -317 -872 -437 -869 -376 b -756 -156 -836 -258 -807 -203 b -206 -54 -647 -39 -460 31 b -212 -75 -207 -60 -211 -69 b -742 -169 -457 6 -639 -58 b -832 -324 -786 -215 -817 -269 b -833 -481 -846 -379 -849 -433 b -644 -621 -811 -556 -749 -614 l -644 -621 b -318 -394 -496 -619 -400 -510 b -79 100 -228 -256 -149 -69 b 42 390 -39 199 -1 294 l 101 390 l 107 390 b 3 147 68 311 28 233 b 24 22 -14 88 -17 31 b 211 285 117 17 178 211 l 235 285 b 22 0 200 201 132 -6 b -42 36 -8 1 -29 17 m 125 526 b 139 465 158 526 153 485 b 97 438 128 449 110 438 b 72 481 74 438 64 456 b 125 526 82 506 104 526 "},"k":{"ha":413,"x_min":0,"x_max":0,"o":"m 167 376 b 288 325 232 401 313 390 b 107 219 265 269 185 233 b 197 111 200 206 210 168 b 224 22 186 76 171 31 b 413 285 318 17 382 211 l 436 285 b 222 0 400 201 333 -6 b 143 151 138 1 113 68 b 65 214 161 194 107 211 b 29 214 53 213 40 213 b -68 1 -1 139 -36 69 l -132 1 b 42 407 -71 136 -14 271 b 571 1028 183 763 354 1103 b 531 703 701 954 600 789 b 146 506 439 594 294 500 b 64 307 118 442 90 374 b 167 376 94 336 129 361 m 157 529 b 513 718 293 526 425 615 b 564 1007 574 794 671 940 b 157 529 417 1068 279 821 m 178 360 b 46 257 131 339 76 300 b 36 232 42 249 39 240 b 228 331 97 226 204 272 b 178 360 244 372 207 375 "},"l":{"ha":211,"x_min":0,"x_max":0,"o":"m 157 529 b 594 850 344 532 524 683 b 564 1010 618 907 629 985 b 157 529 417 1071 282 825 m 4 151 b 25 22 -12 90 -15 32 b 213 285 108 14 193 232 l 236 285 b 22 1 200 203 135 -4 b -57 156 -61 4 -82 90 b 60 456 -4 292 11 335 b 574 1031 200 794 364 1103 b 614 840 654 1000 642 910 b 147 507 546 660 339 506 b 58 290 117 436 86 363 l 4 151 "},"m":{"ha":739,"x_min":0,"x_max":0,"o":"m 526 300 b 517 383 540 343 544 379 b 257 0 422 388 288 69 l 193 0 l 288 239 b 304 385 314 300 344 379 b 156 244 260 386 196 307 l 44 0 l -19 0 l 90 239 b 108 365 108 279 136 357 b 24 285 75 375 40 321 l 0 285 b 100 401 18 333 56 390 b 179 317 167 418 185 372 b 306 407 217 365 264 407 b 360 257 383 404 383 319 b 519 406 404 326 464 403 b 590 311 578 404 600 361 b 524 135 579 251 540 193 b 550 22 513 96 500 26 b 739 285 644 18 721 246 l 763 285 b 547 0 726 206 660 -6 b 471 165 435 -3 442 97 l 526 300 "},"n":{"ha":533,"x_min":0,"x_max":0,"o":"m 321 300 b 311 381 335 342 339 378 b 108 132 247 383 160 238 l 49 0 l -18 0 l 93 242 b 118 367 111 282 142 354 b 24 285 75 382 38 313 l 0 285 b 111 403 18 326 58 390 b 169 285 185 421 182 346 b 315 406 210 342 256 401 b 375 276 392 408 396 342 b 311 100 357 218 324 164 b 344 24 306 71 308 26 b 535 285 439 18 504 215 l 558 285 b 342 0 522 206 454 -6 b 249 100 261 -1 243 49 b 321 300 251 122 258 146 "},"o":{"ha":410,"x_min":0,"x_max":0,"o":"m 433 285 b 385 161 418 244 403 197 b 204 101 347 89 274 44 b -22 15 146 24 60 -28 b -22 257 -110 67 -61 190 b 219 399 21 331 107 438 b 217 121 303 358 283 222 b 364 172 274 74 335 114 b 410 285 379 206 397 244 l 433 285 m 190 236 b 218 189 204 236 217 214 b 242 290 233 226 242 263 b 36 246 242 457 78 333 b 13 24 6 190 -54 61 b 183 122 75 0 139 54 b 169 146 178 131 172 139 b 167 151 169 149 167 151 l 168 151 b 163 185 164 161 163 172 b 190 236 163 213 175 236 "},"p":{"ha":469,"x_min":0,"x_max":0,"o":"m 493 285 b 88 -1 424 111 254 -6 b -44 47 38 -1 -8 8 b -268 -410 -110 -112 -183 -283 b -657 -654 -340 -533 -460 -671 b -868 -492 -775 -643 -842 -576 b -865 -322 -883 -440 -883 -382 b -771 -156 -850 -264 -817 -206 b -208 -56 -660 -40 -468 28 l -217 -76 b -753 -172 -465 6 -647 -61 b -844 -328 -799 -218 -829 -274 b -847 -487 -860 -385 -860 -439 b -657 -631 -824 -564 -762 -621 b -326 -397 -504 -628 -407 -518 b -83 100 -235 -261 -156 -69 b 283 490 -58 167 119 657 l 268 475 b 85 353 208 543 142 460 b 175 406 113 381 143 397 b 339 282 278 428 339 364 b 214 47 336 206 285 104 b 469 285 314 79 428 181 l 493 285 m -35 68 b 119 39 8 19 63 11 b 278 282 206 79 268 190 b 181 382 286 346 244 394 b 96 333 153 376 124 358 b -35 68 60 300 50 272 "},"q":{"ha":540,"x_min":0,"x_max":0,"o":"m 564 285 b 242 24 514 171 454 24 b 339 -387 338 -81 358 -247 b 121 -639 326 -482 250 -707 b 172 40 -54 -540 36 -261 b 97 1 147 19 122 6 b -67 128 -6 -21 -67 42 b 103 389 -64 218 10 342 b 319 354 182 429 265 410 l 339 392 l 403 392 l 238 42 b 540 285 432 54 483 163 l 564 285 m 221 11 b 131 -619 82 -283 -12 -549 b 315 -385 243 -676 304 -462 b 221 11 336 -249 315 -90 m 310 332 b 150 368 265 386 214 397 b -6 125 67 326 6 218 b 93 25 -12 61 29 11 b 175 74 121 29 150 47 b 206 115 188 86 197 99 l 236 178 l 310 332 "},"r":{"ha":350,"x_min":0,"x_max":0,"o":"m 178 246 b 139 150 160 213 149 186 b 157 19 121 89 115 29 b 350 285 254 14 317 213 l 374 285 b 154 -1 338 201 271 -7 b 76 156 72 3 51 86 b 131 285 90 201 111 243 b 85 431 172 361 93 392 l 24 285 l 0 285 l 72 457 b 67 521 67 472 57 496 b 124 518 82 551 133 547 l 94 454 b 154 382 103 421 131 403 b 178 246 206 333 203 297 "},"s":{"ha":306,"x_min":0,"x_max":0,"o":"m 329 285 b 107 15 258 124 194 44 b -122 122 -14 -26 -128 10 b 50 264 -114 197 -51 281 l 47 246 b -97 101 -31 267 -106 183 b 33 44 -93 33 -24 7 b 126 228 93 82 124 154 b 126 301 128 256 128 283 b 125 408 126 335 119 376 b 24 285 92 406 38 336 l 0 285 b 132 431 15 338 74 432 b 194 456 146 460 174 467 b 165 404 222 436 183 397 b 169 294 156 382 165 343 b 129 50 175 239 188 119 b 306 285 185 79 256 160 l 329 285 "},"t":{"ha":218,"x_min":0,"x_max":0,"o":"m -51 711 b 210 771 35 772 121 783 l 328 1036 l 394 1036 b 268 760 381 1007 328 894 b 407 719 314 749 360 733 b 878 753 569 665 729 611 l 894 738 b 400 671 738 586 567 614 b 250 721 350 686 300 706 b 8 150 146 485 21 200 b 26 19 -12 89 -15 29 b 218 285 121 14 188 213 l 242 285 b 24 -1 207 201 136 -7 b -54 156 -54 3 -75 101 b 193 735 -37 207 89 499 b -39 693 114 750 36 747 l -51 711 "},"u":{"ha":429,"x_min":0,"x_max":0,"o":"m 329 392 b 218 150 290 313 244 232 b 236 19 197 89 194 29 b 429 285 333 14 399 213 l 453 285 b 233 -1 417 201 347 -7 b 150 96 181 1 154 49 b 17 -1 115 40 71 -4 b -60 156 -57 3 -81 101 b 49 392 -35 240 10 313 l 113 392 b 1 150 74 313 28 232 b 19 19 -19 89 -21 29 b 157 154 78 15 122 83 l 157 156 b 263 392 182 240 226 313 l 329 392 "},"v":{"ha":375,"x_min":0,"x_max":0,"o":"m 107 392 b -1 150 74 313 25 236 b 18 22 -19 90 -22 31 b 188 225 82 18 140 122 b 181 333 171 253 165 289 b 251 406 196 378 229 413 b 249 307 271 400 265 350 b 211 226 244 297 238 278 b 375 285 264 165 342 207 l 399 285 b 203 206 358 178 254 149 b 17 0 153 99 92 -4 b -64 154 -61 8 -83 107 b 46 392 -36 243 7 313 l 107 392 "},"w":{"ha":592,"x_min":0,"x_max":0,"o":"m 324 392 b 215 150 290 313 242 236 b 235 22 197 90 194 31 b 404 225 299 18 357 122 b 397 333 388 253 382 289 b 468 406 413 378 446 413 b 465 307 488 400 482 350 b 428 226 461 297 454 278 b 592 285 481 165 560 207 l 615 285 b 419 206 571 168 471 149 b 233 0 369 99 308 -4 b 147 94 182 6 154 50 b 19 0 114 39 71 -3 b -57 65 -19 4 -44 32 b -33 229 -78 125 -54 179 b 47 392 -10 285 19 336 l 111 392 b 0 150 75 313 28 236 b 22 22 -15 90 -18 31 b 147 138 74 19 115 75 b 153 154 149 143 150 149 b 263 392 181 243 224 313 l 324 392 "},"x":{"ha":457,"x_min":0,"x_max":0,"o":"m 267 25 b 457 285 363 21 425 213 l 481 285 b 265 3 444 203 379 0 b 165 113 190 6 168 51 b 86 31 142 82 114 51 b -50 63 38 -6 -12 -11 l -28 72 b 75 46 -3 15 36 21 b 167 149 107 71 140 111 b 167 385 175 253 221 378 b 24 285 99 390 50 347 l 0 285 b 161 406 36 361 74 403 b 254 347 211 406 239 390 b 253 282 258 332 257 308 b 311 353 271 307 290 332 b 432 385 350 397 394 421 l 417 368 b 324 338 392 392 357 375 b 246 233 296 308 268 268 b 267 25 232 143 211 36 "},"y":{"ha":360,"x_min":0,"x_max":0,"o":"m 146 -25 b -53 -412 86 -164 21 -306 b -443 -653 -125 -532 -244 -672 b -653 -496 -557 -643 -628 -579 b -650 -326 -668 -443 -668 -385 b -554 -160 -636 -267 -603 -207 b 7 -56 -444 -39 -253 29 b -1 -78 4 -64 0 -71 b -537 -174 -250 4 -432 -64 b -631 -331 -581 -219 -612 -275 b -633 -490 -644 -385 -644 -440 b -439 -631 -610 -564 -547 -622 b -111 -400 -290 -631 -193 -519 b 86 -8 -37 -292 29 -151 l 108 44 b 17 -1 82 15 51 -3 b -61 153 -61 7 -83 106 b 46 390 -33 242 8 311 l 111 390 b -1 149 74 311 25 235 b 19 21 -19 89 -21 29 b 151 150 74 19 118 82 l 256 390 l 321 390 b 146 -25 260 251 204 113 "},"{":{"ha":538,"x_min":0,"x_max":0,"o":"m 567 924 b 426 828 465 963 471 928 b 204 581 389 728 356 592 b 140 128 288 414 197 263 b 249 -37 76 13 76 -82 l 261 -69 b 71 -43 197 -90 115 -94 b 63 140 25 7 39 83 b 165 581 121 269 235 433 b 140 581 158 581 146 581 b 115 600 135 586 121 586 b 115 631 108 604 108 618 b 140 642 128 639 135 642 b 178 631 153 642 165 639 l 178 631 b 185 613 178 625 185 618 b 376 840 307 625 338 744 b 586 954 426 967 444 1004 l 567 924 "},"z":{"ha":432,"x_min":0,"x_max":0,"o":"m 42 378 l 47 388 l 57 382 b 313 400 128 350 254 343 l 333 390 b 158 146 299 306 231 219 b 54 58 128 113 92 86 b 181 18 100 57 144 46 b 432 285 282 78 371 149 l 456 285 b 197 3 394 144 300 63 b -186 -647 390 -253 71 -642 b -390 -528 -269 -647 -344 -618 b -339 -274 -429 -457 -403 -349 l -339 -274 b 4 -65 -243 -167 -121 -115 b 156 8 54 -40 108 -18 b 21 36 128 28 81 38 b -72 -7 -12 15 -43 0 l -72 -7 b -104 28 -100 -15 -137 0 b -4 57 -92 40 -58 54 b 14 58 1 57 8 57 b 144 164 57 86 101 119 b 275 326 203 222 238 257 b 44 326 206 292 114 300 l 24 285 l 0 285 m 178 -7 b 11 -85 124 -35 68 -62 b -324 -289 -110 -136 -231 -186 b -367 -525 -381 -360 -406 -458 b 178 -7 -200 -814 336 -281 "},"d":{"ha":496,"x_min":0,"x_max":0,"o":"m 815 703 b 432 506 724 594 578 500 b 292 147 382 389 335 267 b 310 22 271 88 269 31 b 497 285 406 17 467 211 l 521 285 b 306 0 486 201 418 -6 b 222 101 251 4 225 54 b 18 4 182 28 94 -14 b -68 125 -36 19 -68 68 b 100 388 -64 218 8 340 b 254 397 147 413 214 411 b 308 363 272 389 292 378 b 856 1028 456 735 631 1103 b 900 840 935 996 929 913 b 815 703 881 793 854 746 m 440 529 b 796 718 578 526 710 615 b 850 1007 856 772 958 963 b 440 529 700 1068 567 821 m 246 375 b 151 367 214 388 182 381 b -7 122 64 325 3 218 b 6 58 -10 97 -4 75 b 172 75 44 -4 128 26 b 229 154 193 97 211 125 b 231 157 229 154 229 156 l 300 339 b 246 375 282 356 265 368 "},"":{"ha":468,"x_min":0,"x_max":0,"o":"m 394 390 b 304 199 367 328 331 264 b 788 -33 169 -169 546 -296 b 804 -50 797 -29 808 -43 b 221 103 565 -307 183 -200 b 186 64 211 89 199 75 b 94 6 160 31 126 13 b -69 128 -8 -18 -69 46 b 100 388 -68 217 7 340 b 251 396 146 414 213 410 b 314 350 271 388 294 375 l 333 390 l 394 390 m 242 378 b 146 367 213 388 178 381 b -7 125 63 325 1 217 b 89 28 -14 64 25 15 b 169 79 115 32 146 49 b 225 151 190 99 208 125 b 228 158 225 154 228 156 b 304 332 247 217 275 275 b 242 378 283 353 264 368 "},"":{"ha":731,"x_min":0,"x_max":0,"o":"m 403 390 b 294 151 365 310 317 233 b 283 101 289 135 286 117 b 340 24 275 50 289 21 b 615 196 453 24 551 106 b 663 446 679 282 714 383 b 578 463 638 474 610 478 b 578 474 575 465 578 468 b 681 460 607 496 654 494 b 640 183 744 389 708 282 b 340 0 567 86 465 4 b 232 67 294 -3 251 18 b 224 101 228 78 225 89 b 190 61 213 88 203 74 b 97 4 164 32 131 13 b -65 128 -4 -18 -65 46 b 104 389 -62 217 11 343 b 256 397 153 414 215 413 b 318 353 278 390 299 376 b 336 390 325 365 331 378 l 403 390 m 249 378 b 153 369 215 389 182 383 b -4 128 65 324 6 217 b 93 29 -8 61 31 15 b 174 78 121 35 150 47 b 233 165 199 103 218 132 b 307 331 253 224 282 278 b 249 378 290 354 268 369 "},"":{"ha":468,"x_min":0,"x_max":0,"o":"m 492 285 b 19 7 407 81 197 -31 b -40 46 -4 15 -24 29 b -93 -61 -58 7 -76 -28 b 218 -228 39 -115 158 -193 b 960 -164 439 -131 726 -96 b 1088 -315 1024 -183 1097 -242 b 835 -437 1068 -424 911 -437 b 218 -251 574 -437 385 -347 b 92 -515 136 -282 39 -374 b 76 -529 100 -525 86 -540 b 194 -237 10 -387 100 -276 b -99 -81 139 -208 24 -135 l -162 -193 b -356 -310 -210 -267 -285 -310 b -518 -131 -460 -310 -547 -237 b -149 -42 -469 26 -308 18 b 0 300 -99 57 -49 176 b 574 1036 150 696 336 1119 b 535 710 707 961 604 799 b 150 508 444 596 297 504 b 79 349 125 456 101 401 l 81 350 b 175 408 106 378 139 397 b 342 279 278 428 342 364 b 217 50 336 208 286 107 b 468 285 328 82 422 181 l 492 285 m 242 -242 b 835 -412 406 -328 588 -412 b 1063 -315 894 -412 1049 -404 b 956 -183 1072 -251 1004 -203 b 242 -242 732 -119 458 -154 m 156 533 b 515 724 297 528 429 621 b 565 1017 579 806 676 943 b 156 533 419 1075 282 826 m 24 32 b 278 285 156 -14 265 175 b 179 383 282 350 242 397 b 97 333 150 378 119 358 b 46 257 76 311 61 285 b -31 67 21 190 -4 126 b 24 32 -14 49 7 38 m -151 -61 b -499 -135 -308 -1 -456 7 b -356 -286 -518 -222 -444 -296 b -221 -183 -308 -282 -260 -242 b -151 -61 -196 -150 -176 -106 "},"":{"ha":465,"x_min":0,"x_max":0,"o":"m 489 285 b 201 22 443 151 325 68 b -43 57 124 -7 14 -15 l -64 8 b -103 57 -79 22 -108 26 b 42 411 -46 193 -12 274 b 85 514 57 446 71 479 b -332 696 -68 529 -197 611 b -457 633 -367 672 -410 653 b -1108 649 -633 571 -879 560 b -1264 799 -1172 668 -1264 721 b -1031 944 -1258 901 -1118 935 b -332 726 -725 978 -521 847 b -297 1022 -222 799 -203 931 b -283 1040 -307 1040 -293 1046 b -312 711 -183 936 -193 796 b 96 538 -179 624 -54 550 b 575 1031 229 840 383 1094 b 615 842 650 992 646 917 b 147 507 540 665 351 507 b 86 356 128 458 107 406 b 178 406 115 383 146 397 b 338 279 281 431 342 363 b 222 56 338 208 290 111 b 465 285 329 97 424 182 l 489 285 m -351 711 b -1031 919 -536 826 -735 954 b -1239 799 -1099 915 -1239 882 b -1104 668 -1243 732 -1153 686 b -467 653 -875 585 -636 596 b -351 711 -425 672 -386 686 m 158 532 b 594 851 344 538 528 682 b 565 1013 618 910 631 988 b 158 532 421 1071 285 822 m 124 42 b 281 283 206 85 269 193 b 183 382 285 347 246 396 b 32 231 110 368 58 290 l -35 76 b 124 42 18 24 61 14 "},"":{"ha":464,"x_min":0,"x_max":0,"o":"m 488 285 b 81 -1 433 125 242 -1 b -47 54 25 0 -10 11 b -68 4 -56 36 -61 21 b -108 54 -82 19 -112 25 b 39 406 -50 188 -15 271 b 81 510 51 442 67 476 b -336 694 -74 526 -201 608 b -461 631 -371 669 -414 650 b -1112 646 -637 567 -883 558 b -1268 796 -1176 665 -1268 718 b -1033 940 -1262 897 -1122 932 b -336 722 -729 975 -526 844 b -315 739 -328 728 -321 733 b -1074 960 -572 911 -792 1006 l -1079 971 b -303 750 -787 1017 -571 925 l -301 751 b -301 1025 -215 835 -225 938 b -286 1039 -312 1039 -297 1047 b -282 736 -201 943 -192 829 b 104 568 -169 653 -35 576 b 431 1022 203 782 308 968 b 583 785 621 1106 667 928 b 144 508 492 633 325 501 l 81 349 b 217 407 119 393 165 407 b 335 281 293 407 339 351 b 218 51 335 206 285 107 b 464 285 325 93 432 189 l 488 285 m -356 710 b -1033 922 -540 831 -739 950 b -1243 796 -1103 913 -1243 883 b -1108 665 -1247 726 -1157 683 b -472 656 -879 581 -642 592 b -356 710 -429 669 -389 689 m 525 994 b 582 892 572 981 590 940 b 339 601 551 776 436 656 b 164 553 283 571 225 556 l 154 529 b 563 792 317 532 478 650 b 456 1003 629 888 624 1076 b 171 568 354 958 261 775 b 335 615 228 572 282 588 b 567 892 425 665 543 785 b 519 981 576 938 561 971 l 525 994 m 121 39 b 275 281 204 81 265 188 b 215 379 279 332 257 372 b 96 331 171 385 129 368 b 44 258 76 306 57 285 l -37 76 b 121 39 11 21 57 14 m 100 554 b -296 726 -49 564 -181 643 b -317 710 -303 722 -310 715 b 90 535 -183 625 -60 547 l 100 554 "},"":{"ha":418,"x_min":0,"x_max":0,"o":"m -1247 847 b 86 538 -767 1207 -340 617 b 565 1031 219 840 374 1094 b 606 842 640 992 636 917 b 138 507 531 665 342 507 l 76 356 b 168 406 106 383 136 397 b 328 279 271 431 332 363 b 213 56 328 208 281 111 b 92 3 175 26 135 6 b -53 57 36 -1 -18 13 l -74 8 b -112 57 -89 22 -118 26 b 32 411 -56 193 -22 274 l 75 514 b -1236 826 -356 589 -740 1153 l -1247 847 m 149 532 b 585 851 335 538 518 682 b 556 1013 608 910 621 988 b 149 532 411 1071 275 822 m 114 42 b 271 283 196 85 260 193 b 174 382 275 347 236 396 b 22 231 100 368 49 290 l -44 76 b 114 42 8 24 51 14 "},"":{"ha":467,"x_min":0,"x_max":0,"o":"m 490 285 b 82 -4 425 115 242 -3 b 17 4 57 -4 33 -1 b -44 43 -7 11 -28 24 b -140 -147 -75 -28 -103 -90 b -468 -210 -212 -264 -350 -303 l -453 -196 b -199 -132 -350 -278 -267 -239 b -7 299 -125 -24 -86 108 b 569 1032 143 690 329 1115 b 619 856 639 1003 646 925 l 594 856 b 560 1014 615 921 618 986 b 174 583 422 1071 296 856 b 65 328 115 447 92 389 b 81 343 71 335 75 339 b 174 403 104 378 139 397 b 339 279 275 425 339 363 b 215 47 335 204 285 107 b 467 285 325 90 413 167 l 490 285 m 22 25 b 119 35 56 14 85 19 b 275 279 203 79 265 186 b 178 382 281 343 240 393 b 94 328 149 372 119 358 b 32 235 69 304 50 269 l 28 228 b -36 65 4 168 -15 115 b 22 25 -18 46 4 33 "},"":{"ha":454,"x_min":0,"x_max":0,"o":"m 215 285 b 147 374 261 353 207 404 b -10 129 60 329 0 222 b 60 26 -14 69 10 31 b 324 438 211 15 426 319 b 240 453 299 467 269 472 b 240 467 236 461 240 461 b 349 453 269 492 318 486 b 54 1 471 304 226 -19 b -74 129 -25 6 -74 56 b 99 393 -68 222 6 344 b 236 285 176 432 294 393 l 215 285 "},"":{"ha":453,"x_min":0,"x_max":0,"o":"m -236 -131 b 138 -44 -187 24 -28 15 b 188 65 156 -11 169 26 b 181 60 185 64 182 61 b 85 0 153 28 119 10 b -76 126 -18 -19 -76 44 b 94 389 -71 214 3 340 b 243 397 143 414 206 408 b 304 356 264 390 286 376 b 857 1031 451 731 626 1108 b 813 706 981 957 888 793 b 431 506 721 593 579 500 l 342 285 b 192 -62 289 161 238 33 b 501 -229 317 -117 439 -194 b 1240 -164 721 -131 1007 -97 b 1360 -315 1303 -183 1371 -242 b 1108 -437 1347 -422 1192 -437 b 501 -253 857 -437 667 -350 b 374 -514 414 -281 322 -374 b 356 -529 385 -524 365 -539 b 478 -239 294 -387 379 -276 b 181 -83 419 -208 301 -136 b 124 -194 161 -125 143 -160 b -76 -310 75 -267 3 -310 b -236 -131 -172 -310 -261 -239 m 526 -242 b 1108 -412 686 -331 867 -412 b 1342 -315 1176 -412 1328 -403 b 1229 -183 1347 -253 1283 -203 b 526 -242 1011 -122 736 -156 m 439 531 b 799 719 574 525 710 615 b 846 1010 864 801 950 936 b 439 531 700 1069 564 821 m 143 364 b -12 122 54 325 -3 214 b 85 24 -24 60 15 10 b 231 169 147 38 203 111 b 297 332 288 308 292 319 b 143 364 256 374 190 388 m 126 -62 b -211 -136 -24 -6 -168 6 b -76 -286 -231 -224 -160 -297 b 65 -183 -24 -281 21 -242 b 126 -62 85 -151 108 -107 "},"":{"ha":506,"x_min":0,"x_max":0,"o":"m 818 707 b 433 507 726 600 585 503 b 294 153 393 410 332 271 b 313 26 274 89 269 31 b 506 285 406 17 472 218 l 529 285 b 308 3 489 208 418 -3 b 224 103 257 7 231 54 b 99 7 199 58 143 13 b -68 129 -4 -17 -68 46 b 104 392 -62 221 11 343 b 313 363 181 422 257 421 b 374 513 332 413 353 463 b -68 697 208 522 76 608 b -192 635 -101 674 -144 649 b -844 644 -368 572 -610 561 b -1000 796 -908 668 -1000 717 b -768 946 -996 897 -849 936 b -68 722 -461 978 -256 849 b -33 1024 46 800 63 929 b -12 1038 -43 1038 -28 1047 b -47 713 88 940 75 788 b 381 532 93 621 222 538 b 863 1033 513 840 667 1099 b 818 707 986 968 894 792 m -86 713 b -762 921 -271 829 -471 956 b -975 796 -831 915 -975 883 b -835 668 -975 732 -890 682 b -197 654 -610 586 -372 596 b -86 713 -160 668 -121 688 m 443 532 b 804 722 581 532 717 619 b 851 1015 856 781 963 967 b 443 532 710 1078 571 825 m 151 372 b -4 129 65 329 7 221 b 94 26 -12 60 31 17 b 231 153 158 36 197 104 b 232 158 231 156 231 157 b 303 339 250 225 274 275 b 151 372 263 383 200 396 "},"":{"ha":494,"x_min":0,"x_max":0,"o":"m 813 711 b 429 513 722 601 581 503 b 278 107 317 231 290 172 b 310 26 269 64 275 29 b 494 285 397 25 467 217 l 518 285 b 304 3 483 207 414 -1 b 218 106 253 8 224 58 b 167 44 206 85 188 63 b 24 4 125 7 72 -6 b -69 126 -35 17 -69 67 b 97 390 -65 222 7 347 b 251 400 150 415 211 415 b 304 367 268 393 288 383 l 365 513 b -69 697 204 522 71 606 b -197 635 -106 674 -149 653 b -850 649 -374 569 -622 561 b -1004 800 -912 668 -1004 722 b -771 946 -1000 903 -856 935 b -69 726 -465 978 -261 847 b -44 747 -60 733 -53 738 b -800 964 -301 917 -521 1006 l -806 975 b -35 758 -517 1022 -301 931 b -37 1022 49 840 40 940 b -17 1042 -47 1042 -31 1047 b -14 744 63 949 75 836 l 42 707 b 392 571 140 635 265 576 b 857 1032 522 861 672 1101 b 813 711 983 986 881 775 m -90 711 b -767 922 -275 829 -474 956 b -979 800 -839 918 -979 882 b -843 668 -979 731 -893 688 b -207 653 -615 586 -378 597 b -90 711 -162 674 -125 688 m 799 1000 b 857 896 850 983 867 946 b 615 604 829 779 713 657 b 451 558 563 576 506 563 l 440 532 b 799 726 575 532 713 618 b 850 1013 850 782 954 961 b 457 572 707 1082 578 850 b 611 618 508 578 561 594 b 844 896 703 668 818 789 b 796 983 851 939 839 975 l 799 1000 m 150 372 b -8 126 61 328 1 222 b 42 31 -14 82 7 44 b 222 151 115 1 190 88 l 225 158 l 294 343 b 150 372 260 394 200 396 m -53 711 b 376 538 89 619 217 544 l 385 557 b 36 692 260 564 136 619 l -24 732 b -53 711 -28 725 -39 721 "},"":{"ha":761,"x_min":0,"x_max":0,"o":"m 378 536 b 853 1035 510 844 661 1099 b 911 965 886 1019 906 996 b 813 708 931 875 869 782 b 428 508 721 600 575 503 b 282 151 379 390 319 274 b 272 97 276 132 272 117 b 335 18 267 49 276 18 b 607 194 443 18 544 107 b 653 449 671 283 706 385 b 569 464 632 474 603 478 b 569 474 569 468 575 468 b 676 458 603 497 647 497 b 632 185 740 390 701 279 b 335 -4 560 83 456 6 b 224 68 282 -4 242 15 b 215 101 219 79 217 90 l 183 58 b 86 6 154 28 119 10 b -75 128 -17 -19 -75 43 b 97 390 -75 219 -1 342 b 247 400 140 415 208 415 b 301 365 265 393 283 379 b 360 493 319 408 340 451 l 368 513 l 353 514 b -946 825 -72 599 -454 1149 l -957 846 b 375 536 -476 1206 -51 617 l 378 536 m 438 532 b 793 724 575 532 706 619 b 892 961 853 792 903 875 b 847 1015 886 986 872 1006 b 438 532 696 1074 560 829 m 238 375 b 144 371 208 390 172 385 b -17 128 57 326 -7 219 b 82 24 -22 64 18 15 b 164 78 110 28 140 49 b 228 169 193 103 213 138 l 228 171 b 292 342 244 229 268 286 b 238 375 275 361 257 372 "},"":{"ha":474,"x_min":0,"x_max":0,"o":"m 347 293 b 156 -144 268 101 225 -31 b -178 -207 78 -261 -60 -300 l -162 -192 b 97 -129 -54 -276 28 -236 b 190 64 132 -72 161 -10 l 190 63 b 92 4 161 28 128 14 b -69 125 -11 -21 -74 47 b 253 400 -71 276 90 460 b 307 365 271 393 290 383 b 861 1038 460 736 633 1117 b 910 861 938 1011 939 932 l 886 861 b 856 1018 906 921 921 989 b 515 688 732 1069 618 913 l 435 513 m 243 382 b -11 125 118 435 -6 226 b 88 28 -17 63 24 14 b 217 136 146 40 186 89 b 282 303 232 182 260 249 l 297 342 b 243 382 281 360 260 375 "},"":{"ha":478,"x_min":0,"x_max":0,"o":"m 306 210 b 783 -32 161 -168 538 -297 b 799 -49 794 -28 804 -39 b 217 106 557 -308 179 -197 b 182 64 207 94 194 78 b 38 1 135 15 96 -3 b -75 126 -33 7 -75 65 b 96 389 -69 218 3 344 b 243 396 142 411 206 411 b 301 361 263 390 282 379 b 364 513 321 411 342 463 l 357 514 b -942 825 -68 599 -450 1149 l -953 846 b 374 536 -474 1204 -50 621 b 849 1025 506 838 661 1092 b 893 838 928 997 925 911 b 426 508 815 664 624 504 l 306 210 m 438 529 b 872 846 626 531 796 685 b 843 1007 892 907 908 981 b 438 529 693 1069 563 824 m 239 378 b 142 369 206 389 172 383 b -12 126 56 324 -3 218 b 38 31 -19 82 3 42 b 161 74 83 19 125 40 b 229 172 189 101 214 139 l 290 336 b 239 378 274 357 257 369 "},"":{"ha":453,"x_min":0,"x_max":0,"o":"m 233 349 b 157 369 224 376 192 385 b 19 208 93 342 43 276 b 208 265 67 208 161 226 b 233 349 231 282 242 314 m 14 193 b -6 125 4 169 -4 149 b 68 22 -10 67 19 28 b 332 432 215 13 429 317 b 249 449 308 463 279 467 b 249 463 244 457 249 457 b 351 449 279 488 322 482 b 58 -1 479 301 233 -22 b -64 125 -21 3 -64 51 b 103 389 -64 217 8 340 b 257 339 169 421 257 403 b 239 281 257 321 250 296 l 239 281 l 239 281 b 14 193 199 217 83 193 l 14 193 "},"":{"ha":278,"x_min":0,"x_max":0,"o":"m 121 307 b 185 322 150 307 175 313 b 111 283 181 293 150 283 b -47 -103 31 89 19 63 b 181 -229 46 -150 129 -200 b 917 -168 399 -133 686 -99 b 1044 -322 986 -187 1056 -244 b 790 -442 1029 -426 869 -442 b 175 -254 532 -442 346 -353 b 90 -562 81 -300 -3 -442 b 76 -572 100 -578 86 -582 b 154 -239 -33 -451 47 -300 b -57 -125 110 -215 31 -169 b -254 -478 -118 -257 -179 -368 b -600 -651 -326 -576 -437 -667 b -808 -322 -787 -635 -849 -478 b -710 -158 -787 -264 -760 -206 b -103 -79 -600 -40 -411 36 b 51 278 -18 119 13 200 b -74 268 -7 283 -58 283 b 61 307 -68 307 -3 307 l 68 321 b 303 757 131 461 211 669 b 461 765 353 804 408 819 l 443 751 b 293 682 397 808 342 760 b 126 319 269 643 165 413 l 121 307 m -694 -174 b -783 -328 -740 -219 -768 -274 b -600 -632 -828 -472 -769 -610 b -271 -403 -446 -625 -350 -518 b -111 -101 -212 -312 -160 -207 b -694 -174 -401 19 -592 -67 m 206 -244 b 790 -417 364 -337 547 -422 b 1019 -318 860 -417 1010 -407 b 913 -193 1029 -254 967 -206 b 206 -244 692 -124 414 -158 "},"":{"ha":271,"x_min":0,"x_max":0,"o":"m 303 507 b 239 513 281 507 260 510 b 124 304 194 450 151 364 b 192 324 153 308 176 308 b 114 279 182 294 153 285 b 36 92 75 193 46 110 b -279 -511 -54 -119 -133 -344 b -587 -644 -350 -592 -450 -657 b -756 -557 -664 -639 -722 -606 l -742 -542 b -587 -619 -708 -586 -660 -615 b -337 -493 -483 -619 -404 -565 b -21 101 -187 -335 -122 -111 b 56 279 -11 119 17 197 b -69 269 3 279 -56 285 b 71 304 -65 304 3 304 b 199 519 100 367 147 454 b -147 690 75 549 -33 618 b -272 628 -181 667 -225 647 b -921 642 -447 569 -693 560 b -1075 792 -983 667 -1075 715 b -843 938 -1075 893 -931 932 b -147 719 -539 971 -336 840 b -114 1019 -36 796 -19 922 b -99 1033 -122 1033 -108 1043 b -128 706 -11 938 8 808 b 215 540 -18 635 92 567 b 357 613 263 596 313 631 b 393 564 379 603 393 583 b 303 507 393 522 333 507 m -167 706 b -843 918 -350 826 -549 947 b -1051 792 -911 908 -1051 879 b -915 661 -1056 725 -964 681 b -282 651 -689 579 -451 589 b -167 706 -239 667 -200 686 m 349 592 b 256 535 321 601 289 578 b 303 531 271 532 286 531 b 361 546 326 531 347 535 b 349 592 378 564 367 586 "},"":{"ha":271,"x_min":0,"x_max":0,"o":"m 76 319 b 344 485 147 456 249 583 l 326 471 b 129 318 265 544 188 438 l 124 306 b 190 319 157 306 181 310 b 113 276 186 290 151 281 b -589 -649 -26 -19 -154 -679 b -758 -561 -665 -639 -724 -610 l -744 -547 b -583 -624 -710 -590 -657 -619 b 54 276 -215 -624 -71 11 b -71 265 1 276 -51 281 b 69 306 -61 306 1 306 l 76 319 "},"":{"ha":276,"x_min":0,"x_max":0,"o":"m 79 313 b 318 757 143 453 225 668 b 476 765 368 804 424 819 l 458 751 b 308 682 413 808 357 760 b 136 319 283 642 169 401 l 131 304 b 199 322 160 307 188 310 b 121 279 193 293 161 281 b 43 83 81 189 53 104 b -42 -118 14 17 -11 -53 b 242 -331 72 -183 156 -256 b 363 -431 347 -419 354 -425 b 938 -618 524 -558 722 -669 b 963 -201 1179 -560 1181 -268 b 669 -201 876 -172 771 -178 b 661 -161 676 -178 650 -176 b 994 -169 772 -129 893 -129 b 942 -640 1225 -268 1204 -578 b 331 -435 713 -696 500 -572 b 226 -347 282 -396 256 -371 b -51 -140 142 -272 57 -204 b -64 -167 -57 -150 -60 -158 b 210 -371 29 -222 121 -296 b 1051 -624 457 -569 707 -774 b 1058 -635 1049 -632 1063 -629 b 201 -382 704 -790 451 -583 b -71 -181 113 -307 24 -236 b -603 -672 -167 -389 -301 -703 b -815 -512 -721 -664 -789 -597 b -812 -339 -833 -460 -831 -399 b -715 -169 -796 -279 -764 -218 b -94 -92 -557 -3 -293 8 b -18 92 -68 -29 -42 32 b 61 279 -8 118 21 196 b -68 267 6 279 -51 285 b 75 304 -64 304 8 304 l 79 313 m -106 -112 b -697 -183 -293 -17 -549 -26 b -789 -344 -743 -233 -775 -287 b -793 -506 -807 -399 -807 -457 b -600 -650 -769 -583 -707 -640 b -124 -153 -353 -650 -214 -350 b -293 -94 -178 -124 -233 -104 b -737 -344 -479 -67 -678 -161 b -637 -604 -772 -449 -750 -562 b -643 -615 -643 -607 -635 -615 b -753 -343 -761 -572 -789 -451 b -290 -83 -689 -150 -485 -53 b -117 -137 -229 -92 -172 -112 l -106 -112 "},"":{"ha":274,"x_min":0,"x_max":0,"o":"m 67 311 b 307 757 129 451 215 669 b 465 765 357 804 413 819 l 447 751 b 297 682 401 808 346 760 b 121 307 272 642 157 392 l 119 303 b 183 319 147 303 172 308 b 108 278 179 292 147 281 b 32 88 69 190 40 107 b -54 -117 4 21 -24 -50 b 89 -353 18 -178 78 -265 b -256 -483 119 -590 -124 -593 b -597 -651 -329 -579 -437 -665 b -804 -492 -712 -640 -779 -576 b -707 -158 -842 -381 -787 -244 b -101 -83 -561 -4 -283 26 l -26 96 b 50 275 -18 118 10 193 b -76 267 -3 278 -60 281 b 63 303 -71 303 -3 303 l 67 311 m -690 -176 b -782 -486 -771 -257 -812 -382 b -594 -629 -760 -562 -697 -618 b -299 -442 -462 -626 -371 -542 b -304 -433 -301 -439 -304 -436 b -335 -174 -351 -368 -393 -240 b -214 -237 -283 -111 -219 -174 b -236 -237 -217 -246 -233 -251 b -317 -186 -239 -196 -281 -143 b -286 -419 -368 -246 -326 -362 l -283 -422 b -112 -106 -221 -328 -165 -224 b -690 -176 -283 1 -553 -26 m -65 -140 b -242 -464 -119 -258 -175 -364 b 65 -356 -124 -560 90 -572 b -65 -140 58 -274 1 -196 "},"":{"ha":424,"x_min":0,"x_max":0,"o":"m 126 -74 b 182 57 146 -29 165 14 b 88 1 154 25 119 10 b -74 129 -14 -18 -74 44 b 97 386 -68 217 6 342 b 249 396 146 410 210 410 b 314 350 271 392 292 375 b 563 482 385 472 476 575 l 550 474 b 258 96 433 610 278 139 b 179 -97 233 31 207 -33 b 404 -226 275 -146 356 -199 b 1142 -164 622 -129 908 -94 b 1269 -318 1206 -183 1279 -242 b 1017 -435 1250 -421 1093 -435 b 404 -251 758 -435 567 -347 b 321 -556 310 -293 224 -435 b 300 -567 325 -572 310 -576 b 379 -236 200 -444 278 -293 b 169 -121 338 -212 258 -165 b 19 -407 122 -226 74 -324 b -369 -644 -53 -528 -175 -664 b -579 -489 -485 -635 -554 -572 b -574 -318 -593 -435 -593 -378 b -481 -154 -558 -261 -525 -203 b 68 -54 -371 -37 -182 29 l 126 -74 m -461 -168 b -554 -322 -506 -217 -539 -269 b -554 -485 -569 -382 -569 -435 b -369 -625 -535 -556 -469 -615 b -39 -397 -218 -619 -121 -512 b 117 -96 19 -307 69 -204 b 53 -69 96 -86 76 -78 b -461 -168 -186 4 -361 -62 m 428 -242 b 1017 -411 589 -332 774 -417 b 1244 -312 1079 -411 1231 -401 b 1138 -189 1254 -251 1185 -203 b 428 -242 914 -119 642 -154 m 300 328 b 239 376 282 353 263 367 b 146 367 210 386 176 382 b -8 124 58 322 1 217 b 88 26 -18 60 19 11 b 171 74 111 31 140 44 b 217 139 188 96 201 115 b 282 285 231 176 254 229 b 282 288 282 286 282 288 l 282 288 b 301 329 289 301 296 315 l 300 328 "},"":{"ha":411,"x_min":0,"x_max":0,"o":"m -461 -168 b -554 -322 -506 -217 -539 -269 b -554 -485 -569 -382 -569 -435 b -369 -625 -535 -556 -469 -615 b -39 -397 -218 -619 -121 -512 b 117 -96 19 -307 69 -204 b -461 -168 -75 -21 -314 -12 m 300 328 b 239 376 282 353 263 367 b 146 367 210 386 176 382 b -8 124 58 322 1 217 b 88 26 -18 60 19 11 b 171 74 111 31 140 44 b 217 139 188 96 201 115 b 282 285 231 176 254 229 b 282 288 282 286 282 288 b 301 329 289 301 296 315 l 300 328 m 1340 -89 b 169 -121 1186 -614 410 -200 b 19 -407 122 -226 74 -324 b -369 -644 -53 -528 -175 -664 b -579 -489 -485 -635 -554 -572 b -574 -318 -593 -435 -593 -378 b -481 -154 -558 -261 -525 -203 b 126 -74 -371 -37 -182 29 b 182 57 146 -29 165 14 b 88 1 154 25 119 10 b -74 129 -14 -18 -74 44 b 97 386 -68 217 6 342 b 249 396 146 410 210 410 b 314 350 271 392 292 375 b 563 482 385 472 476 575 l 550 474 b 258 96 433 610 278 139 b 179 -97 233 31 207 -33 b 1315 -83 488 -210 1189 -537 l 1340 -89 "},"":{"ha":411,"x_min":0,"x_max":0,"o":"m 554 475 b 265 94 439 611 286 143 b 183 -101 239 29 213 -37 b 461 -310 293 -167 375 -236 b 614 -437 588 -418 601 -428 b 1138 -590 767 -549 947 -636 b 1165 -183 1372 -533 1378 -249 b 878 -183 1081 -156 978 -161 b 871 -143 882 -161 860 -158 b 1193 -153 981 -112 1099 -112 b 1143 -611 1419 -249 1401 -550 b 581 -439 936 -662 742 -561 b 375 -267 494 -367 446 -326 b 172 -125 313 -218 250 -169 b 161 -150 168 -133 164 -140 b 431 -349 254 -203 340 -276 b 1251 -596 668 -543 914 -742 b 1257 -607 1249 -604 1261 -601 b 422 -361 914 -758 663 -556 b 156 -164 335 -287 244 -214 b 25 -406 114 -251 72 -335 b -364 -643 -46 -526 -167 -664 l -364 -643 b -574 -487 -479 -635 -549 -571 b -475 -153 -606 -369 -560 -243 b 131 -76 -319 13 -61 22 b 189 60 150 -29 168 15 b 97 7 161 29 128 13 l 97 7 b -65 131 -7 -18 -65 46 b 101 392 -64 221 10 343 b 254 401 150 417 217 414 b 321 356 276 392 299 378 b 571 490 392 475 483 581 l 554 475 m -458 -167 b -551 -482 -539 -251 -579 -371 b -361 -621 -529 -556 -467 -611 l -361 -621 b -35 -392 -211 -621 -114 -511 b 104 -136 15 -318 63 -229 b -61 -79 51 -108 -4 -87 b -499 -322 -243 -51 -437 -143 b -396 -576 -532 -425 -506 -536 b -403 -587 -403 -579 -393 -587 b -510 -321 -517 -546 -546 -428 b -58 -68 -447 -133 -249 -37 b 110 -122 -1 -76 54 -96 b 121 -96 114 -112 119 -106 b -458 -167 -61 -4 -311 -12 l -458 -167 m 222 146 b 310 332 239 190 271 263 b 249 381 289 357 268 372 b 153 372 215 392 183 386 b -4 128 65 328 4 221 b 92 28 -14 63 28 15 l 92 28 b 175 78 119 33 150 49 b 222 146 192 99 210 119 l 222 146 "},"":{"ha":410,"x_min":0,"x_max":0,"o":"m 554 472 b 372 353 494 542 428 460 b 176 -112 272 133 260 76 b 321 -350 250 -175 310 -262 b -29 -482 350 -590 107 -593 b -369 -651 -101 -578 -208 -665 l -369 -651 b -578 -490 -485 -640 -553 -575 b -575 -322 -594 -440 -592 -382 b -479 -156 -557 -262 -526 -206 b 126 -81 -333 0 -54 31 b 186 56 147 -35 167 10 b 93 3 157 28 124 8 l 93 3 b -71 126 -8 -21 -71 44 b 99 390 -67 219 6 343 b 253 400 147 414 214 414 b 318 351 276 390 299 376 b 572 490 389 475 482 581 l 554 472 m 167 -136 b -14 -462 104 -253 64 -369 b 299 -353 107 -558 324 -572 b 167 -136 288 -271 235 -193 l 167 -136 m -465 -174 b -554 -328 -507 -218 -539 -274 b -557 -485 -569 -385 -572 -437 b -367 -629 -535 -561 -474 -618 l -367 -629 b -67 -440 -233 -626 -144 -542 b -76 -432 -71 -437 -74 -435 b -104 -169 -122 -367 -164 -237 b 14 -235 -54 -108 11 -169 b -8 -235 14 -243 -7 -249 b -87 -183 -8 -193 -51 -139 b -57 -418 -137 -243 -99 -361 b -54 -419 -57 -418 -57 -419 b 118 -103 14 -331 65 -218 b -465 -174 -54 6 -324 -22 l -465 -174 m 219 140 b 307 332 239 189 268 261 b 244 379 288 354 265 372 b 149 368 214 390 179 385 b -8 124 61 326 0 219 b 90 25 -17 61 25 13 l 90 25 b 172 75 115 31 147 47 b 219 140 189 96 206 118 l 219 140 "},"":{"ha":406,"x_min":0,"x_max":0,"o":"m 538 465 b 253 88 426 600 271 136 b -65 -515 167 -126 75 -357 b -372 -649 -136 -596 -237 -658 b -542 -561 -450 -639 -508 -611 l -528 -547 b -372 -625 -493 -590 -444 -619 b -47 -397 -222 -625 -125 -514 b 176 54 38 -272 108 -104 b 83 0 149 22 115 4 b -78 121 -18 -24 -78 43 b 93 383 -78 214 -4 339 b 243 393 136 407 204 407 b 308 347 264 383 286 371 b 558 479 376 468 469 568 l 538 465 m 296 325 b 233 374 275 349 256 363 b 142 363 204 383 169 378 b -18 121 54 319 -10 214 b 78 25 -24 58 15 10 b 160 72 107 29 136 43 b 208 133 179 92 196 111 b 296 325 225 179 256 254 "},"":{"ha":469,"x_min":0,"x_max":0,"o":"m -515 -125 b -142 -39 -467 31 -306 19 b 0 301 -97 58 -50 181 b 551 1040 151 683 324 1090 b 597 796 667 1015 647 890 b 150 511 510 640 331 510 b 83 342 126 454 104 397 b 179 399 111 375 144 394 b 311 356 233 414 286 394 b 261 150 339 301 281 214 b 281 25 242 97 242 31 b 471 285 372 15 463 264 l 494 285 b 281 0 456 208 392 -6 b 203 156 194 6 175 92 b 253 278 208 181 233 239 b 183 379 281 331 272 394 b 101 325 156 369 125 356 b 39 233 78 297 53 267 l 36 231 b -87 -58 -7 126 -47 24 b 222 -222 39 -111 160 -189 b 956 -160 442 -125 728 -92 b 1082 -311 1019 -178 1092 -236 b 831 -431 1067 -417 908 -431 b 218 -247 572 -431 383 -344 b 97 -508 136 -275 39 -369 b 78 -524 101 -519 86 -533 b 194 -233 14 -383 101 -272 b -97 -78 140 -203 24 -131 b -356 -306 -147 -189 -229 -306 b -515 -125 -457 -306 -539 -233 m 247 -236 b 831 -408 408 -325 586 -408 b 1058 -311 892 -408 1044 -397 b 950 -178 1067 -247 1006 -197 b 247 -236 728 -117 456 -150 m 160 535 b 574 803 324 538 497 656 b 549 1021 618 886 644 994 b 160 535 407 1060 281 815 m -150 -58 b -496 -131 -301 0 -453 11 b -356 -281 -510 -217 -442 -292 b -150 -58 -257 -269 -197 -144 "},"":{"ha":469,"x_min":0,"x_max":0,"o":"m 142 506 b 72 332 118 450 94 389 b 176 403 108 379 142 393 b 308 354 231 413 283 397 b 279 19 351 268 172 68 b 469 285 375 15 435 213 l 493 285 b 279 0 458 204 390 -6 b 250 281 129 13 201 183 b 181 379 279 335 268 393 b 99 331 151 374 122 358 b 13 188 74 300 54 271 b -72 0 -17 122 -47 54 l -136 0 b 40 407 -72 132 -18 271 b 82 511 54 443 68 476 b -354 694 -82 519 -218 606 b -481 633 -394 671 -433 646 b -1135 642 -656 569 -904 560 b -1290 793 -1199 665 -1290 714 b -1057 943 -1290 894 -1143 935 b -354 719 -750 978 -544 846 b -321 1022 -243 800 -226 926 b -306 1036 -331 1036 -317 1046 b -335 710 -204 936 -217 794 b 89 529 -201 619 -68 536 b 529 1040 211 814 354 1057 b 604 1007 558 1038 583 1028 b 485 658 697 914 567 738 b 142 506 392 568 267 504 m -375 710 b -1057 919 -560 826 -760 954 b -1265 793 -1125 914 -1265 881 b -1131 665 -1269 729 -1179 681 b -492 651 -900 583 -661 593 b -375 710 -447 665 -408 686 m 151 529 b 460 665 271 535 378 589 b 560 1013 528 731 700 954 b 151 529 415 1071 279 822 "},"":{"ha":471,"x_min":0,"x_max":0,"o":"m 74 329 b 86 343 76 333 81 339 b 178 401 117 376 150 397 b 314 356 236 414 290 397 b 261 153 343 304 285 215 b 281 26 242 100 242 32 b 471 285 378 18 442 215 l 494 285 b 281 3 460 207 392 -3 b 203 158 193 7 174 94 b 257 279 214 182 232 236 b 183 376 281 333 271 397 b 101 328 154 371 125 356 b 17 188 72 294 50 263 b -65 3 -11 122 -39 61 l -132 3 b 42 406 -69 133 -11 269 b 83 508 56 440 71 475 b -351 692 -78 518 -211 603 b -478 629 -385 668 -429 649 b -1128 643 -651 565 -900 556 b -1283 793 -1192 663 -1283 717 b -1050 939 -1278 896 -1137 929 b -351 721 -744 974 -540 842 b -324 740 -340 728 -332 733 b -1079 960 -579 913 -797 1000 l -1079 969 b -312 754 -799 1015 -571 922 b -317 1018 -229 836 -242 936 b -297 1036 -326 1036 -311 1042 b -292 740 -217 943 -207 832 l -235 701 b 108 567 -135 631 -14 575 b 560 1031 233 851 381 1083 b 601 808 649 997 643 885 b 144 507 518 644 329 497 l 74 329 m -371 707 b -1050 917 -554 824 -753 950 b -1260 793 -1117 911 -1260 876 b -1122 663 -1262 726 -1171 683 b -487 649 -894 581 -656 590 b -371 707 -443 668 -403 683 m 524 993 b 583 908 572 981 588 946 b 165 551 561 729 331 560 l 154 526 b 578 811 332 531 493 660 b 550 1013 615 879 624 981 b 171 567 417 1056 290 836 b 569 921 317 579 556 740 b 518 978 571 949 554 972 l 524 993 m 103 551 b -244 688 -21 561 -143 617 b -306 728 -264 701 -285 715 b -332 707 -312 721 -322 715 b 93 532 -193 615 -64 540 b 103 551 97 539 100 544 "},"":{"ha":736,"x_min":0,"x_max":0,"o":"m 67 508 b -1228 818 -357 596 -737 1140 l -1239 839 b 92 529 -758 1197 -333 610 b 579 1032 225 835 385 1096 b 531 700 701 974 610 788 b 144 501 438 593 297 494 l 75 332 l 82 340 b 310 350 140 407 261 431 b 253 90 351 281 263 169 b 310 14 243 43 257 14 b 589 189 422 14 524 101 b 656 396 635 258 669 335 b 549 457 644 442 599 485 b 549 467 544 461 549 461 b 683 396 606 515 672 454 b 613 179 697 331 665 249 b 310 -11 539 76 438 0 b 204 64 263 -11 219 10 b 253 278 175 129 224 214 b 101 325 306 396 168 399 b 39 233 74 296 53 268 l 21 194 b -69 0 -10 124 -43 57 l -132 0 b 39 404 -69 129 -15 268 l 81 506 b 67 508 76 506 72 507 m 156 525 b 515 715 292 525 428 613 b 569 1014 565 774 675 960 b 156 525 422 1071 282 822 "},"":{"ha":468,"x_min":0,"x_max":0,"o":"m 72 338 b 78 343 74 339 75 340 b 178 401 107 376 142 397 b 307 357 228 415 283 397 b 258 151 336 304 278 217 b 278 25 233 100 238 29 b 469 285 371 19 435 217 l 493 285 b 274 0 453 207 390 -6 b 199 156 189 4 172 94 b 247 285 204 182 228 240 b 181 381 274 333 268 397 b 31 231 108 364 58 285 b -67 -17 -6 135 -35 54 b -464 -210 -137 -174 -281 -356 l -449 -194 b -135 -21 -307 -328 -193 -146 b -4 299 -94 65 -58 168 b 528 1039 139 665 310 1063 b 619 854 628 1029 657 944 l 596 854 b 528 1019 628 929 619 1008 b 178 582 404 1033 289 832 l 72 338 "},"":{"ha":189,"x_min":0,"x_max":0,"o":"m 126 526 b 146 483 146 526 157 506 b 97 440 142 458 115 440 b 74 483 74 436 65 458 b 126 526 79 506 101 526 l 126 526 m 107 390 b 15 203 79 329 38 265 b 499 -36 -119 -172 258 -297 b 514 -50 508 -29 519 -42 b -58 -36 315 -269 19 -228 b 43 390 -107 111 -21 258 l 107 390 "},"":{"ha":496,"x_min":0,"x_max":0,"o":"m 115 407 b 0 160 78 326 26 247 b -10 106 -4 139 -10 124 b 51 24 -15 53 -4 24 b 339 206 169 24 275 114 b 386 468 404 297 440 401 b 300 483 365 493 329 499 b 300 493 294 489 300 489 b 411 479 329 518 381 518 b 365 194 476 407 436 292 b 51 -1 290 89 182 7 b -61 72 0 -1 -46 19 b -61 164 -71 106 -71 139 b 44 407 -35 257 13 326 l 115 407 m 136 554 b 161 510 157 554 174 535 b 107 460 153 479 126 460 b 82 504 88 460 78 479 b 136 554 92 535 115 554 l 136 554 "},"":{"ha":211,"x_min":0,"x_max":0,"o":"m -208 -56 b -158 -78 -192 -62 -175 -69 l -82 100 b 40 390 -43 201 -4 293 l 103 390 b 3 149 68 313 26 236 b 22 22 -17 90 -17 32 b 211 285 118 17 176 211 l 235 285 b 17 3 196 201 133 -3 b -43 36 -7 3 -32 17 b -104 -101 -62 -10 -82 -56 b 128 -226 -7 -149 76 -197 b 868 -164 347 -129 633 -94 b 990 -319 932 -183 1004 -242 b 742 -436 975 -421 819 -436 b 128 -251 483 -436 293 -349 b 44 -558 35 -294 -53 -436 b 25 -568 50 -574 35 -578 b 103 -236 -78 -446 1 -294 b -112 -119 58 -212 -21 -164 b -267 -407 -160 -224 -211 -325 b -651 -646 -335 -529 -457 -665 b -861 -490 -768 -636 -836 -574 b -762 -154 -893 -371 -853 -243 b -208 -56 -651 -36 -461 32 m -758 -169 b -851 -487 -840 -257 -876 -378 b -661 -628 -826 -560 -762 -618 b -335 -399 -510 -624 -412 -517 b -176 -97 -276 -310 -225 -206 l -237 -72 b -758 -169 -479 3 -654 -65 m 138 -243 b 724 -412 299 -335 479 -418 b 957 -315 792 -412 942 -403 b 844 -189 967 -253 899 -204 b 138 -243 625 -121 349 -156 m 114 526 b 138 483 133 526 147 507 b 85 439 128 458 108 439 b 60 483 65 439 56 458 b 114 526 69 507 94 526 "},"":{"ha":211,"x_min":0,"x_max":0,"o":"m 142 642 b 163 596 163 642 172 621 b 110 543 157 569 131 543 b 85 596 85 543 74 564 b 142 642 89 621 115 642 l 142 642 m 265 575 b 167 501 229 575 199 543 b 292 518 208 497 256 486 b 265 575 318 543 297 575 l 265 575 m 151 481 b 1 144 79 367 17 175 b -258 -390 -72 -37 -154 -240 b -668 -644 -331 -515 -461 -665 l -668 -644 b -850 -557 -751 -640 -814 -604 l -835 -536 b -668 -619 -799 -583 -746 -614 l -668 -619 b -315 -375 -507 -619 -404 -500 b -61 154 -217 -231 -133 -28 b 106 492 -46 190 22 372 b -243 668 -19 528 -129 596 b -378 600 -279 642 -326 621 b -1074 617 -565 539 -829 528 b -1239 776 -1140 642 -1239 694 b -990 933 -1235 886 -1083 928 b -243 699 -664 969 -446 829 b -207 731 -228 710 -217 719 b -207 1021 -112 818 -124 928 b -186 1036 -217 1036 -201 1047 b -192 715 -97 933 -87 814 b -222 683 -201 704 -211 694 b 121 513 -108 611 1 543 b 261 600 167 569 214 606 b 307 497 318 596 354 543 b 151 481 265 461 204 471 l 151 481 m -264 683 b -990 913 -461 814 -674 949 b -1214 776 -1062 901 -1214 871 b -1068 638 -1218 704 -1119 658 b -389 626 -824 549 -569 560 b -264 683 -342 642 -300 663 l -264 683 "},"":{"ha":211,"x_min":0,"x_max":0,"o":"m -44 42 b -107 -111 -65 -10 -86 -60 b 38 -346 -35 -169 25 -258 b -311 -476 65 -586 -178 -586 b -650 -644 -385 -574 -493 -658 l -651 -644 b -858 -486 -765 -632 -833 -571 b -856 -318 -875 -435 -872 -376 b -762 -153 -840 -258 -808 -200 b -157 -76 -614 3 -337 35 b -82 103 -131 -17 -106 44 b 42 390 -39 203 -3 296 l 101 390 l 106 390 b 1 151 69 313 28 238 b 22 26 -17 92 -19 32 b 211 285 118 19 179 214 l 235 285 b 21 3 200 204 131 -3 b -44 42 -10 4 -31 21 l -44 42 m -117 -132 b -262 -404 -164 -231 -210 -328 b -297 -456 -274 -421 -286 -440 b 14 -349 -178 -553 39 -567 b -117 -132 1 -268 -51 -189 l -117 -132 m -747 -168 b -836 -322 -789 -214 -819 -268 b -837 -479 -849 -378 -851 -433 b -650 -621 -815 -556 -754 -612 l -650 -621 b -351 -435 -517 -619 -426 -537 b -358 -426 -354 -431 -356 -428 b -389 -165 -406 -362 -447 -235 b -269 -228 -337 -107 -272 -165 b -290 -231 -269 -239 -289 -244 b -371 -179 -293 -189 -333 -136 b -340 -411 -422 -239 -379 -358 b -337 -414 -337 -414 -337 -414 b -322 -390 -332 -407 -326 -400 b -167 -97 -265 -308 -214 -206 b -747 -168 -337 10 -606 -21 l -747 -168 m 125 526 b 139 465 158 526 153 485 b 97 438 128 449 110 438 b 72 481 74 438 64 456 b 125 526 82 506 104 526 "},"":{"ha":211,"x_min":0,"x_max":0,"o":"m 126 531 b 151 486 146 531 158 511 b 96 440 142 463 118 440 b 72 485 75 440 65 463 b 126 531 78 510 106 531 l 126 531 m -156 -76 b -81 101 -131 -17 -104 43 b 43 390 -40 200 -1 294 l 103 390 l 107 390 b 3 151 72 311 29 235 b 24 22 -14 90 -15 33 b 213 285 118 18 181 213 l 236 285 b 21 0 200 203 133 -4 b -42 39 -7 4 -28 18 b -104 -104 -64 -10 -82 -58 b 174 -312 6 -168 90 -237 b 290 -408 276 -399 283 -404 l 290 -408 l 290 -408 b 853 -590 450 -533 642 -642 b 878 -186 1089 -535 1093 -253 b 592 -189 794 -157 689 -162 b 585 -146 597 -162 574 -160 b 908 -156 694 -117 811 -117 b 857 -614 1135 -250 1114 -553 b 260 -415 633 -667 426 -547 b 161 -331 213 -374 188 -351 b -114 -125 75 -257 -4 -189 b -126 -153 -118 -133 -124 -143 b 144 -351 -33 -206 54 -278 b 967 -597 382 -546 628 -746 b 971 -608 963 -604 975 -601 b 136 -360 625 -761 378 -560 b -133 -164 49 -287 -40 -217 b -262 -406 -171 -253 -214 -337 b -651 -647 -335 -528 -454 -664 l -651 -647 b -861 -490 -767 -637 -837 -572 b -762 -156 -892 -369 -849 -247 b -156 -76 -607 10 -349 21 l -156 -76 m -164 -96 b -746 -168 -349 -4 -599 -15 b -837 -483 -825 -253 -865 -369 b -649 -626 -817 -560 -754 -617 l -649 -626 b -321 -396 -499 -624 -401 -514 b -182 -136 -271 -322 -226 -232 b -349 -83 -235 -112 -293 -90 b -785 -326 -532 -56 -725 -146 b -685 -578 -818 -426 -794 -539 b -689 -590 -689 -582 -683 -587 b -799 -324 -806 -550 -833 -428 b -347 -69 -737 -136 -535 -42 b -178 -125 -286 -79 -232 -96 b -164 -96 -174 -117 -168 -107 l -164 -96 "},"":{"ha":164,"x_min":0,"x_max":0,"o":"m -43 35 b -267 -407 -111 -122 -179 -286 b -650 -651 -335 -529 -456 -665 l -650 -651 b -821 -564 -728 -642 -786 -612 l -806 -549 b -650 -626 -771 -593 -718 -622 l -650 -626 b -319 -397 -500 -626 -403 -515 b -82 97 -228 -262 -150 -74 b 40 389 -43 194 -4 292 l 103 389 l 103 389 b -43 35 49 272 6 156 l -43 35 m 122 525 b 146 481 146 525 156 506 b 93 438 142 457 117 438 b 74 481 74 432 64 457 b 122 525 78 506 103 525 l 122 525 "},"":{"ha":411,"x_min":0,"x_max":0,"o":"m 224 22 b 413 285 319 17 378 211 l 436 285 b 224 3 397 201 333 -1 b 140 153 135 3 111 69 b 63 215 160 197 107 211 b 19 215 47 214 32 214 b -99 -56 -22 117 -60 22 b 213 -221 28 -110 149 -187 b 951 -157 432 -124 717 -90 b 1074 -308 1014 -176 1082 -236 b 819 -429 1060 -415 903 -429 b 213 -244 568 -429 378 -343 b 88 -507 126 -275 32 -367 b 67 -522 96 -518 78 -532 b 189 -231 4 -381 92 -269 b -108 -75 129 -201 14 -129 b -165 -187 -128 -118 -147 -153 b -365 -303 -215 -260 -287 -303 b -526 -124 -461 -303 -550 -231 b -151 -35 -476 32 -317 22 b -6 304 -103 61 -53 182 b 568 1038 144 697 329 1121 b 524 713 696 964 594 800 b 140 514 432 600 290 508 l 53 300 b 164 378 86 332 125 360 b 286 328 232 407 314 393 b 107 221 264 276 182 238 b 193 115 196 206 208 171 b 224 22 183 81 168 32 m 238 -236 b 819 -406 397 -322 576 -406 b 1054 -308 888 -406 1040 -396 b 942 -176 1063 -244 994 -196 b 238 -236 722 -114 446 -147 m 149 538 b 510 726 286 533 422 624 b 557 1018 571 811 665 947 b 149 538 413 1078 275 829 m -161 -56 b -501 -129 -312 3 -458 13 b -365 -278 -521 -217 -447 -289 b -225 -176 -312 -275 -268 -236 b -161 -56 -204 -143 -181 -99 m 174 361 b 28 236 121 338 57 290 b 228 332 92 228 203 275 b 174 361 243 378 210 378 "},"":{"ha":413,"x_min":0,"x_max":0,"o":"m 167 376 b 288 325 232 401 313 390 b 107 219 265 269 185 233 b 197 111 200 206 210 168 b 224 22 186 76 171 31 b 413 285 318 17 382 211 l 436 285 b 222 0 400 201 333 -6 b 143 151 138 1 113 68 b 65 214 161 194 107 211 b 29 214 53 213 40 213 b -68 1 -1 139 -36 69 l -132 1 b 42 407 -71 136 -14 271 b 85 511 56 442 69 476 b -347 696 -78 522 -211 607 b -479 633 -387 674 -429 649 b -1133 643 -656 571 -899 560 b -1283 794 -1190 668 -1289 717 b -1056 946 -1283 896 -1137 938 b -347 721 -742 979 -536 849 b -314 750 -337 732 -328 742 b -314 1024 -229 839 -235 938 b -299 1039 -328 1039 -308 1049 b -299 736 -210 946 -207 828 b -328 711 -308 726 -319 717 b 93 531 -193 619 -64 539 b 571 1028 224 836 379 1093 b 531 703 701 954 600 789 b 146 506 439 594 294 500 b 64 307 118 442 90 374 b 167 376 94 336 129 361 m -372 711 b -1050 922 -551 828 -753 956 b -1264 794 -1119 917 -1258 882 b -1124 668 -1264 732 -1176 682 b -483 653 -899 585 -656 594 b -372 711 -440 668 -401 686 m 157 529 b 513 718 293 526 425 615 b 564 1007 574 794 671 940 b 157 529 417 1068 279 821 m 178 360 b 46 257 131 339 76 300 b 36 232 42 249 39 240 b 228 331 97 226 204 272 b 178 360 244 372 207 375 "},"":{"ha":413,"x_min":0,"x_max":0,"o":"m 167 376 b 288 325 232 401 313 390 b 107 219 265 269 185 233 b 197 111 200 206 210 168 b 224 22 186 76 171 31 b 413 285 318 17 382 211 l 436 285 b 222 0 400 201 333 -6 b 143 151 138 1 113 68 b 65 214 161 194 107 211 b 29 214 53 213 40 213 b -68 1 -1 139 -36 69 l -132 1 b 42 407 -71 136 -14 271 b 85 513 56 443 71 478 b -350 697 -78 522 -210 608 b -476 633 -386 674 -429 654 b -1128 649 -651 571 -900 561 b -1282 800 -1190 669 -1282 721 b -1049 944 -1282 900 -1136 935 b -350 726 -743 979 -540 847 b -324 746 -343 733 -333 738 b -1079 964 -581 914 -800 1007 l -1083 975 b -314 757 -796 1019 -578 928 b -317 1022 -231 839 -240 939 b -303 1042 -326 1042 -312 1047 b -294 744 -218 947 -206 835 l -240 707 b 110 571 -139 633 -15 576 b 571 1028 238 858 388 1090 b 531 703 701 954 600 789 b 146 506 439 594 294 500 b 64 307 118 442 90 374 b 167 376 94 336 129 361 m -371 713 b -1049 919 -556 828 -754 954 b -1258 800 -1118 915 -1258 882 b -1122 669 -1262 731 -1171 688 b -486 654 -894 586 -656 596 b -371 713 -443 674 -404 688 m 157 529 b 513 718 293 526 425 615 b 564 1007 574 794 671 940 b 175 572 424 1065 293 844 b 328 619 226 578 278 593 b 561 896 421 669 536 789 b 517 983 571 939 556 975 l 517 997 b 575 896 567 983 585 944 b 333 606 551 779 431 658 b 168 557 281 576 225 561 l 157 529 m 178 360 b 46 257 131 339 76 300 b 36 232 42 249 39 240 b 228 331 97 226 204 272 b 178 360 244 372 207 375 m -332 713 b 96 538 -197 619 -61 543 l 104 557 b -244 692 -19 565 -143 621 l -306 733 b -332 713 -314 725 -322 719 "},"":{"ha":711,"x_min":0,"x_max":0,"o":"m 44 404 b 85 507 58 439 69 472 b -1224 819 -344 583 -728 1146 l -1235 840 b 94 531 -756 1199 -331 614 b 575 1031 226 836 381 1094 b 536 703 711 958 606 790 b 150 501 444 596 297 497 b 63 297 119 438 90 368 b 171 376 93 331 131 357 b 292 322 233 400 317 385 b 113 215 271 268 190 231 b 201 107 204 201 213 164 b 229 19 190 72 176 24 b 581 229 375 10 507 101 b 617 403 610 274 639 349 b 517 444 600 443 563 472 b 517 458 517 454 522 454 b 646 408 560 494 628 461 b 610 215 668 346 639 267 b 225 -6 532 82 385 -15 b 146 147 140 0 117 63 b 74 210 160 189 113 207 b 28 210 58 208 42 208 b -65 0 -4 135 -35 61 l -128 0 b 44 404 -69 132 -10 268 m 156 526 b 517 717 297 526 429 614 b 567 1011 578 794 679 943 b 156 526 421 1069 282 825 m 176 356 b 46 256 135 340 81 300 l 35 229 b 229 326 100 222 207 269 b 176 356 249 371 210 371 "},"":{"ha":411,"x_min":0,"x_max":0,"o":"m 222 24 b 411 285 319 18 376 213 l 435 285 b 222 -1 397 201 335 -6 b 140 154 135 3 110 67 b 68 218 157 190 110 213 b 26 218 54 217 40 217 b -132 -143 -33 65 -71 -47 b -458 -206 -206 -258 -346 -297 l -443 -190 b -192 -128 -340 -274 -258 -235 b -1 300 -118 -21 -81 111 b 572 1026 150 688 335 1110 b 619 853 644 1000 638 919 l 594 853 b 561 1007 613 914 618 975 b 176 582 425 1065 294 853 l 65 313 b 163 378 94 338 128 363 b 283 324 232 403 314 392 b 111 221 263 272 185 236 b 192 111 194 207 204 165 b 222 24 182 76 168 28 m 171 363 b 44 258 128 340 76 301 l 35 236 b 228 332 97 229 203 272 b 171 363 242 372 207 372 "},"":{"ha":211,"x_min":0,"x_max":0,"o":"m 4 151 b 25 22 -12 90 -15 32 b 213 285 115 19 193 231 l 236 285 b 22 1 200 203 135 -4 b -57 156 -61 4 -82 90 b 60 456 -4 292 11 335 l 85 514 b -354 697 -81 524 -212 607 b -481 633 -387 674 -431 649 b -1128 643 -654 574 -897 563 b -1285 794 -1193 668 -1285 718 b -1053 946 -1279 897 -1133 936 b -354 722 -746 978 -543 849 b -322 1022 -244 803 -226 928 b -301 1036 -329 1036 -317 1047 b -333 713 -207 939 -214 790 b 92 533 -196 619 -67 540 b 574 1031 225 839 379 1097 b 614 840 654 1000 642 910 b 147 507 546 660 339 506 b 58 290 117 436 86 363 l 4 151 m -372 713 b -1049 921 -558 828 -756 956 b -1261 794 -1119 915 -1261 882 b -1119 668 -1261 732 -1172 682 b -485 653 -897 586 -660 596 b -372 713 -446 668 -407 688 m 157 529 b 594 850 344 532 524 683 b 564 1010 618 907 629 985 b 157 529 417 1071 282 825 "},"":{"ha":213,"x_min":0,"x_max":0,"o":"m 4 151 b 25 22 -12 90 -15 32 b 213 285 107 18 193 228 l 236 285 b 22 1 200 203 135 -4 b -57 156 -61 4 -82 90 l 85 514 b -350 699 -79 522 -211 607 b -476 635 -389 674 -432 654 b -1131 649 -656 571 -897 561 b -1282 800 -1189 669 -1286 721 b -1049 946 -1282 901 -1136 935 b -350 726 -743 979 -539 847 l -326 743 b -1087 965 -585 917 -801 1007 l -1087 974 b -314 757 -800 1022 -578 926 b -315 1022 -233 839 -237 940 b -301 1043 -329 1043 -311 1049 b -293 743 -215 949 -204 835 b 110 572 -176 656 -37 576 b 574 1031 239 861 388 1094 b 614 840 646 1000 642 910 b 147 507 546 660 339 506 b 58 290 117 436 86 363 l 4 151 m -369 713 b -1049 921 -554 829 -753 956 b -1262 800 -1115 917 -1257 883 b -1121 669 -1262 731 -1175 688 b -485 654 -897 586 -656 597 b -369 713 -442 674 -401 688 m 157 529 b 594 850 344 532 524 683 b 564 1010 618 907 618 982 b 176 575 424 1067 296 850 b 531 826 319 594 457 690 b 510 983 557 876 586 967 l 514 999 b 544 814 606 976 575 872 b 169 558 465 668 319 575 l 157 529 m -329 713 b 94 538 -196 622 -67 546 l 103 557 b -307 731 -24 564 -150 621 b -329 713 -314 724 -321 718 "},"":{"ha":486,"x_min":0,"x_max":0,"o":"m 82 514 b -1218 825 -344 597 -725 1149 l -1229 846 b 101 536 -749 1204 -324 617 b 115 567 107 546 111 556 b 583 1032 246 857 397 1096 b 538 706 706 956 614 793 b 154 508 446 600 306 503 b 3 157 106 396 38 279 b -7 69 -7 129 -12 96 b 158 43 13 6 106 28 b 382 236 250 75 333 149 b 399 436 413 293 443 375 b 319 449 379 461 350 472 b 319 464 314 460 319 460 b 428 436 361 496 403 472 b 407 221 474 368 440 282 b 154 18 351 125 260 49 b -40 42 93 -3 7 -11 b -60 163 -68 75 -74 124 b 90 513 -21 283 39 397 b 82 514 89 513 88 513 m 165 532 b 524 721 306 532 436 619 b 572 1014 582 801 682 946 b 165 532 426 1071 290 828 "},"":{"ha":203,"x_min":0,"x_max":0,"o":"m 161 529 b 515 722 297 529 429 617 b 550 1017 574 779 693 988 b 161 529 407 1049 278 810 l 161 529 m 15 179 b 511 -36 -92 -175 272 -292 b 526 -49 521 -31 532 -40 b -42 193 264 -336 -164 -181 b 114 567 1 319 60 444 b 553 1036 235 846 378 1078 b 535 708 726 1001 601 790 b 151 510 444 596 297 504 b 15 179 104 401 54 290 l 15 179 "},"":{"ha":692,"x_min":0,"x_max":0,"o":"m 543 179 b 531 132 538 163 533 147 b 1038 -33 464 -185 808 -278 b 1051 -50 1046 -29 1057 -39 b 464 117 808 -317 415 -199 b 503 242 478 181 493 219 l 526 300 b 517 383 540 343 544 379 b 257 0 422 388 288 69 l 193 0 l 288 239 b 304 385 314 300 344 379 b 156 244 260 386 196 307 l 44 0 l -19 0 l 90 239 b 108 365 108 279 136 357 b 25 285 75 375 38 319 l 0 285 b 100 401 18 333 63 389 b 179 317 165 424 185 372 b 306 407 217 365 264 407 b 360 257 383 404 383 319 b 519 406 404 326 464 403 b 590 311 578 404 600 361 b 543 179 578 263 560 222 "},"":{"ha":917,"x_min":0,"x_max":0,"o":"m 532 164 b 550 21 532 164 482 31 b 776 218 651 35 726 138 b 797 424 811 272 846 365 b 714 438 776 449 742 453 b 714 449 707 443 714 443 b 821 433 742 472 790 467 b 801 204 874 369 840 267 b 546 0 746 114 657 15 b 474 169 433 -4 443 104 l 526 300 b 517 383 540 343 544 379 b 257 0 422 388 288 69 l 193 0 l 288 239 b 304 385 314 300 344 379 b 156 244 260 386 196 307 l 44 0 l -19 0 l 90 239 b 108 365 108 279 136 357 b 25 285 75 375 38 319 l 0 285 b 100 401 18 333 63 389 b 179 317 165 424 185 372 b 306 407 217 365 264 407 b 360 257 383 404 383 319 b 519 406 404 326 464 403 b 590 311 578 404 600 361 b 532 164 581 274 547 203 "},"":{"ha":482,"x_min":0,"x_max":0,"o":"m 321 300 b 311 381 335 342 339 378 b 108 132 247 383 160 238 l 49 0 l -18 0 l 93 242 b 118 367 111 282 142 354 b 25 285 93 376 35 308 l 0 285 b 111 403 18 326 72 392 b 169 285 183 424 182 346 b 315 406 210 342 256 401 b 381 297 383 408 393 354 b 326 136 365 243 342 207 b 853 -36 260 -193 615 -290 b 874 -51 867 -31 878 -42 b 260 121 615 -329 208 -208 b 301 253 271 186 290 228 l 321 300 "},"":{"ha":692,"x_min":0,"x_max":0,"o":"m 321 300 b 311 381 335 342 339 378 b 108 132 247 383 160 238 l 49 0 l -18 0 l 93 242 b 118 367 111 282 142 354 b 25 285 93 376 35 308 l 0 285 b 111 403 18 326 72 392 b 169 285 183 424 182 346 b 315 406 210 342 256 401 b 385 325 371 408 388 371 b 358 238 382 296 371 268 b 342 19 342 194 253 29 b 482 100 394 25 443 61 b 606 297 536 154 585 224 b 589 422 618 340 618 388 b 506 436 569 447 536 451 b 506 447 501 443 506 443 b 614 432 536 472 585 467 b 635 297 646 394 647 346 b 503 88 615 215 564 144 b 336 0 456 44 397 7 b 296 242 175 -6 265 168 l 319 296 "},"":{"ha":553,"x_min":0,"x_max":0,"o":"m 469 414 b 365 474 457 464 418 508 b 365 489 361 485 365 485 b 471 474 396 515 440 510 b 501 369 497 446 506 407 b 399 154 496 294 451 211 b 213 110 350 101 286 69 b -24 15 154 26 64 -29 b -24 271 -114 72 -62 200 b 221 400 22 344 106 438 b 226 129 306 361 289 231 b 376 172 281 96 335 125 b 450 290 397 196 429 242 b 469 414 467 329 481 374 m 194 250 b 228 201 210 250 225 228 b 251 300 243 238 251 272 b 206 376 251 336 236 371 b 38 256 139 392 74 321 b 13 25 1 200 -57 67 b 189 131 76 3 143 60 b 176 149 183 136 179 143 b 164 193 168 158 164 175 b 194 250 164 224 179 250 "},"":{"ha":344,"x_min":0,"x_max":0,"o":"m 251 300 b 206 376 251 336 236 371 b 38 256 139 392 74 321 b 13 25 1 200 -57 67 b 251 300 129 -14 251 200 m -24 15 b -24 271 -114 72 -62 200 b 221 400 22 344 106 438 b -24 15 383 325 175 -85 "},"":{"ha":469,"x_min":0,"x_max":0,"o":"m 493 285 b 88 -1 436 124 254 -6 b -44 47 38 -1 -8 8 l -106 -100 b 125 -229 -10 -147 72 -201 b 732 -139 304 -151 528 -112 b 988 -301 822 -150 988 -179 b 885 -419 988 -354 944 -400 b 738 -439 835 -436 776 -439 b 125 -254 481 -439 290 -351 b 42 -561 32 -299 -56 -439 b 22 -569 46 -575 32 -579 b 100 -239 -79 -449 -3 -299 b -115 -121 58 -215 -24 -165 b -657 -654 -243 -335 -322 -682 b -868 -492 -775 -643 -842 -576 b -771 -156 -903 -378 -854 -246 b -208 -56 -660 -40 -468 28 b -158 -75 -192 -61 -175 -68 b -83 100 -132 -17 -107 43 b 283 490 -58 167 119 657 l 268 475 b 85 353 208 543 142 460 b 175 406 113 381 143 397 b 339 282 278 428 339 364 b 214 47 336 206 285 104 b 469 285 326 90 436 182 l 493 285 m -219 -75 b -753 -172 -467 4 -647 -61 b -847 -487 -837 -256 -875 -379 b -657 -631 -824 -564 -762 -621 b -168 -97 -382 -603 -281 -319 b -219 -75 -185 -89 -203 -82 m 149 -244 b 738 -414 310 -337 490 -414 b 875 -397 771 -414 826 -411 b 968 -314 921 -383 963 -353 b 733 -164 982 -214 810 -175 b 149 -244 542 -136 325 -172 m -35 68 b 119 39 8 19 63 11 b 278 282 206 79 268 190 b 181 382 286 346 244 394 b 96 333 153 376 124 358 b -35 68 60 300 50 272 "},"":{"ha":428,"x_min":0,"x_max":0,"o":"m -164 -74 b 56 400 13 328 33 367 b 271 482 121 496 199 558 l 257 468 b 90 371 203 529 142 464 l 97 376 b 238 401 136 403 193 417 b 290 360 260 393 279 379 b 226 153 319 304 247 218 b 247 26 204 99 208 32 b 453 285 340 22 419 218 l 476 285 b 242 1 438 207 361 -3 b 169 158 160 7 140 94 b 232 285 175 182 213 242 b 225 376 247 318 251 360 b 114 358 193 396 143 379 b 56 301 90 342 71 322 b -107 -97 13 207 -19 110 b 1029 -83 201 -210 903 -537 l 1054 -89 b -117 -121 900 -614 124 -200 b -267 -407 -164 -226 -212 -324 b -656 -644 -339 -528 -461 -664 b -865 -489 -771 -635 -840 -572 b -860 -318 -879 -435 -879 -378 b -767 -154 -844 -261 -811 -203 b -164 -74 -657 -37 -472 29 m -747 -168 b -840 -322 -792 -217 -825 -269 b -840 -485 -856 -382 -856 -435 b -656 -625 -821 -556 -756 -615 b -325 -397 -504 -619 -407 -512 b -169 -96 -267 -307 -217 -204 b -747 -168 -361 -21 -600 -12 "},"":{"ha":469,"x_min":0,"x_max":0,"o":"m 263 472 b 74 339 201 544 132 453 b 81 346 76 340 79 344 b 175 403 111 381 143 397 l 175 403 b 340 279 279 428 340 364 b 218 47 339 204 288 106 b 469 285 329 90 436 181 l 493 285 b 108 1 442 128 264 10 b -44 51 50 -8 -10 6 b -111 -107 -67 -1 -89 -56 b 168 -315 0 -171 81 -240 b 285 -412 271 -400 278 -407 l 285 -412 l 285 -412 b 849 -594 443 -536 639 -646 b 874 -187 1086 -539 1092 -256 b 588 -190 789 -160 686 -164 b 578 -147 592 -164 569 -161 b 904 -157 690 -118 807 -118 b 854 -617 1131 -253 1110 -556 b 254 -417 629 -669 422 -550 b 156 -332 208 -376 181 -354 b -119 -128 69 -260 -12 -190 b -132 -154 -125 -135 -129 -144 b 139 -354 -40 -207 49 -279 b 963 -601 376 -549 624 -749 b 967 -612 960 -608 971 -606 b 129 -362 621 -765 372 -562 b -139 -167 42 -292 -46 -219 b -271 -410 -179 -256 -225 -340 b -658 -651 -342 -532 -462 -668 l -658 -651 b -869 -493 -778 -642 -846 -576 b -774 -157 -904 -381 -857 -243 b -165 -78 -618 8 -357 18 b -89 99 -136 -18 -111 42 b 279 488 -60 165 117 656 l 263 472 m -754 -171 b -850 -486 -835 -256 -878 -376 b -658 -629 -826 -562 -765 -619 l -658 -629 b -328 -397 -507 -628 -410 -515 b -189 -137 -281 -325 -235 -233 b -357 -85 -244 -114 -299 -92 b -793 -328 -539 -58 -733 -147 b -696 -581 -829 -429 -803 -540 b -700 -594 -700 -585 -693 -592 b -807 -326 -815 -553 -843 -432 b -354 -71 -746 -137 -544 -42 b -185 -128 -297 -81 -239 -100 b -175 -100 -179 -118 -176 -110 b -754 -171 -357 -7 -607 -15 l -754 -171 m -35 75 b 121 36 6 22 63 6 b 279 282 208 81 269 190 b 181 383 285 346 244 394 l 181 383 b 97 332 153 375 122 358 b 35 238 72 303 53 271 b -17 118 17 201 0 163 l -17 121 l -35 75 "},"":{"ha":469,"x_min":0,"x_max":0,"o":"m -160 -76 b -82 103 -133 -17 -107 43 b 283 489 -57 168 118 651 l 263 472 b 76 340 204 543 135 450 b 83 347 79 343 83 344 b 179 406 114 378 146 399 l 179 406 b 340 282 283 428 340 361 b 221 50 339 207 289 107 b 469 285 329 93 438 185 l 493 285 b 111 1 442 132 267 11 b 24 11 79 -3 44 1 b -40 53 0 17 -22 32 b -112 -111 -62 -1 -85 -54 b 33 -346 -37 -171 24 -258 b -314 -475 60 -583 -181 -583 b -653 -643 -386 -572 -494 -657 l -653 -643 b -860 -485 -768 -632 -836 -571 b -764 -151 -897 -372 -846 -239 b -160 -76 -617 1 -339 32 l -160 -76 m -353 -435 b -358 -425 -356 -431 -356 -426 b -393 -167 -408 -361 -450 -235 b -268 -228 -339 -106 -274 -167 b -293 -231 -271 -240 -292 -244 b -372 -181 -296 -189 -336 -136 b -340 -410 -424 -240 -383 -356 b -339 -412 -340 -412 -340 -412 b -322 -392 -333 -407 -331 -400 b -169 -96 -267 -307 -218 -204 b -746 -169 -339 8 -607 -21 b -840 -478 -824 -250 -869 -372 b -653 -621 -815 -554 -754 -612 l -653 -621 b -353 -435 -518 -619 -428 -532 l -353 -435 m -300 -457 b 13 -347 -181 -551 36 -565 b -122 -131 3 -267 -53 -189 b -265 -404 -164 -231 -212 -326 b -300 -457 -275 -419 -289 -440 l -300 -457 m -12 122 b -25 93 -19 110 -22 97 l -31 76 b 29 32 -12 53 10 39 b 124 40 60 21 93 24 b 283 285 211 82 271 192 b 183 381 288 347 246 396 l 183 381 b 100 333 154 376 125 360 b 38 240 75 304 53 272 b -12 122 21 201 6 163 l -12 122 "},"":{"ha":414,"x_min":0,"x_max":0,"o":"m 256 474 b 74 351 197 542 129 457 b 247 404 119 400 190 422 b 329 282 300 389 329 340 b 164 18 329 190 256 67 b 26 4 122 -1 65 -4 b -51 47 -3 10 -26 22 b -194 -267 -96 -58 -143 -168 b -668 -650 -293 -453 -400 -656 b -839 -564 -746 -640 -799 -611 l -819 -549 b -662 -626 -789 -592 -737 -621 b -251 -251 -456 -619 -337 -418 b -96 101 -194 -140 -142 -15 b 271 488 -67 165 110 654 l 256 474 m -42 69 b 114 38 3 21 56 11 b 271 282 197 82 261 190 b 233 374 274 321 258 356 b 90 332 185 406 126 372 b 26 238 64 307 40 272 l -42 69 "},"":{"ha":453,"x_min":0,"x_max":0,"o":"m 226 153 b 247 26 204 99 208 32 b 453 285 340 22 419 218 l 476 285 b 242 1 438 207 361 -3 b 169 158 160 7 140 94 b 232 285 175 182 213 242 b 225 376 247 318 251 360 b 114 358 193 396 143 379 b 56 301 90 342 71 322 b -28 89 13 207 -19 110 b -271 -404 -100 -83 -179 -269 b -658 -647 -344 -526 -461 -662 b -829 -561 -737 -637 -790 -608 l -810 -547 b -654 -625 -779 -589 -728 -619 b -329 -394 -504 -625 -408 -511 b -92 100 -237 -260 -158 -72 b 271 482 -62 161 113 649 l 257 468 b 90 371 203 529 142 464 l 97 376 b 238 401 136 403 193 417 b 290 360 260 393 279 379 b 226 153 319 304 247 218 "},"":{"ha":697,"x_min":0,"x_max":0,"o":"m 240 47 b 550 207 365 43 476 110 b 625 361 585 250 617 303 b 622 424 628 382 629 404 b 519 478 608 467 561 504 b 519 488 515 482 519 482 b 647 436 564 525 629 489 b 653 358 656 413 657 385 b 576 196 642 294 611 244 b 242 22 496 90 372 18 b 339 -387 338 -81 358 -247 b 121 -639 326 -482 250 -707 b 172 40 -54 -540 36 -261 b 97 1 147 19 122 6 b -67 128 -6 -21 -67 42 b 103 389 -64 218 10 342 b 319 354 182 429 265 410 l 339 392 l 403 392 l 240 47 m 221 11 b 131 -619 82 -283 -12 -549 b 315 -385 243 -676 304 -462 b 221 11 336 -249 315 -90 m 310 332 b 150 368 265 386 214 397 b -6 125 67 326 6 218 b 93 25 -12 61 29 11 b 175 74 121 29 150 47 b 206 115 188 86 197 99 l 236 178 l 310 332 "},"":{"ha":311,"x_min":0,"x_max":0,"o":"m 181 251 b 140 154 165 218 150 189 l 140 154 b 632 -64 25 -206 393 -322 b 651 -79 646 -54 656 -69 b 88 183 385 -365 -58 -200 l 88 183 b 132 285 103 218 117 251 b 88 432 175 363 97 392 l 25 285 l 0 285 l 78 456 b 74 519 68 469 58 494 b 126 519 88 553 136 549 l 97 456 b 157 382 107 422 132 403 b 181 251 210 335 204 300 l 181 251 "},"":{"ha":439,"x_min":0,"x_max":0,"o":"m 269 246 b 222 117 244 206 233 163 b 250 25 214 71 219 32 b 439 285 342 19 406 214 l 463 285 b 246 0 422 203 357 -6 b 163 121 178 8 153 63 b 222 285 175 179 193 231 b 178 429 265 357 189 392 b 53 -39 149 338 -25 19 b 43 -53 49 -43 53 -53 b 163 454 -78 53 144 347 b 163 511 158 469 149 493 b 218 511 178 546 226 540 l 189 449 b 246 376 197 415 222 401 b 269 246 299 328 294 294 l 269 246 "},"":{"ha":469,"x_min":0,"x_max":0,"o":"m 318 446 b 381 471 332 475 360 482 b 351 419 408 451 369 413 b 356 310 342 397 351 358 b 296 43 369 228 353 97 b 129 18 253 -3 181 -18 b 100 63 117 31 107 43 b 118 68 106 63 113 64 b 143 33 119 54 129 40 b 279 143 206 3 261 94 b 313 317 292 176 315 249 b 308 406 313 343 307 376 b 36 47 218 315 -10 122 b 21 39 31 46 31 35 b 317 444 -44 175 238 349 l 317 446 b 318 447 317 446 318 446 l 318 446 "},"":{"ha":496,"x_min":0,"x_max":0,"o":"m 221 682 b 544 761 331 658 439 663 l 558 742 b 201 639 444 631 324 617 b 18 211 128 474 54 301 l 18 211 b 17 208 18 211 18 210 b -17 103 1 172 -7 136 b 49 24 -21 53 -6 24 b 329 201 161 24 258 113 b 372 457 388 290 426 393 b 289 471 347 482 318 486 b 289 482 283 476 289 476 b 397 467 318 506 367 506 b 353 190 456 397 421 285 b 49 -1 279 88 175 10 b -65 74 -6 -1 -46 19 b -54 192 -79 115 -71 156 b 143 653 -24 272 61 468 b 63 678 117 660 90 668 b -369 697 -85 728 -232 800 l -385 717 b 72 722 -237 825 -85 776 b 163 696 103 713 132 704 b 315 1042 235 860 301 1007 l 379 1042 "},"":{"ha":385,"x_min":0,"x_max":0,"o":"m 324 390 b 232 201 294 328 256 264 b 715 -36 96 -172 469 -297 b 731 -50 725 -31 736 -40 b 142 88 494 -308 118 -207 b 18 -1 108 36 68 -4 b -60 157 -60 8 -79 106 b 47 390 -36 240 8 308 l 110 390 b 3 149 76 308 28 231 b 24 22 -17 90 -21 32 b 151 147 75 19 118 81 b 154 157 151 151 153 154 b 256 390 178 235 222 313 l 324 390 "},"":{"ha":678,"x_min":0,"x_max":0,"o":"m 325 390 b 213 154 286 314 242 235 b 265 24 199 110 181 24 b 536 197 372 24 474 110 b 599 418 592 271 624 356 b 499 464 583 458 546 486 b 499 472 499 468 503 468 b 629 417 547 517 610 471 b 561 188 653 350 617 263 b 265 -1 489 86 388 7 b 154 72 213 -1 174 18 b 149 103 151 81 149 92 b 18 4 114 46 71 1 b -58 158 -58 7 -78 106 b 49 390 -35 246 10 314 l 111 390 b 0 154 72 314 24 235 b 18 28 -19 90 -19 32 b 156 164 78 22 122 93 b 261 390 181 249 224 315 l 325 390 "},"":{"ha":357,"x_min":0,"x_max":0,"o":"m 100 -107 b 326 -232 197 -153 279 -203 b 1072 -167 547 -135 836 -100 b 1199 -325 1133 -187 1208 -246 b 943 -442 1178 -428 1022 -442 b 326 -256 685 -442 493 -354 b 244 -565 235 -300 146 -442 b 224 -574 250 -578 235 -583 b 301 -242 121 -451 200 -300 b 92 -126 261 -218 182 -169 b -60 -412 46 -231 -4 -332 b -451 -653 -133 -535 -250 -672 b -661 -496 -569 -643 -637 -578 b -565 -157 -693 -379 -646 -250 b -6 -61 -451 -40 -260 28 l 47 -82 l 76 -11 l 97 40 b 11 -1 71 14 44 -3 b -68 156 -68 4 -87 100 b 40 390 -43 239 1 306 l 103 390 b -10 144 64 311 15 233 b 11 18 -28 86 -28 28 b 147 157 68 15 114 85 b 244 390 179 233 213 311 l 311 390 b 136 -26 254 254 194 111 l 100 -107 m -544 -172 b -637 -490 -629 -260 -669 -381 b -451 -633 -618 -565 -554 -622 b -119 -403 -300 -628 -201 -521 b 39 -101 -61 -315 -10 -211 b -26 -75 18 -92 -4 -83 b -544 -172 -267 1 -444 -68 m 351 -246 b 943 -417 513 -340 699 -422 b 1174 -321 1007 -417 1160 -407 b 1067 -192 1183 -256 1115 -207 b 351 -246 840 -124 567 -157 "},"":{"ha":356,"x_min":0,"x_max":0,"o":"m 103 390 b -7 149 65 313 19 235 b 13 22 -26 89 -31 29 b 158 182 74 17 124 103 b 249 390 218 321 232 356 l 257 390 l 310 390 l 314 390 b 138 -24 253 253 194 114 b 96 -115 124 -56 110 -85 b 242 -351 169 -175 231 -264 b -107 -485 271 -594 26 -594 b -450 -654 -181 -582 -290 -668 l -450 -654 b -661 -494 -567 -642 -635 -579 b -561 -157 -693 -376 -646 -247 b 47 -81 -415 -1 -135 31 b 79 -11 58 -57 67 -35 l 103 44 b 10 -1 74 17 44 -4 b -69 156 -67 6 -90 103 b 38 390 -44 242 0 313 l 103 390 m 86 -136 b -60 -412 42 -236 -7 -333 b -93 -464 -69 -429 -81 -447 b 221 -354 26 -561 244 -575 b 86 -136 210 -274 153 -194 l 86 -136 m -544 -174 b -637 -487 -625 -256 -669 -381 b -447 -631 -617 -564 -554 -622 l -447 -631 b -149 -443 -315 -628 -222 -542 b -156 -433 -150 -437 -153 -436 b -186 -171 -201 -368 -243 -240 b -64 -235 -135 -111 -69 -171 b -87 -236 -67 -246 -86 -250 b -169 -185 -90 -194 -131 -142 b -136 -419 -218 -246 -178 -364 b -135 -422 -136 -422 -135 -422 b -118 -399 -131 -415 -124 -408 b 38 -101 -60 -315 -10 -211 b -544 -174 -135 6 -407 -25 l -544 -174 "},"":{"ha":368,"x_min":0,"x_max":0,"o":"m 101 392 b -7 153 68 313 19 236 b 13 24 -25 90 -26 33 b 160 182 75 22 125 104 b 247 392 218 321 233 356 l 257 392 l 307 392 l 313 392 b 136 -21 254 254 193 118 b 100 -103 125 -47 114 -75 b 379 -311 213 -168 294 -236 b 497 -407 481 -396 488 -403 l 497 -407 l 497 -407 b 1056 -589 653 -532 846 -640 b 1083 -183 1290 -535 1296 -250 b 796 -186 999 -156 896 -161 b 789 -144 801 -161 776 -158 b 1113 -154 897 -114 1014 -114 b 1061 -612 1338 -249 1318 -550 b 464 -412 836 -665 631 -546 b 364 -329 418 -372 390 -350 b 90 -124 281 -256 199 -186 b 79 -151 86 -133 83 -142 b 349 -350 171 -204 260 -276 b 1169 -596 589 -543 833 -743 b 1175 -607 1167 -603 1181 -601 b 339 -358 831 -760 582 -557 b 75 -164 253 -287 164 -215 b -58 -404 33 -250 -11 -336 b -446 -644 -128 -528 -247 -664 l -446 -644 b -653 -487 -561 -636 -631 -571 b -557 -154 -689 -374 -640 -242 b 50 -75 -403 10 -143 22 b 79 -6 58 -53 69 -31 l 101 49 b 10 1 75 19 44 1 b -65 157 -65 10 -86 104 b 38 392 -42 242 1 311 l 101 392 m -540 -168 b -633 -481 -618 -251 -665 -372 b -444 -624 -610 -557 -550 -615 l -444 -624 b -117 -393 -294 -622 -197 -511 b 22 -135 -65 -319 -19 -231 b -143 -82 -32 -110 -86 -89 b -581 -325 -326 -56 -519 -144 b -479 -575 -612 -426 -589 -536 b -483 -589 -485 -581 -476 -587 b -592 -322 -601 -549 -628 -428 b -140 -68 -529 -135 -331 -39 b 28 -124 -82 -78 -26 -97 b 40 -97 33 -114 35 -106 b -540 -168 -143 -4 -393 -12 l -540 -168 "},"":{"ha":368,"x_min":0,"x_max":0,"o":"m 106 -97 b 1242 -83 414 -210 1115 -537 l 1267 -89 b 96 -121 1113 -614 336 -200 b -54 -407 49 -226 0 -324 b -443 -644 -126 -528 -249 -664 b -653 -489 -558 -635 -628 -572 b -647 -318 -667 -435 -667 -378 b -554 -154 -632 -261 -599 -203 b 53 -74 -444 -37 -256 29 b 101 42 56 -65 60 -58 b 21 6 76 18 50 3 b -58 168 -58 15 -78 114 b 50 407 -35 251 11 322 l 114 407 b 0 158 74 322 31 242 b 21 31 -15 99 -19 40 b 132 115 64 28 101 65 b 499 499 168 199 339 661 l 483 485 b 333 421 436 540 382 496 b 106 -97 261 310 199 129 m -535 -168 b -628 -322 -579 -217 -612 -269 b -628 -485 -643 -382 -643 -435 b -443 -625 -608 -556 -543 -615 b -112 -397 -292 -619 -194 -512 b 43 -96 -54 -307 -4 -204 b -535 -168 -149 -21 -387 -12 "},"":{"ha":379,"x_min":0,"x_max":0,"o":"m 114 407 b 0 158 74 322 31 242 b 21 31 -15 99 -19 40 b 132 115 64 28 101 65 b 499 499 168 199 339 661 l 483 485 b 188 99 365 622 207 149 b -54 -404 118 -74 40 -267 b -449 -650 -128 -528 -251 -665 b -621 -562 -528 -640 -586 -611 l -606 -547 b -449 -626 -572 -592 -518 -621 b -114 -394 -296 -626 -197 -512 b 101 42 -32 -274 39 -112 b 21 6 76 18 50 3 b -58 168 -58 15 -78 114 b 50 407 -35 251 11 322 l 114 407 "},"":{"ha":385,"x_min":0,"x_max":0,"o":"m 182 18 b 254 -124 225 -21 246 -72 b -185 -647 294 -364 32 -643 b -389 -528 -268 -647 -343 -618 b -403 -492 -394 -517 -400 -504 l -381 -485 b -365 -525 -378 -499 -372 -512 b 206 -83 -212 -789 247 -367 b 22 36 190 17 122 40 b -71 -7 -11 15 -42 0 b -103 28 -99 -15 -136 0 b -3 57 -90 40 -57 54 b 15 58 3 57 10 57 b 146 164 58 86 103 119 b 276 326 204 222 239 257 b 43 328 207 292 113 301 l 24 285 l 0 285 l 43 378 l 49 388 l 58 382 b 314 400 129 350 256 343 l 335 390 b 160 146 300 306 232 219 b 56 58 129 113 93 86 b 182 18 101 57 146 46 "},"A":{"ha":1039,"x_min":0,"x_max":0,"o":"m 1164 -60 b 708 40 983 -147 842 -35 b 571 1 674 7 626 -6 b 482 56 536 1 486 22 b 507 110 478 75 490 100 b 708 69 561 142 654 104 b 896 506 793 150 843 328 b 915 574 903 526 908 550 b 753 528 863 563 808 546 b 640 496 717 515 678 506 l 615 442 b 182 -1 536 283 417 21 b 40 276 24 -18 -56 140 b 446 408 104 363 235 425 l 446 385 b 58 261 242 403 117 340 b 167 21 -21 147 35 15 b 553 454 356 21 485 306 l 564 478 b 286 506 458 456 361 454 b 211 750 211 563 178 657 l 211 754 b 428 994 183 886 274 1007 l 428 972 b 229 783 304 981 222 896 b 417 885 268 847 343 879 b 588 744 501 892 599 842 b 229 717 571 544 299 574 b 303 521 211 642 242 567 b 576 503 372 474 471 479 b 1207 1044 701 758 853 1026 b 1208 1046 1207 1044 1207 1046 l 1208 1044 b 1214 1046 1210 1044 1211 1046 l 1214 1022 b 989 610 1079 976 1039 801 b 1208 528 1081 619 1161 604 l 1192 515 b 982 586 1147 582 1072 597 l 958 494 b 724 57 900 317 833 144 b 1151 -36 847 -22 988 -117 l 1164 -60 m 747 550 b 922 599 807 568 865 586 b 1153 1015 975 772 1040 939 b 651 521 865 976 756 749 b 747 550 683 529 717 540 m 242 750 b 565 744 286 601 549 567 b 417 865 578 829 485 869 b 242 750 343 858 268 818 m 685 53 b 521 90 647 81 558 118 b 589 25 482 49 557 25 b 685 53 626 24 661 32 "},"B":{"ha":1183,"x_min":0,"x_max":0,"o":"m 428 378 b 50 258 228 396 114 335 b 157 25 -24 147 31 19 b 539 446 340 25 467 303 b 974 975 639 656 746 882 b 919 997 956 985 938 992 b 235 769 693 1060 350 992 b 224 556 201 711 172 611 b 329 522 253 528 296 517 b 471 858 261 661 340 804 b 626 765 551 893 644 878 b 368 506 604 649 476 533 b 411 451 379 489 394 472 l 394 440 b 344 500 374 457 356 478 b 207 539 296 494 242 500 b 213 782 151 604 172 711 b 925 1019 340 1010 688 1086 b 1007 989 953 1011 981 1001 b 1181 1019 1058 1006 1115 1017 l 1181 997 b 1038 972 1128 994 1079 986 b 1161 711 1132 918 1194 833 b 936 517 1140 604 1018 533 b 1074 190 1074 463 1124 318 b 764 4 1029 81 925 -12 b 604 107 699 8 632 49 b 688 433 576 186 588 297 l 704 424 b 626 119 610 290 599 186 b 764 25 649 64 704 32 b 1036 285 908 14 1024 153 b 908 511 1047 378 992 467 b 875 506 896 506 888 506 b 764 522 832 500 788 511 b 742 533 754 528 747 528 b 754 561 738 546 742 556 b 808 561 760 561 782 567 b 908 533 847 556 881 551 b 1081 661 979 551 1047 600 b 1000 960 1150 779 1100 894 b 594 433 782 871 696 644 b 172 4 522 281 406 25 b 36 274 18 -12 -58 140 b 433 401 96 356 224 418 l 428 378 m 356 528 b 604 769 463 551 582 661 b 483 844 621 858 544 864 b 356 528 361 789 285 656 "},"C":{"ha":906,"x_min":0,"x_max":0,"o":"m 538 774 b 476 846 519 803 499 824 b 267 576 385 768 329 678 b 886 790 476 525 747 622 b 897 988 926 846 960 938 b 706 999 857 1019 774 1026 b 493 857 639 971 554 915 b 558 785 513 840 538 815 l 538 774 m 438 875 b 210 922 371 924 288 938 b 86 650 83 901 -46 763 b 204 589 121 622 168 604 b 438 875 267 693 346 796 m 453 892 b 656 1019 519 949 588 993 b 915 1004 733 1049 842 1065 b 904 774 989 943 953 840 b 257 553 757 599 469 497 b 204 193 199 446 161 307 b 729 244 318 -60 663 -15 b 538 324 774 418 629 418 b 464 138 499 278 453 197 l 443 133 b 519 333 431 204 476 283 b 785 239 629 453 836 436 b 149 182 713 -37 263 -87 b 199 569 92 313 139 453 b 71 632 154 582 103 604 b 194 943 -71 757 39 911 b 453 892 285 963 382 946 "},"D":{"ha":1221,"x_min":0,"x_max":0,"o":"m 432 374 b 56 254 232 393 111 332 b 163 21 -21 143 33 15 b 536 442 344 21 472 299 b 978 974 638 653 750 881 b 926 994 960 983 942 990 b 232 768 697 1057 354 989 b 229 551 201 707 178 608 b 333 519 257 525 294 514 b 476 856 263 658 344 801 b 626 763 556 890 649 874 b 365 501 610 646 482 531 b 410 447 383 486 394 469 l 399 436 b 344 497 378 453 361 475 b 211 535 299 492 244 497 b 217 779 157 601 178 707 b 931 1017 339 1006 693 1083 b 1008 986 958 1007 985 999 b 1179 1017 1060 1003 1115 1014 l 1185 994 b 1035 968 1129 992 1079 982 b 1174 408 1213 847 1229 603 b 753 -6 1118 226 986 -6 b 588 154 656 -6 588 61 b 1035 542 588 365 821 597 l 1031 519 b 610 154 831 575 610 353 b 753 15 610 71 669 15 b 1113 414 935 21 1064 242 b 1011 960 1167 607 1168 836 b 597 431 786 874 697 643 b 178 0 522 276 410 21 b 40 269 24 -17 -54 136 b 432 399 100 353 229 414 l 432 374 m 354 525 b 604 768 467 547 588 658 b 482 840 621 856 549 861 b 354 525 361 786 290 653 "},"E":{"ha":756,"x_min":0,"x_max":0,"o":"m 381 735 b 801 807 514 683 700 701 b 785 997 869 868 869 964 b 510 926 696 1032 576 982 b 571 825 529 900 558 847 l 549 813 b 493 908 540 831 510 894 b 381 735 436 858 397 797 m 464 942 b 206 964 358 1053 229 1015 b 353 744 174 896 229 797 b 464 942 368 818 408 892 m 482 958 b 761 1032 561 1021 667 1053 b 819 790 890 997 903 874 b 374 711 713 679 521 663 b 397 599 374 674 381 633 b 504 599 431 606 471 611 b 499 522 549 579 543 528 b 388 579 453 515 408 543 l 381 579 b 113 379 257 550 174 493 b 246 35 39 229 83 63 b 601 188 369 13 542 64 b 588 365 628 242 629 314 b 363 358 526 426 425 404 b 224 128 297 303 240 219 l 203 133 b 353 375 224 224 274 319 b 643 375 425 436 576 460 b 633 181 692 319 672 243 b 246 0 551 54 390 -14 b 15 314 83 15 -29 139 b 374 593 60 482 211 567 b 353 724 353 633 347 679 b 183 971 206 779 150 896 b 482 958 224 1049 368 1072 "},"F":{"ha":807,"x_min":0,"x_max":0,"o":"m 482 494 b 613 556 508 536 557 550 b 935 965 693 714 785 871 b 460 990 781 1011 629 1061 b 240 793 367 950 286 881 b 228 568 206 731 176 628 b 339 535 257 540 304 529 b 489 885 269 679 351 828 b 649 788 569 921 667 904 b 379 517 626 667 494 546 b 424 460 390 500 408 483 l 408 449 b 356 511 385 465 367 489 b 213 551 304 506 247 511 b 218 806 154 621 176 731 b 460 1013 269 897 356 967 b 1518 1047 853 1181 1207 818 l 1531 1029 b 972 954 1318 875 1143 906 b 683 558 836 865 758 714 l 707 558 b 788 564 735 558 764 558 b 793 568 788 564 788 568 b 886 679 806 615 824 685 b 919 593 925 674 938 628 b 806 540 897 558 857 546 b 735 438 793 500 776 460 l 725 454 b 782 535 754 471 771 506 l 707 535 l 672 535 l 626 442 b 189 -7 546 282 431 15 b 44 275 28 -24 -54 136 b 453 408 108 361 240 425 l 453 383 b 63 258 247 403 119 339 b 171 15 -19 143 38 10 b 563 454 361 15 494 304 l 600 529 b 506 483 557 524 521 511 l 482 494 m 367 540 b 626 793 476 564 603 679 b 500 869 638 885 563 890 b 367 540 367 813 292 674 "},"G":{"ha":874,"x_min":0,"x_max":0,"o":"m 406 283 b 790 510 547 271 708 421 b 856 588 811 536 832 563 l 878 560 b 671 168 792 444 735 306 b 233 -282 590 7 468 -258 b 88 0 72 -293 -8 -132 b 497 133 147 86 283 157 l 497 110 b 107 -11 290 133 164 71 b 211 -258 25 -125 83 -258 b 607 179 406 -258 539 29 b 731 418 646 260 685 342 b 401 260 643 340 524 260 b 221 553 246 260 169 397 b 88 617 176 565 124 588 b 118 899 -14 704 1 836 b 475 889 226 963 371 963 b 947 997 579 981 814 1101 b 936 761 1022 935 989 831 b 278 536 785 582 503 479 b 406 283 239 426 278 296 m 567 761 b 493 842 550 790 515 818 b 283 560 406 772 325 651 b 918 778 497 507 775 606 b 931 981 965 836 994 929 b 510 854 814 1067 601 929 b 585 772 539 836 567 803 l 567 761 m 451 869 b 135 882 360 940 239 935 b 100 635 38 836 14 708 b 226 572 135 606 182 588 b 451 869 274 686 360 797 "},"H":{"ha":1064,"x_min":0,"x_max":0,"o":"m 442 378 b 57 260 238 400 113 339 b 164 17 -21 147 35 17 b 515 372 322 21 442 225 b 561 472 532 406 547 439 b 294 503 458 451 364 450 b 221 746 215 561 181 649 b 272 938 199 815 224 890 b 429 988 311 972 361 988 l 429 965 b 289 922 368 965 322 950 b 238 774 250 881 229 826 b 419 882 278 838 344 875 b 593 733 503 888 600 838 b 233 711 571 542 306 564 b 311 519 215 633 243 564 b 571 496 379 474 471 476 b 617 626 588 538 603 581 b 674 779 633 676 650 733 b 854 978 706 860 764 926 b 867 960 861 972 861 965 b 690 689 753 888 725 796 b 633 511 672 628 654 569 b 747 542 671 519 708 531 b 976 599 828 565 906 589 b 1193 1006 1028 767 1089 925 b 1410 1011 1261 1050 1340 1068 b 1476 842 1465 972 1482 904 b 1296 604 1465 763 1410 676 l 1278 626 b 1454 846 1392 696 1442 774 b 1396 994 1460 904 1442 960 b 1210 983 1340 1040 1261 1029 b 1039 603 1117 914 1082 763 b 1206 519 1108 601 1167 579 l 1188 508 b 1032 581 1153 561 1099 579 l 1007 492 b 781 61 954 315 889 147 b 1200 -40 907 -11 1043 -114 l 1210 -57 b 764 44 1044 -142 892 -39 b 628 0 725 17 682 0 b 542 82 588 0 533 31 b 646 126 557 132 615 133 b 757 74 685 118 725 94 b 946 497 842 151 894 321 b 969 576 953 524 961 550 b 753 525 903 567 828 546 b 625 488 710 513 668 499 b 543 300 603 425 576 363 b 181 -7 465 157 379 11 b 40 271 22 -17 -56 142 b 442 400 101 356 233 424 l 442 378 m 243 740 b 571 740 289 599 556 564 b 419 860 578 824 493 865 b 243 740 344 853 272 814 m 742 61 b 624 103 697 85 665 97 b 622 28 546 110 557 35 b 742 61 667 24 706 33 "},"I":{"ha":657,"x_min":0,"x_max":0,"o":"m 426 444 b 376 510 404 467 389 489 b 244 547 328 499 279 510 b 244 783 185 614 211 718 b 953 1019 371 1015 724 1086 b 1014 1004 975 1015 997 1008 l 1014 1003 b 1046 1008 1022 1007 1033 1008 b 1107 982 1081 1008 1107 997 b 1014 971 1107 939 1036 954 b 1013 972 1013 971 1013 972 b 590 439 779 892 692 660 b 175 10 519 285 404 32 b 38 279 19 0 -57 154 b 433 404 97 361 224 428 l 426 383 b 58 268 229 404 114 346 b 158 32 -24 160 32 32 b 536 450 339 38 465 313 b 983 988 638 665 753 896 b 949 997 971 992 961 993 b 267 772 724 1064 389 992 b 261 560 233 714 207 619 b 365 525 283 532 328 525 b 508 867 296 663 376 811 b 657 767 586 894 675 878 b 399 510 635 651 514 542 b 443 458 411 493 426 476 l 426 444 m 389 532 b 635 772 492 554 618 663 b 514 844 653 860 575 867 b 389 532 393 794 317 658 "},"J":{"ha":825,"x_min":0,"x_max":0,"o":"m 1211 1000 b 1274 972 1246 1000 1274 988 b 1178 960 1274 926 1200 943 l 1172 963 b 779 483 964 881 872 679 b 569 63 711 340 638 206 b 183 -285 496 -92 376 -262 b 40 -7 24 -296 -57 -136 b 449 124 103 78 233 147 l 444 101 b 63 -18 239 124 121 63 b 164 -262 -22 -131 33 -262 b 501 56 314 -256 421 -85 b 718 489 575 199 649 346 b 1149 976 817 688 933 892 b 1108 988 1136 982 1122 985 b 404 756 876 1057 529 983 b 399 535 371 693 342 596 b 507 499 421 506 467 499 b 649 853 433 642 518 794 b 807 750 735 882 826 864 b 540 483 785 629 654 517 b 585 431 551 467 569 449 l 569 415 b 518 483 546 438 529 461 b 381 522 467 471 414 483 b 381 767 319 592 349 699 b 1115 1011 511 1007 876 1081 b 1178 994 1136 1007 1156 1000 l 1178 993 b 1211 1000 1186 997 1197 1000 m 529 506 b 785 756 638 529 769 642 b 660 829 803 846 722 853 b 529 506 535 778 456 636 "},"K":{"ha":983,"x_min":0,"x_max":0,"o":"m 435 432 b 383 497 413 454 396 476 b 244 536 333 486 278 497 b 251 775 189 604 211 710 b 968 1014 379 1010 729 1082 b 1031 999 990 1010 1008 1004 b 1029 996 1029 997 1029 997 b 1063 1004 1038 1001 1049 1004 b 1124 976 1096 1004 1124 992 b 1031 964 1124 932 1053 947 b 1028 965 1029 964 1029 965 b 601 425 793 885 706 649 b 178 -10 524 269 413 13 b 39 264 21 -19 -56 138 b 435 392 100 347 228 414 l 435 369 b 57 253 233 392 111 331 b 163 13 -22 142 35 13 b 540 436 346 18 472 297 b 996 982 644 654 758 889 b 963 992 986 986 975 988 b 274 764 736 1060 389 986 b 261 549 239 704 211 608 b 367 514 289 519 333 514 b 511 858 301 653 379 803 b 668 758 596 888 685 871 b 406 497 646 642 518 531 b 450 446 418 481 435 464 l 435 432 m 863 325 b 824 231 846 292 835 264 b 1031 -121 751 8 868 -121 b 1017 -149 1024 -131 1024 -137 b 774 258 828 -149 674 8 b 819 358 785 297 801 325 b 757 525 850 425 774 469 b 757 592 744 536 740 564 b 807 586 768 625 807 604 b 789 535 811 572 804 551 b 1074 758 935 522 1006 646 b 1353 899 1136 865 1213 1004 l 1340 876 b 1118 744 1225 969 1179 839 b 786 507 1050 611 971 489 b 840 454 799 485 818 472 b 863 325 890 410 885 374 m 396 519 b 646 764 501 542 624 653 b 524 838 663 853 583 858 b 396 519 400 786 324 647 "},"L":{"ha":547,"x_min":0,"x_max":0,"o":"m 789 -96 b 214 29 510 -297 392 -60 b 76 -10 174 1 128 -17 b 13 96 29 -3 -26 46 b 207 58 61 146 160 96 b 401 488 299 138 351 310 b 654 1001 460 693 522 904 b 871 1007 717 1046 797 1064 b 935 835 921 968 946 899 b 751 596 921 756 867 669 l 739 618 b 911 840 847 688 899 767 b 853 990 917 899 899 956 b 665 978 797 1036 724 1025 b 460 482 556 893 522 681 b 229 47 407 304 339 133 b 776 -81 339 -10 582 -240 l 789 -96 "},"M":{"ha":1317,"x_min":0,"x_max":0,"o":"m 1499 996 b 1457 976 1483 993 1468 988 b 1257 496 1347 889 1315 690 b 1029 54 1208 322 1138 140 b 1439 -43 1176 -32 1300 -114 l 1451 -58 b 1014 43 1283 -140 1136 -40 b 885 0 976 10 932 -4 b 803 60 847 6 808 22 b 838 110 803 88 818 101 b 958 97 876 124 924 113 b 1014 71 976 90 994 81 b 1197 501 1094 146 1150 328 b 1425 981 1254 692 1315 889 b 965 440 1179 910 1068 667 b 563 17 858 222 769 22 l 554 10 l 546 26 l 554 35 l 554 36 b 1036 965 772 279 718 703 l 1028 969 b 560 432 781 894 668 653 b 200 4 464 231 372 49 b 26 58 118 -11 60 17 b 44 269 -15 126 -6 208 b 432 399 103 350 226 419 l 432 378 b 60 258 232 393 113 333 b 44 75 22 201 7 131 b 194 26 71 36 124 17 b 539 440 357 64 447 247 b 996 982 643 658 757 893 l 999 988 b 961 1003 988 994 975 999 b 275 775 733 1063 394 997 b 269 561 243 717 215 619 b 372 528 292 533 333 528 b 513 868 301 663 383 814 b 664 771 593 900 685 879 b 410 511 647 653 518 539 b 453 458 421 496 438 479 l 438 440 b 383 506 415 464 399 485 b 253 549 339 501 286 511 b 253 788 194 614 221 717 b 965 1024 378 1013 728 1089 b 1022 1003 985 1017 1001 1013 b 1051 1011 1031 1007 1040 1010 b 1111 985 1082 1014 1110 1004 b 1064 956 1113 957 1088 951 b 588 38 810 740 886 313 b 943 453 760 60 846 250 b 1474 1014 1058 699 1179 964 l 1500 1018 l 1499 996 m 394 533 b 642 775 501 554 626 663 b 522 847 658 861 583 874 b 394 533 399 797 329 658 m 992 54 b 917 92 964 71 943 81 b 825 60 878 106 822 97 b 935 29 839 21 901 21 b 992 54 956 33 974 43 "},"N":{"ha":1032,"x_min":0,"x_max":0,"o":"m 1501 993 b 961 435 1204 954 1075 685 b 561 0 861 218 761 8 l 538 10 b 1035 963 769 253 715 694 b 1031 964 1033 963 1032 964 b 557 425 776 888 664 644 b 193 -3 458 225 372 40 b 26 51 113 -19 58 8 b 36 263 -18 115 -10 200 b 432 392 96 343 226 414 l 432 371 b 53 251 232 388 113 326 b 42 67 17 196 6 121 b 193 18 69 29 118 8 b 540 435 356 57 443 240 b 1001 981 644 657 760 893 b 956 997 986 989 972 993 b 275 769 735 1057 394 993 b 264 554 243 711 215 614 b 372 522 292 528 333 522 b 513 863 301 657 383 808 b 664 765 589 894 681 874 b 406 506 642 646 518 533 b 447 451 415 489 432 472 l 432 435 b 383 500 410 457 394 478 b 247 543 333 494 281 506 b 253 781 193 608 215 711 b 961 1019 378 1008 729 1083 b 1021 997 983 1014 1008 1004 b 1113 982 1046 1018 1111 1011 b 1063 953 1114 951 1088 949 b 588 24 804 736 879 299 b 939 446 760 47 849 244 b 1501 1014 1058 700 1189 976 l 1501 993 m 394 528 b 642 769 501 549 621 657 b 524 842 658 857 583 868 b 394 528 400 792 324 651 "},"O":{"ha":797,"x_min":0,"x_max":0,"o":"m 876 824 b 622 1013 842 943 739 1011 b 254 783 482 1007 347 914 b 128 126 124 607 8 338 b 365 46 182 36 268 3 b 533 881 193 258 276 764 b 664 899 571 897 617 913 b 697 369 843 843 763 501 b 411 36 618 196 513 85 b 639 -22 468 -14 538 -33 l 643 -44 b 386 21 531 -62 443 -35 b 57 118 267 -26 129 -1 b 617 1036 -132 449 236 1035 b 901 829 753 1035 865 958 l 876 824 m 394 56 b 672 382 490 103 597 210 b 656 846 726 497 801 826 b 583 838 632 853 607 849 b 394 56 317 746 211 263 l 394 56 "},"P":{"ha":667,"x_min":0,"x_max":0,"o":"m 421 374 b 43 257 221 394 100 335 b 150 18 -32 144 24 18 b 526 439 332 18 460 294 b 963 975 631 649 738 879 b 915 993 947 982 932 989 b 221 765 686 1058 343 989 b 215 550 193 706 165 613 b 321 517 243 522 283 517 b 465 861 249 656 332 806 b 615 765 543 889 638 872 b 360 507 597 643 471 533 b 404 451 372 485 382 468 l 388 433 b 332 501 365 457 349 479 b 200 539 290 489 233 501 b 206 776 144 606 165 711 b 921 1017 326 1011 682 1083 b 999 989 947 1010 974 1000 b 1171 1021 1050 1007 1107 1018 l 1175 1000 b 1028 975 1121 997 1072 989 b 1158 706 1124 922 1188 833 b 968 529 1135 617 1049 556 b 674 547 885 499 746 519 l 679 564 b 1097 714 856 500 1035 528 b 990 960 1125 813 1075 908 b 586 426 774 869 689 643 b 165 -3 511 274 400 18 b 28 267 11 -15 -67 140 b 421 394 89 350 215 417 l 421 374 m 343 522 b 597 765 456 544 578 656 b 476 839 610 856 539 867 b 343 522 349 789 278 650 "},"Q":{"ha":811,"x_min":0,"x_max":0,"o":"m 872 826 b 615 1007 839 950 736 1011 b 256 778 476 1006 349 908 b 153 126 133 601 28 326 b 386 49 210 38 294 7 b 532 882 206 256 283 761 b 658 900 572 897 617 908 b 708 378 842 850 769 510 b 435 36 635 206 533 92 l 431 35 b 563 -61 471 -4 524 -40 b 679 -85 614 -17 708 -17 b 563 -82 653 -112 599 -99 b 7 -46 364 -181 163 -268 l 26 -26 b 542 -71 132 -183 399 -132 b 507 -53 528 -67 518 -60 b 411 26 472 -31 438 -1 l 410 25 b 81 110 294 -28 153 -7 b 615 1038 -118 439 239 1029 b 901 838 747 1040 861 967 l 872 826 m 411 61 b 681 386 511 110 607 218 b 651 849 731 504 796 835 b 581 840 633 849 610 850 b 411 61 326 742 225 256 "},"R":{"ha":1000,"x_min":0,"x_max":0,"o":"m 861 333 b 824 239 846 299 833 269 b 1028 -118 751 15 874 -118 b 1017 -137 1022 -124 1022 -126 b 774 267 829 -137 678 15 b 818 365 783 299 801 333 b 756 532 850 432 774 476 b 756 597 751 542 742 569 b 807 592 767 625 807 608 b 782 535 811 574 803 551 b 935 536 836 519 885 519 b 1094 664 1000 560 1061 603 b 1004 963 1160 781 1107 900 b 601 432 789 872 704 644 b 188 0 529 276 415 22 b 42 269 31 -11 -46 144 b 442 397 103 353 231 421 l 442 376 b 67 258 242 397 119 335 b 164 22 -15 150 42 22 b 544 442 350 22 482 299 b 978 976 646 651 756 881 b 926 996 961 985 944 990 b 242 768 701 1063 364 992 b 236 553 210 710 181 614 b 342 519 258 525 303 519 b 482 864 268 658 353 807 b 635 768 563 890 651 875 b 375 508 613 646 486 536 b 419 453 385 489 403 469 l 403 436 b 353 504 379 460 364 482 b 219 542 303 492 253 504 b 219 779 158 608 188 714 b 935 1019 350 1013 701 1085 b 1014 992 963 1013 989 1003 b 1188 1024 1065 1010 1124 1021 l 1188 1003 b 1042 978 1133 1000 1085 992 b 1172 710 1140 925 1206 836 b 989 532 1149 619 1067 560 b 785 515 925 510 854 493 b 839 460 799 492 821 478 b 861 333 890 415 883 381 m 364 525 b 613 768 468 549 597 658 b 490 842 629 858 553 869 b 364 525 369 792 293 653 "},"S":{"ha":719,"x_min":0,"x_max":0,"o":"m 940 768 b 872 849 922 796 893 825 l 872 849 l 872 849 l 856 863 b 675 576 775 781 726 678 b 1283 792 893 538 1132 611 b 1204 1022 1368 893 1335 1011 b 867 876 1088 1033 940 949 b 957 776 894 858 940 807 l 940 768 m 826 882 b 588 919 758 929 668 940 b 483 650 465 890 361 757 b 607 586 518 622 563 599 b 618 586 613 586 613 586 b 826 882 675 696 738 803 m 1301 774 b 663 554 1147 586 893 508 b 613 442 647 514 631 481 b 183 1 535 285 421 24 b 43 276 26 -10 -54 149 b 450 407 106 361 233 429 l 443 385 b 60 265 242 407 117 343 b 168 24 -21 153 38 24 b 550 453 353 24 483 306 b 607 565 572 494 590 526 l 603 565 b 472 633 557 582 506 599 b 581 943 326 757 436 900 b 844 899 669 967 767 954 l 844 899 b 1200 1040 917 967 1058 1050 b 1301 774 1353 1029 1401 899 "},"T":{"ha":708,"x_min":0,"x_max":0,"o":"m 406 446 b 350 514 383 469 368 493 b 217 554 306 501 249 514 b 222 796 158 621 181 729 b 451 1000 271 886 357 960 b 1494 1033 843 1163 1185 815 l 1506 1017 b 957 946 1296 868 1122 899 b 621 440 786 838 708 633 b 192 1 542 285 431 24 b 51 276 36 -10 -44 149 b 451 407 114 361 242 429 l 451 385 b 69 265 249 407 125 343 b 175 24 -10 153 47 24 b 558 451 363 24 490 306 b 926 956 651 640 746 843 b 457 976 774 1000 625 1050 b 236 785 368 938 289 871 b 232 565 210 724 181 628 b 338 531 260 536 301 531 b 486 882 265 672 350 825 b 638 785 564 910 660 893 b 379 519 621 660 490 549 b 424 464 390 499 401 481 l 406 446 m 363 536 b 621 785 475 561 599 672 b 497 858 632 875 558 886 b 363 536 368 808 294 667 "},"U":{"ha":982,"x_min":0,"x_max":0,"o":"m 946 567 b 771 153 876 411 788 208 b 790 22 751 90 751 35 b 982 285 886 17 949 211 l 1003 285 b 790 1 971 200 903 -6 b 713 157 713 11 689 107 l 742 232 b 571 38 699 157 646 85 b 353 157 435 -40 313 35 b 553 631 374 231 493 500 b 611 900 593 715 619 810 b 464 1019 593 978 542 1019 b 64 776 313 1019 131 907 b 106 529 25 704 -10 557 b 161 522 121 522 142 522 b 219 815 110 629 143 742 b 435 868 274 865 368 914 b 421 676 492 828 458 731 b 199 507 369 599 283 532 b 246 456 208 490 228 474 l 228 438 b 176 507 204 463 190 486 b 99 507 149 500 121 500 b 43 788 -32 540 -3 704 b 464 1040 117 929 306 1040 b 668 900 553 1040 657 992 b 611 619 682 800 649 708 b 414 153 549 486 431 219 b 553 61 379 61 460 11 b 742 281 638 107 693 201 b 838 457 774 336 807 399 b 1313 1028 1029 867 1135 1064 b 1410 840 1401 1006 1418 911 b 1229 603 1396 760 1342 675 l 1213 619 b 1385 843 1325 693 1374 771 b 1296 1003 1386 903 1375 994 b 946 567 1140 1003 1003 694 m 190 529 b 399 683 267 546 350 611 b 417 851 429 728 465 818 b 235 799 364 886 276 836 b 190 529 163 732 135 626 m 743 233 b 742 232 742 233 743 232 l 743 233 "},"V":{"ha":807,"x_min":0,"x_max":0,"o":"m 1315 1010 b 735 442 1006 971 863 694 b 294 0 614 210 510 0 l 283 17 b 807 992 521 267 467 724 b 808 996 807 993 808 994 b 763 1010 794 1001 778 1006 b 68 778 538 1076 189 1004 b 57 563 35 718 7 624 b 167 529 85 529 129 524 b 311 872 96 668 179 817 b 465 778 393 904 488 888 b 201 513 443 657 317 540 b 250 458 217 496 228 475 l 233 442 b 179 508 211 464 194 486 b 40 546 129 503 74 508 b 46 789 -15 613 7 722 b 775 1031 174 1026 532 1097 b 829 1015 790 1026 813 1021 l 829 1013 b 868 1021 839 1017 853 1021 b 929 993 896 1026 929 1010 b 835 982 929 949 851 965 b 831 983 833 982 832 983 b 328 24 561 763 635 307 b 714 453 504 46 604 239 b 1315 1031 846 713 994 993 l 1315 1010 m 189 536 b 443 778 300 557 426 668 b 322 850 460 872 383 876 b 189 536 194 800 118 663 "},"W":{"ha":1214,"x_min":0,"x_max":0,"o":"m 1178 972 b 682 28 908 756 982 308 b 1135 472 899 46 1014 253 b 1717 1017 1269 717 1410 978 l 1721 993 b 1156 461 1428 956 1286 700 b 642 0 1026 228 886 4 l 635 15 b 1110 942 858 249 819 675 b 708 433 918 843 811 629 b 275 -1 590 206 488 -1 l 264 15 b 783 981 500 263 446 717 b 700 1003 756 988 729 996 b 51 765 478 1051 164 976 b 40 553 18 706 -8 611 b 149 521 68 521 111 515 b 290 858 79 657 160 803 b 444 765 372 890 465 874 b 182 504 422 646 296 532 b 225 450 197 488 208 467 l 214 433 b 160 499 192 457 176 478 b 24 538 111 493 58 499 b 29 776 -31 603 -8 711 b 742 1017 156 1010 510 1081 b 800 999 765 1010 785 1004 b 838 1007 810 1003 822 1007 b 897 981 865 1013 897 996 b 807 969 897 935 822 951 l 806 969 b 308 24 538 751 613 301 b 689 444 482 43 579 233 b 1160 985 803 664 922 899 l 1178 972 m 171 526 b 422 765 281 547 404 657 b 303 838 439 858 361 863 b 171 526 176 789 101 651 "},"X":{"ha":965,"x_min":0,"x_max":0,"o":"m 1074 -31 b 842 -162 1050 -117 947 -185 b 607 410 606 -111 604 160 b 232 7 533 251 410 26 b 50 186 111 -1 38 85 l 75 188 b 210 29 61 103 117 29 b 596 456 394 29 528 310 l 608 483 l 608 567 b 401 915 592 725 568 886 b 46 668 247 942 96 819 b 40 493 28 611 26 554 b 217 401 51 431 131 361 b 167 688 117 492 125 603 b 410 740 194 774 378 908 b 251 403 432 617 349 471 b 313 365 269 385 292 376 l 303 344 b 232 392 279 360 250 372 b 19 483 125 340 51 386 b 22 669 -1 547 6 608 b 342 968 61 807 207 944 b 635 792 458 989 574 936 b 675 615 656 740 668 681 b 1246 1042 790 832 943 1029 l 1246 1019 b 679 560 933 1006 793 790 b 768 -60 692 339 664 78 b 900 -131 800 -103 850 -128 b 1051 -29 967 -136 1033 -94 l 1074 -31 m 185 678 b 235 414 150 599 146 494 b 388 732 328 476 404 617 b 185 678 356 874 214 754 "},"Y":{"ha":967,"x_min":0,"x_max":0,"o":"m 571 99 b 185 -21 367 121 242 60 b 293 -265 106 -135 163 -265 b 622 54 435 -265 549 -94 b 778 353 674 153 726 251 b 692 282 751 325 724 300 b 469 407 560 201 429 276 b 560 606 492 475 497 475 b 617 879 600 690 629 788 b 469 999 606 958 549 999 b 65 754 315 999 133 885 b 106 504 25 681 -10 532 b 167 497 126 497 144 497 b 310 844 93 640 179 793 b 469 747 394 879 486 863 b 201 481 439 631 321 511 b 247 429 213 464 231 446 l 231 413 b 179 481 207 435 190 458 b 99 481 150 475 126 475 b 42 765 -32 514 -4 681 b 469 1021 122 903 310 1021 b 681 879 560 1021 663 969 b 617 594 692 776 663 686 b 532 394 556 458 556 464 b 674 310 497 304 578 253 b 861 521 753 351 813 438 b 1289 982 956 714 1074 907 b 1294 953 1294 969 1294 964 b 903 481 1090 879 999 681 b 697 60 839 338 765 196 b 310 -287 622 -94 504 -271 b 167 -10 150 -300 71 -140 b 571 121 231 76 361 144 l 571 99 m 190 504 b 446 754 304 528 424 644 b 321 828 464 844 383 851 b 190 504 196 776 117 635 "},"Z":{"ha":878,"x_min":0,"x_max":0,"o":"m 538 514 b 967 989 633 713 756 907 b 932 1001 956 994 944 997 b 207 764 694 1065 335 996 b 200 538 176 700 147 600 b 311 501 229 508 269 496 b 463 856 236 647 322 804 b 618 757 543 892 642 874 b 351 485 600 636 468 514 b 397 426 363 468 374 450 l 379 415 b 322 479 357 439 340 463 b 183 519 275 474 218 485 b 189 775 125 589 147 700 b 938 1025 322 1014 688 1094 b 994 1001 954 1019 976 1014 b 1036 1014 1006 1007 1019 1010 b 1093 983 1064 1014 1093 1001 b 1001 972 1100 932 1025 954 b 999 974 1000 972 999 974 b 600 514 793 901 696 708 b 781 218 757 507 826 371 b 632 -26 760 147 696 36 b 43 -244 417 -257 164 -336 b 61 4 -32 -179 4 -61 b 658 247 194 171 444 269 l 653 224 b 78 -8 450 242 207 147 b 32 -172 43 -53 10 -118 b 593 10 121 -386 515 -85 b 589 485 699 119 842 438 l 589 485 b 456 457 574 442 489 418 b 538 514 435 501 496 515 m 335 508 b 600 764 450 532 578 647 b 474 839 613 856 538 863 b 335 508 340 788 264 642 "},"":{"ha":943,"x_min":0,"x_max":0,"o":"m 967 285 b 513 101 908 124 711 101 b 28 -106 297 101 75 122 l 4 -99 b 521 144 61 144 294 144 b 943 285 708 144 883 142 l 967 285 "},"":{"ha":1007,"x_min":0,"x_max":0,"o":"m 0 285 b 406 326 74 453 231 396 b 981 392 603 247 829 158 l 997 381 b 411 285 836 133 615 204 b 24 285 244 351 88 433 l 0 285 "},"ﬀ":{"ha":550,"x_min":0,"x_max":0,"o":"m 440 751 b 290 682 394 808 339 760 b 113 306 264 639 138 371 b 179 325 144 310 168 311 b 104 281 172 296 143 286 b 28 93 63 194 36 111 b -211 -407 -43 -79 -121 -267 b -599 -644 -282 -525 -401 -661 b -804 -487 -714 -635 -782 -571 b -801 -317 -821 -437 -821 -376 b -710 -156 -787 -258 -754 -203 b -156 -54 -600 -39 -411 31 b -160 -75 -156 -60 -158 -69 b -694 -169 -407 6 -589 -58 b -782 -324 -736 -215 -767 -269 b -785 -481 -797 -379 -797 -433 b -599 -621 -761 -556 -701 -614 b -271 -394 -447 -619 -347 -510 b -29 100 -179 -256 -101 -69 b 46 281 -22 122 6 199 b -81 271 -8 281 -64 286 b 58 306 -72 306 -7 306 b 300 757 122 446 206 667 b 458 765 350 804 406 819 l 440 751 m -385 -610 b -324 -621 -367 -615 -346 -619 b 4 -394 -172 -619 -72 -510 b 246 100 96 -256 174 -69 b 321 281 253 122 281 199 b 194 271 267 281 211 286 b 333 306 203 306 268 306 b 575 757 397 446 481 667 b 733 765 625 804 681 819 l 715 751 b 565 682 669 808 614 760 b 388 306 539 639 413 371 b 454 325 419 310 443 311 b 379 281 447 296 418 286 b 303 93 338 194 311 111 b 64 -407 232 -79 154 -267 b -324 -644 -7 -525 -126 -661 b -404 -626 -354 -642 -381 -636 l -385 -610 "},"@":{"ha":1292,"x_min":0,"x_max":0,"o":"m 947 -3 b 989 13 947 -3 963 0 b 1065 65 1017 25 1042 43 b 1168 215 1110 108 1144 158 b 1206 403 1194 275 1206 338 b 1074 719 1206 535 1161 640 b 722 838 985 799 868 838 b 501 799 643 838 569 825 b 317 686 433 775 371 735 b 178 482 256 629 210 560 b 131 224 146 404 131 318 b 168 19 131 144 144 76 b 288 -136 194 -37 233 -90 b 469 -242 342 -182 401 -218 b 686 -278 538 -265 610 -278 b 911 -242 765 -278 840 -265 b 1110 -136 983 -218 1049 -182 l 1126 -156 b 917 -268 1061 -206 993 -244 b 686 -306 843 -294 768 -306 b 454 -275 601 -306 525 -296 b 271 -179 386 -254 325 -222 b 115 4 203 -128 150 -68 b 64 246 81 76 64 157 b 121 503 64 339 83 424 b 290 715 160 582 217 653 b 488 826 350 764 417 803 b 717 865 560 853 638 865 b 1092 738 874 865 999 822 b 1232 401 1185 654 1232 542 b 1192 200 1232 331 1218 265 b 1082 42 1165 138 1131 85 b 997 -15 1054 18 1026 -3 b 953 -31 983 -22 968 -26 b 749 156 828 -40 753 85 b 468 6 679 49 578 -10 b 325 186 378 21 325 97 b 571 567 329 321 433 499 b 789 582 638 604 735 603 b 888 515 824 567 856 547 l 913 572 l 1004 572 b 844 218 951 457 882 344 b 893 17 825 151 847 57 b 947 -3 907 4 925 -3 m 871 483 b 779 550 840 515 810 538 b 640 538 732 567 685 557 b 414 182 515 476 428 321 b 481 46 406 118 432 65 b 764 244 604 -4 717 149 b 871 483 793 329 831 404 "},"!":{"ha":614,"x_min":0,"x_max":0,"o":"m 135 172 l 85 172 l 428 1043 l 551 1043 m 71 103 b 122 57 97 103 122 83 b 71 7 122 31 97 7 b 21 57 39 7 21 31 b 71 103 21 83 39 103 "},"#":{"ha":1067,"x_min":0,"x_max":0,"o":"m 610 261 l 343 261 l 203 0 l 151 0 l 269 261 l 63 261 l 63 299 l 286 299 l 385 517 l 144 517 l 144 554 l 401 554 l 521 815 l 642 815 l 500 554 l 768 554 l 910 815 l 960 815 l 839 554 l 1004 554 l 1004 517 l 822 517 l 722 299 l 922 299 l 922 261 l 704 261 l 585 0 l 469 0 m 631 299 l 749 517 l 481 517 l 363 299 "},"$":{"ha":719,"x_min":0,"x_max":0,"o":"m 590 543 b 558 693 611 606 594 657 l 438 432 b 572 225 506 369 572 310 b 238 -3 563 63 388 -31 l 146 -201 l 96 -201 l 182 15 b 153 29 172 19 163 24 b 32 200 96 67 46 125 b 203 436 13 308 71 422 l 203 411 b 204 72 24 360 79 161 l 342 417 b 229 607 285 471 233 538 b 486 776 217 761 367 814 l 554 944 l 674 944 l 575 729 b 624 538 626 683 650 614 l 590 543 m 432 60 b 503 243 496 99 535 168 b 406 363 488 288 451 324 l 258 43 b 432 60 313 22 374 24 m 281 619 b 371 489 290 569 326 529 l 474 744 b 281 619 378 776 243 743 "},"%":{"ha":646,"x_min":0,"x_max":0,"o":"m 97 1 l 51 1 l 421 817 l 542 817 m 542 269 b 524 142 550 225 536 179 b 390 14 497 79 447 7 b 313 97 344 21 319 53 b 332 225 307 142 319 186 b 397 326 351 269 371 300 b 542 269 460 371 536 346 m 486 326 b 383 213 447 339 397 236 b 383 26 344 103 344 33 b 478 156 415 26 447 79 b 486 326 486 179 536 313 m 264 726 b 243 600 268 683 264 638 b 111 472 218 531 167 467 b 39 556 64 472 39 506 b 58 683 35 600 39 644 b 124 778 72 721 97 758 b 264 726 188 829 256 804 m 213 783 b 111 671 167 796 115 697 b 111 486 64 561 64 486 b 200 607 135 479 167 531 b 213 783 213 638 264 765 "},"(":{"ha":411,"x_min":0,"x_max":0,"o":"m 660 940 b 246 -108 335 928 -131 -78 l 246 -147 b 118 501 -72 -104 29 311 b 654 972 232 739 431 949 l 660 940 "},")":{"ha":557,"x_min":0,"x_max":0,"o":"m -131 -115 b 283 933 194 -103 660 903 l 283 972 b 411 324 601 929 500 514 b -125 -147 297 86 99 -124 l -131 -115 "},"*":{"ha":214,"x_min":0,"x_max":0,"o":"m 42 497 b 99 451 68 503 89 472 l 100 451 b 104 528 93 474 89 508 b 110 453 119 513 118 475 b 113 451 111 453 113 451 b 168 497 119 472 142 503 b 121 444 174 475 143 454 b 122 440 122 443 122 442 b 192 433 143 450 178 453 b 122 429 182 418 144 425 b 168 369 142 419 168 397 b 114 418 149 369 124 397 b 111 417 114 418 113 418 b 104 344 118 394 119 360 b 99 417 90 360 93 393 b 96 418 97 417 97 417 b 42 369 83 397 61 369 b 88 426 42 394 68 417 b 86 429 88 428 86 429 b 17 433 67 425 26 418 b 86 440 31 453 67 450 l 89 446 b 42 497 68 457 42 476 "},"/":{"ha":642,"x_min":0,"x_max":0,"o":"m 131 -3 l 79 -3 l 460 969 l 582 969 "},":":{"ha":354,"x_min":0,"x_max":0,"o":"m 193 385 b 244 333 219 385 244 360 b 193 289 244 307 219 289 b 144 333 164 289 144 307 b 193 385 144 360 164 385 m 99 113 b 157 67 131 113 157 93 b 99 17 157 40 131 17 b 49 67 74 17 49 40 b 99 113 49 93 74 113 "},";":{"ha":390,"x_min":0,"x_max":0,"o":"m 107 106 b 165 60 140 106 165 86 b 13 -72 165 10 64 -68 l 13 -35 b 94 15 43 -29 81 -4 b 57 60 76 21 57 40 b 107 106 57 86 81 106 m 210 378 b 260 326 236 378 260 353 b 210 282 260 300 236 282 b 158 326 178 282 158 300 b 210 378 158 353 178 378 "},"<":{"ha":386,"x_min":0,"x_max":0,"o":"m 57 294 l 44 321 l 69 333 l 311 493 l 331 469 l 132 271 l 235 42 l 201 22 "},">":{"ha":439,"x_min":0,"x_max":0,"o":"m 301 232 l 314 207 l 296 196 l 47 29 l 35 61 l 232 258 l 124 488 l 156 500 "},"?":{"ha":724,"x_min":0,"x_max":0,"o":"m 96 160 b 646 818 161 472 588 521 b 436 992 653 957 550 1029 b 242 733 340 953 238 867 b 342 646 243 694 297 646 b 507 921 453 646 535 822 l 532 926 b 340 621 557 815 475 621 b 214 732 276 621 219 667 l 214 735 b 417 1022 206 864 314 972 b 646 1010 499 1056 582 1049 b 640 617 785 908 717 713 b 124 149 497 436 186 424 l 96 160 m 81 107 b 132 61 111 107 132 88 b 81 11 132 35 111 11 b 29 61 56 11 29 35 b 81 107 29 88 56 107 "},"[":{"ha":585,"x_min":0,"x_max":0,"o":"m 525 904 l 144 47 l 304 47 l 304 10 l 56 10 l 31 10 l 43 35 l 444 929 l 444 942 l 457 942 l 674 942 l 674 904 "},"^":{"ha":394,"x_min":0,"x_max":0,"o":"m 200 850 l 213 856 l 226 844 l 353 710 l 342 693 l 193 799 l 56 710 l 42 731 "},"]":{"ha":703,"x_min":0,"x_max":0,"o":"m 172 47 l 553 904 l 393 904 l 393 942 l 642 942 l 667 942 l 654 917 l 253 22 l 253 10 l 240 10 l 24 10 l 24 47 "},"}":{"ha":478,"x_min":0,"x_max":0,"o":"m 246 964 b 340 744 389 915 379 874 b 349 446 311 644 261 532 b 365 457 353 451 363 451 l 365 457 b 401 442 381 456 392 450 b 415 418 407 439 410 432 b 396 393 413 403 404 393 b 364 394 383 386 372 394 b 344 410 360 397 350 406 b 151 0 199 338 186 138 b 32 -137 135 -58 99 -128 b -135 -40 -36 -151 -97 -97 l -104 -24 b 83 39 3 -165 61 -92 b 314 433 122 181 144 354 b 293 765 203 536 261 664 b 243 928 321 871 346 894 l 246 964 "},"‰":{"ha":910,"x_min":0,"x_max":0,"o":"m 92 0 l 47 0 l 417 815 l 536 815 m 536 268 b 519 140 544 224 536 178 b 383 13 493 78 442 6 b 308 96 340 19 315 51 b 328 224 301 140 315 185 b 396 325 346 268 372 299 b 536 268 460 369 531 344 m 486 325 b 383 211 442 338 392 235 b 383 25 340 101 340 32 b 472 154 410 25 442 78 b 486 325 486 178 536 311 m 263 725 b 244 599 263 682 257 636 b 104 471 219 529 168 465 b 35 554 67 471 42 504 b 54 682 28 599 35 643 b 118 776 67 719 92 757 b 263 725 181 828 251 803 m 207 782 b 104 669 168 794 118 696 b 104 485 67 560 67 485 b 194 606 136 478 168 529 b 207 782 207 636 257 764 m 786 268 b 767 140 793 224 786 178 b 633 13 740 78 690 6 b 557 96 588 19 563 51 b 575 224 549 140 563 185 b 644 325 596 268 621 299 b 786 268 710 369 779 344 m 735 325 b 633 211 690 338 639 235 b 633 25 588 101 588 32 b 721 154 658 25 690 78 b 735 325 735 178 786 311 "},"\"":{"ha":358,"x_min":0,"x_max":0,"o":"m 129 747 b 181 696 164 747 181 728 b 35 568 181 644 79 576 l 29 601 b 111 651 61 607 99 633 b 79 696 92 657 79 676 b 129 747 79 728 106 747 m 264 747 b 317 696 290 747 317 728 b 167 568 317 644 214 576 l 164 601 b 244 651 193 607 232 633 b 214 696 226 657 214 676 b 264 747 214 728 232 747 "},",":{"ha":368,"x_min":0,"x_max":0,"o":"m 119 108 b 176 63 151 108 176 89 b 24 -69 176 13 74 -65 l 24 -32 b 106 18 56 -26 93 -1 b 68 63 86 24 68 43 b 119 108 68 89 93 108 "},".":{"ha":331,"x_min":0,"x_max":0,"o":"m 75 106 b 126 60 101 106 126 86 b 75 10 126 33 101 10 b 25 60 44 10 25 33 b 75 106 25 86 44 106 "},"“":{"ha":338,"x_min":0,"x_max":0,"o":"m 207 714 b 149 765 174 714 149 735 b 303 893 149 817 250 885 l 303 860 b 221 810 269 856 233 822 b 257 765 239 803 257 785 b 207 714 257 735 233 714 m 71 714 b 22 765 42 714 22 735 b 168 893 22 817 118 885 l 168 860 b 92 810 144 856 97 822 b 124 765 110 803 124 785 b 71 714 124 735 97 714 "},"”":{"ha":333,"x_min":0,"x_max":0,"o":"m 118 893 b 176 842 151 893 176 872 b 22 714 176 790 75 722 l 22 747 b 104 797 56 751 92 785 b 68 842 86 804 68 822 b 118 893 68 872 92 893 m 254 893 b 303 842 283 893 303 872 b 157 714 303 790 207 722 l 157 747 b 233 797 181 751 228 785 b 201 842 215 804 201 822 b 254 893 201 872 228 893 "},"":{"ha":422,"x_min":0,"x_max":0,"o":"m 358 507 b 269 290 328 436 297 363 l 215 151 b 236 22 199 90 196 32 b 424 285 319 14 404 232 l 447 285 b 233 1 411 203 346 -4 b 144 88 176 3 150 43 b 22 1 113 38 71 -1 b -57 156 -61 4 -82 90 b 60 456 -4 292 11 335 b 574 1031 200 794 364 1103 b 613 1006 590 1024 603 1015 b 785 1031 665 1040 724 1051 b 836 875 853 1004 854 938 l 817 881 b 775 1010 832 932 829 989 b 368 529 628 1071 493 825 l 358 507 m 564 1010 b 157 529 417 1071 282 825 l 147 507 b 58 290 117 436 86 363 l 4 151 b 25 22 -12 90 -15 32 b 150 143 69 18 114 78 l 154 156 b 271 456 207 292 222 335 b 592 992 365 683 469 897 b 564 1010 585 999 576 1004 "},"":{"ha":436,"x_min":0,"x_max":0,"o":"m 604 1040 b 451 686 578 974 517 835 b 819 753 578 651 703 640 l 836 738 b 433 643 707 614 569 610 b 226 150 338 424 238 194 b 244 19 206 89 203 29 b 436 285 339 14 406 213 l 460 285 b 242 -1 425 201 354 -7 b 156 100 186 1 160 51 b 24 -1 121 42 76 -4 b -54 156 -54 3 -75 101 b 186 721 -37 206 83 488 l 135 735 b -97 693 56 750 -22 747 l -110 711 b 151 771 -24 772 63 783 l 204 760 l 300 974 l 364 974 l 261 746 b 349 719 296 736 322 726 l 397 703 l 411 735 l 538 1040 m 342 671 b 243 704 313 679 283 692 b 8 150 140 472 21 199 b 26 19 -12 89 -15 29 b 165 160 83 15 131 88 b 378 658 185 217 285 447 l 342 671 "},"":{"ha":425,"x_min":0,"x_max":0,"o":"m 603 1042 b 457 721 590 1018 510 838 b 429 657 447 700 438 679 b 479 646 446 654 463 650 b 692 600 531 635 582 617 b 919 661 772 592 849 600 l 933 644 b 678 563 853 576 768 557 b 478 596 572 572 525 586 b 408 611 454 601 432 607 b 215 150 318 404 225 192 b 233 19 194 89 192 29 b 425 285 328 14 394 213 l 449 285 b 231 -1 414 201 343 -7 b 146 99 175 1 149 50 b 17 0 111 42 68 -3 b -60 157 -60 7 -83 101 b 44 390 -33 240 11 310 l 111 390 b 0 147 74 311 25 233 b 19 22 -19 88 -22 31 b 151 153 74 18 118 83 b 153 156 151 154 153 154 b 350 624 167 199 258 415 b 11 522 229 643 113 636 l -7 536 b 369 667 106 665 236 685 b 400 735 379 690 390 713 l 536 1042 m 121 526 b 146 503 136 526 144 517 b 90 438 146 472 119 438 b 67 481 69 438 61 456 b 121 526 76 506 99 526 "},"+":{"ha":572,"x_min":0,"x_max":0,"o":"m 308 389 l 403 389 l 310 232 l 494 233 l 447 151 l 272 168 l 174 0 l 133 0 l 211 174 l 25 193 l 44 229 l 238 231 "},"-":{"ha":565,"x_min":0,"x_max":0,"o":"m 447 151 l 25 193 l 44 229 l 494 233 "},"=":{"ha":597,"x_min":0,"x_max":0,"o":"m 447 108 l 25 150 l 44 186 l 494 190 m 72 343 l 494 301 l 475 265 l 25 261 "},"&":{"ha":1060,"x_min":0,"x_max":0,"o":"m 942 603 b 875 519 935 551 899 517 b 840 601 849 524 835 561 b 672 322 806 567 744 429 b 671 313 671 313 672 322 b 289 -157 629 25 472 -182 b 149 54 207 -146 133 -60 b 326 168 164 163 257 228 l 314 154 b 169 47 256 206 178 143 b 275 -133 158 -54 219 -117 b 628 278 386 -154 592 22 l 628 282 b 439 163 569 201 511 156 b 374 596 232 182 229 458 b 644 751 456 674 554 715 b 803 1042 640 917 700 1057 b 846 956 836 1038 851 993 b 669 729 831 847 760 776 b 676 369 672 596 688 504 b 786 558 706 411 749 492 b 906 679 826 631 864 686 b 942 603 932 676 947 644 m 668 763 b 801 1024 808 815 869 1003 b 668 763 708 1036 671 864 m 633 321 b 643 708 658 464 636 557 b 471 564 576 663 517 619 b 375 272 428 513 340 372 b 633 321 426 150 560 182 "},"_":{"ha":1157,"x_min":0,"x_max":0,"o":"m 906 0 l 153 42 l 172 78 l 953 82 "},"a":{"ha":506,"x_min":0,"x_max":0,"o":"m 406 390 b 296 147 369 311 322 233 b 317 22 279 88 278 31 b 506 285 410 17 475 211 l 529 285 b 314 0 494 201 424 -6 b 231 104 260 4 233 56 b 38 1 182 31 113 -10 b -61 125 -25 11 -61 64 b 108 388 -58 218 14 340 b 258 397 154 413 221 411 b 326 351 282 388 304 374 l 343 390 l 406 390 m 314 329 b 251 375 293 351 272 367 b 156 367 219 388 186 381 b 0 122 69 325 10 218 b 46 28 -6 78 13 42 b 242 165 132 -6 208 99 b 314 329 261 224 288 275 "},"b":{"ha":461,"x_min":0,"x_max":0,"o":"m 485 285 b 125 3 418 106 271 21 b 17 7 86 -4 44 -3 b -46 50 -6 15 -25 29 l -67 1 b -107 56 -82 21 -110 22 b 42 407 -46 186 -15 271 b 571 1028 183 763 353 1103 b 629 957 604 1013 622 992 b 528 703 647 872 585 769 b 147 506 436 594 294 500 b 78 343 124 453 100 399 l 81 346 b 174 401 107 376 144 396 b 335 278 275 425 335 360 b 222 53 333 204 286 110 b 461 285 329 85 422 181 l 485 285 m 157 529 b 514 718 294 526 425 615 b 606 953 567 785 618 872 b 561 1007 601 978 586 997 b 157 529 414 1068 281 821 m 24 31 b 122 36 56 17 86 22 b 275 281 204 81 264 188 b 179 379 283 346 243 392 b 96 329 151 375 122 356 b 49 267 78 310 63 289 b -36 74 21 200 -8 136 b 24 31 -19 51 4 36 "},"c":{"ha":331,"x_min":0,"x_max":0,"o":"m 217 285 b 207 372 243 326 232 360 b 85 318 167 390 113 346 b -7 122 33 267 0 192 b 64 25 -11 71 15 26 b 331 285 197 15 282 168 l 354 285 b 56 0 303 151 214 -6 b -67 125 -22 1 -67 56 b 101 388 -65 218 10 340 b 238 285 176 425 293 390 l 217 285 "},"'":{"ha":231,"x_min":0,"x_max":0,"o":"m 172 743 b 231 692 206 743 231 722 b 76 564 231 640 129 572 l 76 597 b 158 647 110 601 146 635 b 122 692 140 654 122 672 b 172 743 122 722 146 743 "},"":{"ha":688,"x_min":0,"x_max":0,"o":"m 186 576 b 315 536 229 560 272 546 b 789 1026 444 839 599 1092 b 749 701 918 957 818 785 b 363 504 657 593 514 499 b 294 335 339 450 318 392 l 304 344 b 397 400 332 375 363 394 b 529 354 453 414 507 396 b 481 151 560 300 501 217 b 500 24 458 99 458 33 b 688 285 596 19 657 213 l 711 285 b 497 4 675 201 611 -1 b 419 157 413 6 393 92 b 469 283 426 182 449 238 b 401 378 497 333 489 394 b 318 328 374 374 343 354 b 233 186 282 288 254 238 b 153 0 206 121 178 60 l 89 0 l 103 32 b 24 -1 79 10 53 -3 b -54 156 -54 3 -75 101 b 124 575 -43 189 15 329 b -994 825 -232 738 -572 1101 l -1006 846 b 135 600 -596 1151 -228 769 b 328 1036 188 721 251 865 l 394 1036 l 250 721 m 374 528 b 732 717 511 525 646 614 b 779 1006 797 792 885 942 b 374 528 633 1067 500 819 m 261 406 b 306 514 275 442 290 478 l 304 514 b 175 553 261 522 218 536 b 8 150 93 365 18 188 b 26 19 -12 89 -15 29 b 133 100 67 17 103 53 b 261 406 176 201 219 303 "},"":{"ha":643,"x_min":0,"x_max":0,"o":"m 811 1040 b 658 686 785 974 724 835 b 1026 753 785 651 910 640 l 1043 738 b 640 643 914 614 776 610 b 433 150 544 424 444 194 b 451 19 413 89 410 29 b 643 285 546 14 613 213 l 667 285 b 449 -1 632 201 561 -7 b 363 100 393 1 367 51 b 231 -1 328 42 283 -4 b 146 99 175 1 149 50 b 17 0 111 42 68 -3 b -60 157 -60 7 -83 101 b 44 390 -33 240 11 310 l 111 390 b 0 147 74 311 25 233 b 19 22 -19 88 -22 31 b 151 153 74 18 118 83 b 153 156 151 154 153 154 b 393 721 169 206 290 488 l 342 735 b 110 693 263 750 185 747 l 97 711 b 358 771 183 772 269 783 l 411 760 l 507 974 l 571 974 l 468 746 b 556 719 503 736 529 726 l 604 703 l 618 735 l 744 1040 m 549 671 b 450 704 519 679 490 692 b 215 150 347 472 228 199 b 233 19 194 89 192 29 b 372 160 290 15 338 88 b 585 658 392 217 492 447 l 549 671 m 121 526 b 146 503 136 526 144 517 b 90 438 146 472 119 438 b 67 481 69 438 61 456 b 121 526 76 506 99 526 "},"~":{"ha":664,"x_min":0,"x_max":0,"o":"m 604 229 b 108 200 465 104 251 325 l 96 217 b 594 240 286 401 464 160 l 604 229 "},"€":{"ha":678,"x_min":0,"x_max":0,"o":"m 256 263 b 246 217 251 246 247 231 l 568 219 l 521 138 l 240 165 b 304 22 238 81 264 25 b 408 100 333 19 372 47 l 456 85 b 310 1 415 32 365 -3 b 192 136 238 10 200 60 b 189 169 190 147 189 158 l 99 179 l 118 215 l 190 215 b 199 261 192 231 194 246 l 99 261 l 146 343 l 222 335 b 326 493 246 401 283 456 b 550 406 425 567 538 526 b 553 361 551 390 553 376 l 504 358 b 506 410 506 376 507 393 b 371 472 497 514 438 539 b 276 329 338 442 301 390 l 568 301 l 549 265 l 256 263 "},"Š":{"ha":719,"x_min":0,"x_max":0,"o":"m 940 768 b 872 849 922 796 893 825 l 872 849 l 872 849 l 856 863 b 675 576 775 781 726 678 b 1283 792 893 538 1132 611 b 1204 1022 1368 893 1335 1011 b 867 876 1088 1033 940 949 b 957 776 894 858 940 807 l 940 768 m 826 882 b 588 919 758 929 668 940 b 483 650 465 890 361 757 b 607 586 518 622 563 599 b 618 586 613 586 613 586 b 826 882 675 696 738 803 m 1301 774 b 663 554 1147 586 893 508 b 613 442 647 514 631 481 b 183 1 535 285 421 24 b 43 276 26 -10 -54 149 b 450 407 106 361 233 429 l 443 385 b 60 265 242 407 117 343 b 168 24 -21 153 38 24 b 550 453 353 24 483 306 b 607 565 572 494 590 526 l 603 565 b 472 633 557 582 506 599 b 581 943 326 757 436 900 b 844 899 669 967 767 954 l 844 899 b 1200 1040 917 967 1058 1050 b 1301 774 1353 1029 1401 899 m 764 1167 l 856 1017 l 1061 1167 l 1088 1167 l 846 961 l 740 1167 "},"‹":{"ha":1157,"x_min":0,"x_max":0,"o":"m 57 294 l 44 321 l 69 333 l 311 493 l 331 469 l 132 271 l 235 42 l 201 22 "},"Œ":{"ha":1478,"x_min":0,"x_max":0,"o":"m 1082 958 b 1361 1032 1161 1021 1267 1053 b 1419 790 1490 997 1503 874 b 974 711 1313 679 1121 663 b 997 599 974 674 981 633 b 1104 599 1031 606 1071 611 b 1099 522 1149 579 1143 528 b 988 579 1053 515 1008 543 l 981 579 b 713 379 857 550 774 493 b 846 35 639 229 683 63 b 1201 188 969 13 1142 64 b 1188 365 1228 242 1229 314 b 963 358 1126 426 1025 404 b 824 128 897 303 840 219 l 803 133 b 953 375 824 224 874 319 b 1243 375 1025 436 1176 460 b 1233 181 1292 319 1272 243 b 846 0 1151 54 990 -14 b 607 211 717 11 619 92 b 411 36 546 126 476 68 b 639 -22 468 -14 538 -33 l 643 -44 b 386 21 531 -62 443 -35 b 57 118 267 -26 129 -1 b 617 1036 -132 449 236 1035 b 792 983 682 1035 743 1017 b 1082 958 840 1050 975 1065 m 622 1013 b 254 783 482 1007 347 914 b 128 126 124 607 8 338 b 365 46 182 36 268 3 b 533 881 193 258 276 764 b 664 899 571 897 617 913 b 744 503 797 857 786 657 b 974 593 810 550 890 579 b 953 724 953 633 947 679 b 781 963 811 776 754 888 b 622 1013 736 994 681 1011 m 394 56 b 606 257 464 90 540 157 b 615 314 607 275 610 294 b 704 468 632 376 663 426 b 656 846 747 611 774 829 b 583 838 632 853 607 849 b 394 56 317 746 211 263 m 981 735 b 1401 807 1114 683 1300 701 b 1385 997 1469 868 1469 964 b 1110 926 1296 1032 1176 982 b 1171 825 1129 900 1158 847 l 1149 813 b 1093 908 1140 831 1110 894 b 981 735 1036 858 997 797 m 1064 942 b 808 971 963 1047 840 1018 b 901 829 851 936 885 888 l 876 824 b 800 946 861 874 835 915 b 953 744 783 879 839 793 b 1064 942 968 818 1008 892 "},"‘":{"ha":460,"x_min":0,"x_max":0,"o":"m 231 714 b 182 765 201 714 182 735 b 328 893 182 817 278 885 l 328 860 b 251 810 304 856 257 822 b 283 765 269 803 283 785 b 231 714 283 735 257 714 "},"’":{"ha":478,"x_min":0,"x_max":0,"o":"m 279 893 b 328 842 308 893 328 872 b 182 714 328 790 232 722 l 182 747 b 258 797 206 751 253 785 b 226 842 240 804 226 822 b 279 893 226 872 253 893 "},"•":{"ha":800,"x_min":0,"x_max":0,"o":"m 207 517 b 267 657 207 571 228 618 b 408 715 306 696 353 715 b 550 656 464 715 511 696 b 608 515 589 617 608 569 b 550 372 608 460 589 413 b 407 314 510 333 463 314 b 265 372 351 314 304 333 b 207 515 226 411 207 460 l 207 517 "},"‚":{"ha":340,"x_min":0,"x_max":0,"o":"m 119 108 b 176 63 151 108 176 89 b 24 -69 176 13 74 -65 l 24 -32 b 106 18 56 -26 93 -1 b 68 63 86 24 68 43 b 119 108 68 89 93 108 "},"„":{"ha":411,"x_min":0,"x_max":0,"o":"m 119 108 b 176 63 151 108 176 89 b 24 -69 176 13 74 -65 l 24 -32 b 106 18 56 -26 93 -1 b 68 63 86 24 68 43 b 119 108 68 89 93 108 m 258 108 b 315 63 290 108 315 89 b 163 -69 315 13 213 -65 l 163 -32 b 244 18 194 -26 232 -1 b 207 63 225 24 207 43 b 258 108 207 89 232 108 "},"…":{"ha":992,"x_min":0,"x_max":0,"o":"m 75 106 b 126 60 101 106 126 86 b 75 10 126 33 101 10 b 25 60 44 10 25 33 b 75 106 25 86 44 106 m 406 106 b 457 60 432 106 457 86 b 406 10 457 33 432 10 b 356 60 375 10 356 33 b 406 106 356 86 375 106 m 736 106 b 788 60 763 106 788 86 b 736 10 788 33 763 10 b 686 60 706 10 686 33 b 736 106 686 86 706 106 "},"†":{"ha":692,"x_min":0,"x_max":0,"o":"m 458 528 l 621 529 l 574 447 l 428 461 l 94 -256 l 43 -256 l 328 471 l 151 489 l 171 525 l 349 526 l 424 717 l 546 717 "},"‡":{"ha":818,"x_min":0,"x_max":0,"o":"m 440 188 l 649 190 l 601 108 l 436 124 l 419 -122 l 371 -140 l 374 131 l 179 150 l 199 186 l 374 188 l 378 589 l 179 588 l 226 669 l 378 654 l 381 903 l 494 947 l 474 644 l 649 628 l 629 592 l 469 590 "},"ˆ":{"ha":572,"x_min":0,"x_max":0,"o":"m 265 849 l 278 854 l 292 843 l 418 708 l 407 692 l 258 797 l 121 708 l 107 729 "},"–":{"ha":1157,"x_min":0,"x_max":0,"o":"m 57 338 l 38 385 l 1081 404 l 1128 292 "},"—":{"ha":1176,"x_min":0,"x_max":0,"o":"m 57 338 l 38 385 l 1081 404 l 1128 292 "},"˜":{"ha":501,"x_min":0,"x_max":0,"o":"m 463 954 b 51 931 347 851 171 1035 l 42 944 b 454 964 199 1097 346 897 l 463 954 "},"š":{"ha":499,"x_min":0,"x_max":0,"o":"m 313 514 l 300 508 l 286 519 l 160 654 l 171 671 l 319 565 l 457 654 l 471 633 m 318 446 b 381 471 332 475 360 482 b 351 419 408 451 369 413 b 356 310 342 397 351 358 b 296 43 369 228 353 97 b 129 18 253 -3 181 -18 b 100 63 117 31 107 43 b 118 68 106 63 113 64 b 143 33 119 54 129 40 b 279 143 206 3 261 94 b 313 317 292 176 315 249 b 308 406 313 343 307 376 b 36 47 218 315 -10 122 b 21 39 31 46 31 35 b 317 444 -44 175 238 349 l 317 446 b 318 447 317 446 318 446 l 318 446 "},"›":{"ha":538,"x_min":0,"x_max":0,"o":"m 318 221 l 331 194 l 306 182 l 64 22 l 44 46 l 243 244 l 140 474 l 174 493 "},"™":{"ha":1103,"x_min":0,"x_max":0,"o":"m 625 971 l 722 690 l 831 971 l 940 971 l 940 954 l 919 954 b 894 942 908 953 901 949 b 886 915 889 935 886 926 l 886 665 b 894 638 886 654 889 644 b 919 628 901 631 908 628 l 940 629 l 940 611 l 785 611 l 785 629 l 806 629 b 831 638 817 628 824 631 b 839 664 836 644 839 654 l 839 942 l 714 608 l 708 608 l 590 939 l 590 665 b 599 638 590 654 593 644 b 624 628 606 631 613 628 l 643 629 l 643 611 l 510 611 l 510 628 l 529 628 b 554 636 539 626 547 629 b 564 664 560 643 564 653 l 564 915 b 554 940 564 922 560 933 b 529 953 547 950 539 953 l 510 954 l 510 971 m 440 971 l 449 851 l 432 851 b 404 929 431 886 419 914 b 336 953 389 946 368 953 l 319 954 l 319 665 b 329 638 319 654 324 644 b 353 628 336 631 343 628 l 374 629 l 374 611 l 210 611 l 210 629 l 232 629 b 257 638 243 628 250 631 b 265 664 263 644 265 654 l 265 954 l 251 954 b 182 929 219 953 197 946 b 153 850 167 914 157 888 l 139 851 l 144 971 "},"œ":{"ha":768,"x_min":0,"x_max":0,"o":"m 374 193 b 369 63 363 163 346 101 b 429 25 382 40 403 26 b 697 285 567 15 646 168 l 721 285 b 422 0 671 151 581 -6 b 299 100 353 1 308 43 b 74 15 240 24 156 -28 b 74 257 -14 67 35 190 b 315 399 117 331 203 438 b 369 303 351 381 368 346 b 471 392 399 340 433 372 b 615 299 547 429 657 396 b 374 193 585 222 444 188 m 286 236 b 313 199 297 236 310 219 l 329 238 b 338 290 335 257 338 275 b 132 246 338 457 174 333 b 108 24 101 190 42 61 b 279 122 171 0 235 54 b 265 146 274 131 268 139 b 263 151 265 149 263 151 l 264 151 b 258 185 260 161 258 172 b 286 236 258 213 271 236 m 590 289 b 521 371 631 354 581 400 b 379 208 461 340 407 275 b 590 289 435 207 554 233 "},"Ÿ":{"ha":967,"x_min":0,"x_max":0,"o":"m 796 1001 b 847 950 822 1001 847 976 b 796 906 847 924 822 906 b 747 950 767 906 747 924 b 796 1001 747 976 767 1001 m 992 1001 b 1050 956 1024 1001 1050 982 b 992 906 1050 929 1024 906 b 942 956 967 906 942 929 b 992 1001 942 982 967 1001 m 571 99 b 185 -21 367 121 242 60 b 293 -265 106 -135 163 -265 b 622 54 435 -265 549 -94 b 778 353 674 153 726 251 b 692 282 751 325 724 300 b 469 407 560 201 429 276 b 560 606 492 475 497 475 b 617 879 600 690 629 788 b 469 999 606 958 549 999 b 65 754 315 999 133 885 b 106 504 25 681 -10 532 b 167 497 126 497 144 497 b 310 844 93 640 179 793 b 469 747 394 879 486 863 b 201 481 439 631 321 511 b 247 429 213 464 231 446 l 231 413 b 179 481 207 435 190 458 b 99 481 150 475 126 475 b 42 765 -32 514 -4 681 b 469 1021 122 903 310 1021 b 681 879 560 1021 663 969 b 617 594 692 776 663 686 b 532 394 556 458 556 464 b 674 310 497 304 578 253 b 861 521 753 351 813 438 b 1289 982 956 714 1074 907 b 1294 953 1294 969 1294 964 b 903 481 1090 879 999 681 b 697 60 839 338 765 196 b 310 -287 622 -94 504 -271 b 167 -10 150 -300 71 -140 b 571 121 231 76 361 144 l 571 99 m 190 504 b 446 754 304 528 424 644 b 321 828 464 844 383 851 b 190 504 196 776 117 635 "},"¡":{"ha":614,"x_min":0,"x_max":0,"o":"m 438 878 l 488 878 l 144 7 l 21 7 m 501 947 b 450 993 475 947 450 967 b 501 1043 450 1019 475 1043 b 551 993 533 1043 551 1019 b 501 947 551 967 533 947 "},"¢":{"ha":454,"x_min":0,"x_max":0,"o":"m 338 82 b 156 0 290 32 231 -3 l 153 0 l 75 -168 l 35 -168 l 104 10 b 33 125 58 28 33 72 b 201 388 35 218 110 340 b 257 401 218 396 238 401 l 331 589 l 426 589 l 333 390 b 375 229 397 367 399 275 l 357 240 b 322 367 378 285 371 354 l 164 25 b 321 99 226 21 278 53 l 338 82 m 93 122 b 117 44 90 90 100 63 l 242 363 b 185 318 219 350 199 332 b 93 122 133 267 100 192 "},"£":{"ha":972,"x_min":0,"x_max":0,"o":"m 396 469 b 401 488 397 475 400 481 b 654 1001 460 693 522 904 b 871 1007 717 1046 797 1064 b 935 835 921 968 946 899 b 751 596 921 756 867 669 l 739 618 b 911 840 847 688 899 767 b 853 990 917 899 899 956 b 665 978 797 1036 724 1025 b 460 482 556 893 522 681 l 456 469 l 714 472 l 667 390 l 438 413 b 229 47 388 261 324 122 b 776 -81 339 -10 582 -240 l 789 -96 b 214 29 510 -297 392 -60 b 76 -10 174 1 128 -17 b 13 96 29 -3 -26 46 b 207 58 61 146 160 96 b 382 418 286 126 338 265 l 244 432 l 264 468 l 396 469 "},"¤":{"ha":1007,"x_min":0,"x_max":0,"o":"m 207 421 b 229 533 207 461 214 499 b 267 596 239 556 251 576 l 88 775 l 107 799 l 324 654 b 390 693 344 671 367 683 b 504 715 425 708 464 715 b 618 693 546 715 583 708 b 664 669 633 686 649 679 l 858 799 l 878 775 l 721 618 b 779 531 746 592 765 563 b 801 419 794 496 801 460 b 779 306 801 379 794 340 b 722 217 765 274 746 244 l 878 63 l 858 39 l 664 168 b 617 143 649 158 632 150 b 503 121 582 128 543 121 b 389 143 463 121 424 128 b 322 182 365 153 343 165 l 107 39 l 88 63 l 264 239 b 228 304 249 260 238 281 b 207 419 214 340 207 379 l 207 421 m 303 425 b 361 281 303 369 322 321 b 503 222 400 242 449 222 b 647 281 558 222 607 242 b 707 425 686 321 707 369 b 647 565 707 479 686 526 b 504 626 608 606 561 626 b 363 567 449 626 401 606 b 303 425 324 528 303 481 "},"¥":{"ha":967,"x_min":0,"x_max":0,"o":"m 697 60 b 665 -1 688 39 676 19 l 839 0 l 792 -82 l 626 -65 b 310 -287 553 -178 451 -275 b 221 -275 276 -290 246 -286 l 231 -254 b 293 -265 249 -261 269 -265 b 558 -58 399 -265 489 -169 l 369 -40 l 389 -4 l 593 -1 l 622 54 l 632 74 l 369 71 l 417 153 l 661 128 l 778 353 b 692 282 751 325 724 300 b 469 407 560 201 429 276 b 560 606 492 475 497 475 b 617 879 600 690 629 788 b 469 999 606 958 549 999 b 65 754 315 999 133 885 b 106 504 25 681 -10 532 b 167 497 126 497 144 497 b 310 844 93 640 179 793 b 469 747 394 879 486 863 b 201 481 439 631 321 511 b 247 429 213 464 231 446 l 231 413 b 179 481 207 435 190 458 b 99 481 150 475 126 475 b 42 765 -32 514 -4 681 b 469 1021 122 903 310 1021 b 681 879 560 1021 663 969 b 617 594 692 776 663 686 b 532 394 556 458 556 464 b 674 310 497 304 578 253 b 861 521 753 351 813 438 b 1289 982 956 714 1074 907 b 1294 953 1294 969 1294 964 b 903 481 1090 879 999 681 b 728 122 849 358 788 239 l 839 111 l 819 75 l 704 74 m 190 504 b 446 754 304 528 424 644 b 321 828 464 844 383 851 b 190 504 196 776 117 635 "},"¦":{"ha":754,"x_min":0,"x_max":0,"o":"m 189 -3 l 138 -3 l 303 421 l 385 421 m 518 969 l 640 969 l 446 551 l 354 551 "},"§":{"ha":579,"x_min":0,"x_max":0,"o":"m 240 403 b 350 474 256 442 303 471 b 350 575 342 504 339 536 b 485 644 368 621 431 654 l 483 626 b 408 590 446 629 417 610 b 432 256 361 497 499 400 b 340 174 414 217 379 186 b 322 83 342 146 338 115 b 129 18 290 13 200 -32 b 100 63 117 31 107 43 b 118 68 106 63 113 64 b 279 143 169 -29 281 78 b 240 403 276 253 213 307 m 299 418 b 333 221 268 357 314 296 b 389 315 365 243 389 283 b 357 454 388 372 369 414 b 299 418 328 451 306 435 "},"¨":{"ha":986,"x_min":0,"x_max":0,"o":"m 326 926 b 378 881 353 926 378 907 b 326 831 378 854 353 831 b 276 881 296 831 276 854 b 326 926 276 907 296 926 m 657 926 b 708 881 683 926 708 907 b 657 831 708 854 683 831 b 607 881 626 831 607 854 b 657 926 607 907 626 926 "},"©":{"ha":1157,"x_min":0,"x_max":0,"o":"m 215 392 b 324 649 215 490 253 576 b 582 754 394 719 482 754 b 840 646 682 754 769 719 b 947 389 911 575 947 488 b 840 129 947 289 911 203 b 579 22 767 58 681 22 b 321 129 479 22 393 58 b 215 389 250 200 215 289 l 215 392 m 257 389 b 351 160 257 301 289 221 b 579 65 413 99 490 65 b 810 160 668 65 744 99 b 904 389 871 225 904 301 b 810 617 904 476 871 556 b 581 713 749 682 669 713 b 353 618 493 713 414 681 b 257 392 292 557 257 479 l 257 389 m 732 604 b 722 579 732 593 729 585 b 699 571 715 574 708 571 b 651 589 693 571 679 578 b 574 608 625 601 597 608 b 424 540 514 608 467 585 b 363 372 383 494 363 439 b 425 213 363 310 385 257 b 575 147 465 168 518 147 b 682 175 615 147 650 157 b 757 260 714 193 739 222 l 742 269 b 672 199 724 238 699 215 b 586 176 649 183 619 176 b 475 229 536 176 501 194 b 436 383 449 263 436 315 b 472 535 436 450 449 501 b 575 588 496 569 531 588 b 674 550 615 588 647 574 b 729 439 700 524 719 488 l 750 439 l 750 606 l 732 606 l 732 604 "},"ª":{"ha":576,"x_min":0,"x_max":0,"o":"m 390 918 b 317 753 367 864 335 813 b 331 669 306 713 304 674 b 458 846 393 665 436 796 l 474 846 b 328 653 450 790 401 650 b 272 724 292 656 274 692 b 142 654 240 674 193 647 b 75 738 99 661 75 697 b 190 915 76 800 126 883 b 290 922 221 932 265 932 b 338 892 306 915 322 907 l 349 918 l 390 918 m 328 876 b 286 907 314 892 300 901 b 222 901 264 915 243 910 b 115 736 163 874 122 800 b 147 672 113 706 125 682 b 279 765 206 650 257 719 b 328 876 292 804 310 840 "},"«":{"ha":742,"x_min":0,"x_max":0,"o":"m 232 318 l 401 96 l 379 75 l 161 265 l 138 281 l 154 306 l 333 556 l 364 532 m 307 282 l 288 303 l 307 322 l 483 551 l 510 535 l 385 285 l 557 100 l 531 71 "},"®":{"ha":1053,"x_min":0,"x_max":0,"o":"m 150 392 b 258 649 150 490 188 576 b 517 754 329 719 417 754 b 775 646 617 754 704 719 b 882 389 846 575 882 488 b 775 129 882 289 846 203 b 514 22 701 58 615 22 b 256 129 414 22 328 58 b 150 389 185 200 150 289 l 150 392 m 192 389 b 286 160 192 301 224 221 b 514 65 347 99 425 65 b 744 160 603 65 679 99 b 839 389 806 225 839 301 b 744 617 839 476 806 556 b 515 713 683 682 604 713 b 288 618 428 713 349 681 b 192 392 226 557 192 479 l 192 389 m 451 551 b 467 579 451 563 456 574 b 508 590 476 586 490 590 b 592 567 546 590 571 583 b 622 504 613 551 622 531 b 588 436 622 475 611 451 b 485 413 565 419 531 413 l 465 413 b 451 414 460 413 456 413 l 451 551 m 322 588 b 378 574 350 586 368 581 b 393 533 389 567 393 551 l 393 265 b 378 225 393 247 389 232 b 322 214 368 218 350 213 l 322 193 l 522 193 l 522 213 b 467 225 494 213 476 218 b 451 267 456 232 451 246 l 451 396 l 461 396 b 471 396 467 396 471 396 b 547 381 504 396 529 392 b 588 329 568 369 581 353 b 592 278 592 319 592 304 b 601 218 593 251 596 233 b 625 192 606 208 614 199 b 665 182 636 186 650 182 b 724 206 693 182 713 190 b 744 276 736 221 744 243 l 744 281 l 724 278 b 715 228 724 256 721 238 b 682 211 708 218 699 211 b 656 258 669 211 660 226 b 649 288 651 269 650 282 b 611 358 639 319 626 342 b 539 400 594 376 571 389 b 654 440 590 411 631 424 b 690 504 678 456 690 476 b 646 579 690 536 675 561 b 525 607 617 597 575 606 l 322 607 l 322 588 "},"−":{"ha":660,"x_min":0,"x_max":0,"o":"m 515 151 l 93 193 l 113 229 l 563 233 "},"¬":{"ha":794,"x_min":0,"x_max":0,"o":"m 71 340 l 90 376 l 738 371 l 688 60 l 651 79 l 647 292 "},"°":{"ha":1157,"x_min":0,"x_max":0,"o":"m 218 758 b 271 882 218 807 236 849 b 394 933 304 917 346 933 b 519 881 444 933 486 918 b 571 757 553 847 571 806 b 519 632 571 708 553 667 b 393 581 485 599 443 581 b 269 632 344 581 303 599 b 218 757 235 665 218 708 l 218 758 m 253 756 b 294 656 253 718 265 682 b 393 614 321 628 354 614 b 496 656 433 614 468 628 b 538 756 524 683 538 718 b 496 857 538 794 524 829 b 394 899 469 886 438 899 b 294 857 357 899 322 886 b 253 758 267 831 253 797 l 253 756 "},"±":{"ha":744,"x_min":0,"x_max":0,"o":"m 503 -1 l 81 40 l 100 76 l 550 81 m 450 510 l 544 510 l 451 353 l 636 354 l 589 272 l 414 289 l 315 121 l 275 121 l 353 294 l 167 314 l 186 350 l 379 351 "},"»":{"ha":724,"x_min":0,"x_max":0,"o":"m 540 306 l 557 281 l 533 265 l 315 75 l 293 96 l 463 318 l 331 532 l 361 556 m 310 285 l 185 535 l 211 551 l 388 322 l 407 303 l 388 282 l 164 71 l 138 100 "},"¼":{"ha":1000,"x_min":0,"x_max":0,"o":"m 211 435 l 425 869 b 406 851 419 863 413 857 b 286 808 378 825 336 808 l 286 833 b 394 872 332 833 365 846 b 465 950 418 890 444 921 l 493 950 l 278 435 l 365 435 l 365 410 l 119 410 l 119 435 m 346 -3 l 294 -3 l 675 969 l 797 969 m 561 204 l 754 204 l 835 358 l 861 358 l 800 204 l 843 204 l 831 185 l 792 185 l 719 0 l 653 0 l 746 185 l 540 185 l 531 200 l 756 529 l 828 529 "},"½":{"ha":1071,"x_min":0,"x_max":0,"o":"m 825 460 b 803 378 829 432 815 401 b 688 299 779 340 739 294 b 625 375 650 304 622 336 l 625 375 b 768 526 639 460 701 508 b 894 497 815 539 864 526 b 864 274 969 428 907 324 b 531 42 769 176 631 133 b 669 56 568 64 614 72 b 769 68 711 42 750 10 l 797 60 b 664 14 763 -15 721 -1 b 483 -7 614 25 551 42 l 469 14 b 864 389 589 163 797 192 b 769 501 882 468 846 518 b 646 369 711 489 660 443 b 692 324 646 344 664 324 b 783 389 731 319 768 361 b 801 456 797 410 803 436 l 825 460 m 211 435 l 425 869 b 406 851 419 863 413 857 b 286 808 378 825 336 808 l 286 833 b 394 872 332 833 365 846 b 465 950 418 890 444 921 l 493 950 l 278 435 l 365 435 l 365 410 l 119 410 l 119 435 m 346 -3 l 294 -3 l 675 969 l 797 969 "},"¾":{"ha":1025,"x_min":0,"x_max":0,"o":"m 346 -3 l 294 -3 l 675 969 l 797 969 m 535 939 l 543 908 l 358 789 b 463 643 442 786 472 714 b 239 410 456 538 363 394 b 206 697 86 432 144 604 l 235 697 b 243 432 185 621 110 453 b 399 647 340 432 392 560 b 314 761 415 731 383 789 l 306 782 l 475 913 l 299 913 l 311 939 m 554 204 l 747 204 l 828 358 l 854 358 l 793 204 l 836 204 l 824 185 l 785 185 l 713 0 l 646 0 l 739 185 l 533 185 l 524 200 l 749 529 l 821 529 "},"¿":{"ha":724,"x_min":0,"x_max":0,"o":"m 660 876 b 110 218 594 564 168 515 b 319 44 103 79 206 7 b 514 303 415 83 518 169 b 414 390 513 342 458 390 b 249 115 303 390 221 214 l 224 110 b 415 415 199 221 281 415 b 542 304 479 415 536 369 l 542 301 b 339 14 550 172 442 64 b 110 26 257 -19 174 -12 b 115 419 -29 128 39 324 b 632 888 258 600 569 613 l 660 876 m 675 929 b 624 975 644 929 624 949 b 675 1025 624 1001 644 1025 b 726 975 700 1025 726 1001 b 675 929 726 949 700 929 "},"À":{"ha":1039,"x_min":0,"x_max":0,"o":"m 1164 -60 b 708 40 983 -147 842 -35 b 571 1 674 7 626 -6 b 482 56 536 1 486 22 b 507 110 478 75 490 100 b 708 69 561 142 654 104 b 896 506 793 150 843 328 b 915 574 903 526 908 550 b 753 528 863 563 808 546 b 640 496 717 515 678 506 l 615 442 b 182 -1 536 283 417 21 b 40 276 24 -18 -56 140 b 446 408 104 363 235 425 l 446 385 b 58 261 242 403 117 340 b 167 21 -21 147 35 15 b 553 454 356 21 485 306 l 564 478 b 286 506 458 456 361 454 b 211 750 211 563 178 657 l 211 754 b 428 994 183 886 274 1007 l 428 972 b 229 783 304 981 222 896 b 417 885 268 847 343 879 b 588 744 501 892 599 842 b 229 717 571 544 299 574 b 303 521 211 642 242 567 b 576 503 372 474 471 479 b 1207 1044 701 758 853 1026 b 1208 1046 1207 1044 1207 1046 l 1208 1044 b 1214 1046 1210 1044 1211 1046 l 1214 1022 b 989 610 1079 976 1039 801 b 1208 528 1081 619 1161 604 l 1192 515 b 982 586 1147 582 1072 597 l 958 494 b 724 57 900 317 833 144 b 1151 -36 847 -22 988 -117 l 1164 -60 m 747 550 b 922 599 807 568 865 586 b 1153 1015 975 772 1040 939 b 651 521 865 976 756 749 b 747 550 683 529 717 540 m 242 750 b 565 744 286 601 549 567 b 417 865 578 829 485 869 b 242 750 343 858 268 818 m 685 53 b 521 90 647 81 558 118 b 589 25 482 49 557 25 b 685 53 626 24 661 32 m 1268 1068 l 1242 1064 l 1038 1156 l 1099 1188 "},"Á":{"ha":1039,"x_min":0,"x_max":0,"o":"m 1008 1064 l 982 1068 l 1151 1188 l 1213 1156 m 1164 -60 b 708 40 983 -147 842 -35 b 571 1 674 7 626 -6 b 482 56 536 1 486 22 b 507 110 478 75 490 100 b 708 69 561 142 654 104 b 896 506 793 150 843 328 b 915 574 903 526 908 550 b 753 528 863 563 808 546 b 640 496 717 515 678 506 l 615 442 b 182 -1 536 283 417 21 b 40 276 24 -18 -56 140 b 446 408 104 363 235 425 l 446 385 b 58 261 242 403 117 340 b 167 21 -21 147 35 15 b 553 454 356 21 485 306 l 564 478 b 286 506 458 456 361 454 b 211 750 211 563 178 657 l 211 754 b 428 994 183 886 274 1007 l 428 972 b 229 783 304 981 222 896 b 417 885 268 847 343 879 b 588 744 501 892 599 842 b 229 717 571 544 299 574 b 303 521 211 642 242 567 b 576 503 372 474 471 479 b 1207 1044 701 758 853 1026 b 1208 1046 1207 1044 1207 1046 l 1208 1044 b 1214 1046 1210 1044 1211 1046 l 1214 1022 b 989 610 1079 976 1039 801 b 1208 528 1081 619 1161 604 l 1192 515 b 982 586 1147 582 1072 597 l 958 494 b 724 57 900 317 833 144 b 1151 -36 847 -22 988 -117 l 1164 -60 m 747 550 b 922 599 807 568 865 586 b 1153 1015 975 772 1040 939 b 651 521 865 976 756 749 b 747 550 683 529 717 540 m 242 750 b 565 744 286 601 549 567 b 417 865 578 829 485 869 b 242 750 343 858 268 818 m 685 53 b 521 90 647 81 558 118 b 589 25 482 49 557 25 b 685 53 626 24 661 32 "},"Â":{"ha":1039,"x_min":0,"x_max":0,"o":"m 1164 -60 b 708 40 983 -147 842 -35 b 571 1 674 7 626 -6 b 482 56 536 1 486 22 b 507 110 478 75 490 100 b 708 69 561 142 654 104 b 896 506 793 150 843 328 b 915 574 903 526 908 550 b 753 528 863 563 808 546 b 640 496 717 515 678 506 l 615 442 b 182 -1 536 283 417 21 b 40 276 24 -18 -56 140 b 446 408 104 363 235 425 l 446 385 b 58 261 242 403 117 340 b 167 21 -21 147 35 15 b 553 454 356 21 485 306 l 564 478 b 286 506 458 456 361 454 b 211 750 211 563 178 657 l 211 754 b 428 994 183 886 274 1007 l 428 972 b 229 783 304 981 222 896 b 417 885 268 847 343 879 b 588 744 501 892 599 842 b 229 717 571 544 299 574 b 303 521 211 642 242 567 b 576 503 372 474 471 479 b 1207 1044 701 758 853 1026 b 1208 1046 1207 1044 1207 1046 l 1208 1044 b 1214 1046 1210 1044 1211 1046 l 1214 1022 b 989 610 1079 976 1039 801 b 1208 528 1081 619 1161 604 l 1192 515 b 982 586 1147 582 1072 597 l 958 494 b 724 57 900 317 833 144 b 1151 -36 847 -22 988 -117 l 1164 -60 m 747 550 b 922 599 807 568 865 586 b 1153 1015 975 772 1040 939 b 651 521 865 976 756 749 b 747 550 683 529 717 540 m 242 750 b 565 744 286 601 549 567 b 417 865 578 829 485 869 b 242 750 343 858 268 818 m 685 53 b 521 90 647 81 558 118 b 589 25 482 49 557 25 b 685 53 626 24 661 32 m 1118 1222 l 1131 1228 l 1144 1217 l 1271 1082 l 1260 1065 l 1111 1171 l 974 1082 l 960 1103 "},"Ã":{"ha":1039,"x_min":0,"x_max":0,"o":"m 1151 -36 b 724 57 988 -117 847 -22 b 958 494 833 144 900 317 l 982 586 b 1192 515 1072 597 1147 582 l 1208 528 b 989 610 1161 604 1081 619 b 1214 1022 1039 801 1079 976 l 1214 1046 b 1208 1044 1211 1046 1210 1044 l 1208 1046 b 1207 1044 1207 1046 1207 1044 b 576 503 853 1026 701 758 b 303 521 471 479 372 474 b 229 717 242 567 211 642 b 588 744 299 574 571 544 b 417 885 599 842 501 892 b 229 783 343 879 268 847 b 428 972 222 896 304 981 l 428 994 b 211 754 274 1007 183 886 l 211 750 b 286 506 178 657 211 563 b 564 478 361 454 458 456 l 553 454 b 167 21 485 306 356 21 b 58 261 35 15 -21 147 b 446 385 117 340 242 403 l 446 408 b 40 276 235 425 104 363 b 182 -1 -56 140 24 -18 b 615 442 417 21 536 283 l 640 496 b 753 528 678 506 717 515 b 915 574 808 546 863 563 b 896 506 908 550 903 526 b 708 69 843 328 793 150 b 507 110 654 104 561 142 b 482 56 490 100 478 75 b 571 1 486 22 536 1 b 708 40 626 -6 674 7 b 1164 -60 842 -35 983 -147 l 1151 -36 m 747 550 b 651 521 717 540 683 529 b 1153 1015 756 749 865 976 b 922 599 1040 939 975 772 b 747 550 865 586 807 568 m 242 750 b 417 865 268 818 343 858 b 565 744 485 869 578 829 b 242 750 549 567 286 601 m 685 53 b 589 25 661 32 626 24 b 521 90 557 25 482 49 b 685 53 558 118 647 81 m 1306 1164 b 810 1135 1167 1039 953 1260 l 797 1151 b 1296 1175 988 1336 1165 1094 l 1306 1164 "},"Ä":{"ha":1039,"x_min":0,"x_max":0,"o":"m 951 1190 b 1003 1144 978 1190 1003 1171 b 951 1094 1003 1118 978 1094 b 901 1144 921 1094 901 1118 b 951 1190 901 1171 921 1190 m 1133 1190 b 1185 1144 1160 1190 1185 1171 b 1133 1094 1185 1118 1160 1094 b 1083 1144 1103 1094 1083 1118 b 1133 1190 1083 1171 1103 1190 m 1164 -60 b 708 40 983 -147 842 -35 b 571 1 674 7 626 -6 b 482 56 536 1 486 22 b 507 110 478 75 490 100 b 708 69 561 142 654 104 b 896 506 793 150 843 328 b 915 574 903 526 908 550 b 753 528 863 563 808 546 b 640 496 717 515 678 506 l 615 442 b 182 -1 536 283 417 21 b 40 276 24 -18 -56 140 b 446 408 104 363 235 425 l 446 385 b 58 261 242 403 117 340 b 167 21 -21 147 35 15 b 553 454 356 21 485 306 l 564 478 b 286 506 458 456 361 454 b 211 750 211 563 178 657 l 211 754 b 428 994 183 886 274 1007 l 428 972 b 229 783 304 981 222 896 b 417 885 268 847 343 879 b 588 744 501 892 599 842 b 229 717 571 544 299 574 b 303 521 211 642 242 567 b 576 503 372 474 471 479 b 1207 1044 701 758 853 1026 b 1208 1046 1207 1044 1207 1046 l 1208 1044 b 1214 1046 1210 1044 1211 1046 l 1214 1022 b 989 610 1079 976 1039 801 b 1208 528 1081 619 1161 604 l 1192 515 b 982 586 1147 582 1072 597 l 958 494 b 724 57 900 317 833 144 b 1151 -36 847 -22 988 -117 l 1164 -60 m 747 550 b 922 599 807 568 865 586 b 1153 1015 975 772 1040 939 b 651 521 865 976 756 749 b 747 550 683 529 717 540 m 242 750 b 565 744 286 601 549 567 b 417 865 578 829 485 869 b 242 750 343 858 268 818 m 685 53 b 521 90 647 81 558 118 b 589 25 482 49 557 25 b 685 53 626 24 661 32 "},"Å":{"ha":1039,"x_min":0,"x_max":0,"o":"m 1010 1208 b 1143 1342 1010 1282 1069 1342 b 1276 1208 1217 1342 1276 1282 b 1143 1075 1276 1135 1217 1075 b 1010 1208 1069 1075 1010 1135 m 1038 1210 b 1143 1104 1038 1151 1085 1104 b 1250 1210 1203 1104 1250 1151 b 1143 1317 1250 1269 1203 1317 b 1038 1210 1085 1317 1038 1269 m 1151 -36 b 724 57 988 -117 847 -22 b 958 494 833 144 900 317 l 982 586 b 1192 515 1072 597 1147 582 l 1208 528 b 989 610 1161 604 1081 619 b 1214 1022 1039 801 1079 976 l 1214 1046 b 1208 1044 1211 1046 1210 1044 l 1208 1046 b 1207 1044 1207 1046 1207 1044 b 576 503 853 1026 701 758 b 303 521 471 479 372 474 b 229 717 242 567 211 642 b 588 744 299 574 571 544 b 417 885 599 842 501 892 b 229 783 343 879 268 847 b 428 972 222 896 304 981 l 428 994 b 211 754 274 1007 183 886 l 211 750 b 286 506 178 657 211 563 b 564 478 361 454 458 456 l 553 454 b 167 21 485 306 356 21 b 58 261 35 15 -21 147 b 446 385 117 340 242 403 l 446 408 b 40 276 235 425 104 363 b 182 -1 -56 140 24 -18 b 615 442 417 21 536 283 l 640 496 b 753 528 678 506 717 515 b 915 574 808 546 863 563 b 896 506 908 550 903 526 b 708 69 843 328 793 150 b 507 110 654 104 561 142 b 482 56 490 100 478 75 b 571 1 486 22 536 1 b 708 40 626 -6 674 7 b 1164 -60 842 -35 983 -147 l 1151 -36 m 747 550 b 651 521 717 540 683 529 b 1153 1015 756 749 865 976 b 922 599 1040 939 975 772 b 747 550 865 586 807 568 m 242 750 b 417 865 268 818 343 858 b 565 744 485 869 578 829 b 242 750 549 567 286 601 m 685 53 b 589 25 661 32 626 24 b 521 90 557 25 482 49 b 685 53 558 118 647 81 "},"Æ":{"ha":1674,"x_min":0,"x_max":0,"o":"m 888 301 b 1049 35 861 176 914 57 b 1404 188 1172 13 1344 64 b 1390 365 1431 242 1432 314 b 1165 358 1329 426 1228 404 b 1026 128 1100 303 1043 219 l 1006 133 b 1156 375 1026 224 1076 319 b 1446 375 1228 436 1379 460 b 1436 181 1494 319 1475 243 b 1049 0 1354 54 1193 -14 b 818 167 936 10 847 72 b 724 57 790 124 760 85 b 1151 -36 847 -22 988 -117 l 1164 -60 b 708 40 983 -147 842 -35 b 571 1 674 7 626 -6 b 482 56 536 1 486 22 b 507 110 478 75 490 100 b 708 69 561 142 654 104 b 808 236 747 107 779 165 b 818 314 808 260 811 286 b 874 429 829 357 849 396 l 896 506 b 915 574 903 526 908 550 b 753 528 863 563 808 546 b 640 496 717 515 678 506 l 615 442 b 182 -1 536 283 417 21 b 40 276 24 -18 -56 140 b 446 408 104 363 235 425 l 446 385 b 58 261 242 403 117 340 b 167 21 -21 147 35 15 b 553 454 356 21 485 306 l 564 478 b 286 506 458 456 361 454 b 211 750 211 563 178 657 l 211 754 b 428 994 183 886 274 1007 l 428 972 b 229 783 304 981 222 896 b 417 885 268 847 343 879 b 588 744 501 892 599 842 b 229 717 571 544 299 574 b 303 521 211 642 242 567 b 576 503 372 474 471 479 b 1207 1044 701 758 853 1026 b 1208 1046 1207 1044 1207 1046 l 1208 1044 b 1214 1046 1210 1044 1211 1046 l 1214 1022 b 1201 1017 1210 1021 1206 1019 b 1285 958 1229 1004 1257 985 b 1564 1032 1364 1021 1469 1053 b 1622 790 1693 997 1706 874 b 1176 711 1515 679 1324 663 b 1200 599 1176 674 1183 633 b 1307 599 1233 606 1274 611 b 1301 522 1351 579 1346 528 b 1190 579 1256 515 1211 543 l 1183 579 b 925 397 1067 551 986 499 b 888 301 914 365 901 332 m 1183 735 b 1604 807 1317 683 1503 701 b 1588 997 1672 868 1672 964 b 1313 926 1499 1032 1379 982 b 1374 825 1332 900 1361 847 l 1351 813 b 1296 908 1343 831 1313 894 b 1183 735 1239 858 1200 797 m 747 550 b 922 599 807 568 865 586 b 1153 1015 975 772 1040 939 b 651 521 865 976 756 749 b 747 550 683 529 717 540 m 242 750 b 565 744 286 601 549 567 b 417 865 578 829 485 869 b 242 750 343 858 268 818 m 1038 589 b 982 586 1019 589 1001 589 l 963 514 b 1176 593 1025 554 1099 581 b 1156 724 1156 633 1150 679 b 1040 794 1107 742 1068 767 b 989 610 1021 738 1006 674 b 1047 613 1008 613 1029 613 l 1038 589 m 1047 817 b 1156 744 1074 789 1110 763 b 1267 942 1171 818 1211 892 b 1175 1003 1236 972 1206 992 b 1047 817 1115 967 1078 900 m 685 53 b 521 90 647 81 558 118 b 589 25 482 49 557 25 b 685 53 626 24 661 32 "},"Ç":{"ha":906,"x_min":0,"x_max":0,"o":"m 453 892 b 656 1019 519 949 588 993 b 915 1004 733 1049 842 1065 b 904 774 989 943 953 840 b 257 553 757 599 469 497 b 204 193 199 446 161 307 b 729 244 318 -60 663 -15 b 538 324 774 418 629 418 b 464 138 499 278 453 197 l 443 133 b 519 333 431 204 476 283 b 785 239 629 453 836 436 b 456 4 746 92 600 8 b 388 -107 433 -29 408 -75 b 475 -117 419 -106 453 -104 b 458 -214 525 -144 508 -193 b 297 -211 408 -235 333 -222 l 306 -197 b 413 -193 313 -199 369 -204 b 417 -122 457 -182 474 -128 b 347 -125 393 -119 365 -121 l 333 -111 b 433 3 361 -78 404 -33 b 149 182 314 6 199 63 b 199 569 92 313 139 453 b 71 632 154 582 103 604 b 194 943 -71 757 39 911 b 453 892 285 963 382 946 m 538 774 b 476 846 519 803 499 824 b 267 576 385 768 329 678 b 886 790 476 525 747 622 b 897 988 926 846 960 938 b 706 999 857 1019 774 1026 b 493 857 639 971 554 915 b 558 785 513 840 538 815 l 538 774 m 438 875 b 210 922 371 924 288 938 b 86 650 83 901 -46 763 b 204 589 121 622 168 604 b 438 875 267 693 346 796 "},"È":{"ha":756,"x_min":0,"x_max":0,"o":"m 696 1068 l 669 1064 l 465 1156 l 526 1188 m 381 735 b 801 807 514 683 700 701 b 785 997 869 868 869 964 b 510 926 696 1032 576 982 b 571 825 529 900 558 847 l 549 813 b 493 908 540 831 510 894 b 381 735 436 858 397 797 m 464 942 b 206 964 358 1053 229 1015 b 353 744 174 896 229 797 b 464 942 368 818 408 892 m 482 958 b 761 1032 561 1021 667 1053 b 819 790 890 997 903 874 b 374 711 713 679 521 663 b 397 599 374 674 381 633 b 504 599 431 606 471 611 b 499 522 549 579 543 528 b 388 579 453 515 408 543 l 381 579 b 113 379 257 550 174 493 b 246 35 39 229 83 63 b 601 188 369 13 542 64 b 588 365 628 242 629 314 b 363 358 526 426 425 404 b 224 128 297 303 240 219 l 203 133 b 353 375 224 224 274 319 b 643 375 425 436 576 460 b 633 181 692 319 672 243 b 246 0 551 54 390 -14 b 15 314 83 15 -29 139 b 374 593 60 482 211 567 b 353 724 353 633 347 679 b 183 971 206 779 150 896 b 482 958 224 1049 368 1072 "},"É":{"ha":756,"x_min":0,"x_max":0,"o":"m 381 735 b 801 807 514 683 700 701 b 785 997 869 868 869 964 b 510 926 696 1032 576 982 b 571 825 529 900 558 847 l 549 813 b 493 908 540 831 510 894 b 381 735 436 858 397 797 m 464 942 b 206 964 358 1053 229 1015 b 353 744 174 896 229 797 b 464 942 368 818 408 892 m 482 958 b 761 1032 561 1021 667 1053 b 819 790 890 997 903 874 b 374 711 713 679 521 663 b 397 599 374 674 381 633 b 504 599 431 606 471 611 b 499 522 549 579 543 528 b 388 579 453 515 408 543 l 381 579 b 113 379 257 550 174 493 b 246 35 39 229 83 63 b 601 188 369 13 542 64 b 588 365 628 242 629 314 b 363 358 526 426 425 404 b 224 128 297 303 240 219 l 203 133 b 353 375 224 224 274 319 b 643 375 425 436 576 460 b 633 181 692 319 672 243 b 246 0 551 54 390 -14 b 15 314 83 15 -29 139 b 374 593 60 482 211 567 b 353 724 353 633 347 679 b 183 971 206 779 150 896 b 482 958 224 1049 368 1072 m 485 1064 l 458 1068 l 628 1188 l 689 1156 "},"Ê":{"ha":756,"x_min":0,"x_max":0,"o":"m 381 735 b 801 807 514 683 700 701 b 785 997 869 868 869 964 b 510 926 696 1032 576 982 b 571 825 529 900 558 847 l 549 813 b 493 908 540 831 510 894 b 381 735 436 858 397 797 m 464 942 b 206 964 358 1053 229 1015 b 353 744 174 896 229 797 b 464 942 368 818 408 892 m 482 958 b 761 1032 561 1021 667 1053 b 819 790 890 997 903 874 b 374 711 713 679 521 663 b 397 599 374 674 381 633 b 504 599 431 606 471 611 b 499 522 549 579 543 528 b 388 579 453 515 408 543 l 381 579 b 113 379 257 550 174 493 b 246 35 39 229 83 63 b 601 188 369 13 542 64 b 588 365 628 242 629 314 b 363 358 526 426 425 404 b 224 128 297 303 240 219 l 203 133 b 353 375 224 224 274 319 b 643 375 425 436 576 460 b 633 181 692 319 672 243 b 246 0 551 54 390 -14 b 15 314 83 15 -29 139 b 374 593 60 482 211 567 b 353 724 353 633 347 679 b 183 971 206 779 150 896 b 482 958 224 1049 368 1072 m 710 1222 l 722 1228 l 736 1217 l 863 1082 l 851 1065 l 703 1171 l 565 1082 l 551 1103 "},"Ë":{"ha":756,"x_min":0,"x_max":0,"o":"m 560 1190 b 611 1144 586 1190 611 1171 b 560 1094 611 1118 586 1094 b 510 1144 529 1094 510 1118 b 560 1190 510 1171 529 1190 m 742 1190 b 793 1144 768 1190 793 1171 b 742 1094 793 1118 768 1094 b 692 1144 711 1094 692 1118 b 742 1190 692 1171 711 1190 m 381 735 b 801 807 514 683 700 701 b 785 997 869 868 869 964 b 510 926 696 1032 576 982 b 571 825 529 900 558 847 l 549 813 b 493 908 540 831 510 894 b 381 735 436 858 397 797 m 464 942 b 206 964 358 1053 229 1015 b 353 744 174 896 229 797 b 464 942 368 818 408 892 m 482 958 b 761 1032 561 1021 667 1053 b 819 790 890 997 903 874 b 374 711 713 679 521 663 b 397 599 374 674 381 633 b 504 599 431 606 471 611 b 499 522 549 579 543 528 b 388 579 453 515 408 543 l 381 579 b 113 379 257 550 174 493 b 246 35 39 229 83 63 b 601 188 369 13 542 64 b 588 365 628 242 629 314 b 363 358 526 426 425 404 b 224 128 297 303 240 219 l 203 133 b 353 375 224 224 274 319 b 643 375 425 436 576 460 b 633 181 692 319 672 243 b 246 0 551 54 390 -14 b 15 314 83 15 -29 139 b 374 593 60 482 211 567 b 353 724 353 633 347 679 b 183 971 206 779 150 896 b 482 958 224 1049 368 1072 "},"Ì":{"ha":657,"x_min":0,"x_max":0,"o":"m 1015 1068 l 989 1064 l 785 1156 l 846 1188 m 426 444 b 376 510 404 467 389 489 b 244 547 328 499 279 510 b 244 783 185 614 211 718 b 953 1019 371 1015 724 1086 b 1014 1004 975 1015 997 1008 l 1014 1003 b 1046 1008 1022 1007 1033 1008 b 1107 982 1081 1008 1107 997 b 1014 971 1107 939 1036 954 b 1013 972 1013 971 1013 972 b 590 439 779 892 692 660 b 175 10 519 285 404 32 b 38 279 19 0 -57 154 b 433 404 97 361 224 428 l 426 383 b 58 268 229 404 114 346 b 158 32 -24 160 32 32 b 536 450 339 38 465 313 b 983 988 638 665 753 896 b 949 997 971 992 961 993 b 267 772 724 1064 389 992 b 261 560 233 714 207 619 b 365 525 283 532 328 525 b 508 867 296 663 376 811 b 657 767 586 894 675 878 b 399 510 635 651 514 542 b 443 458 411 493 426 476 l 426 444 m 389 532 b 635 772 492 554 618 663 b 514 844 653 860 575 867 b 389 532 393 794 317 658 "},"Í":{"ha":657,"x_min":0,"x_max":0,"o":"m 663 1064 l 636 1068 l 806 1188 l 867 1156 m 426 444 b 376 510 404 467 389 489 b 244 547 328 499 279 510 b 244 783 185 614 211 718 b 953 1019 371 1015 724 1086 b 1014 1004 975 1015 997 1008 l 1014 1003 b 1046 1008 1022 1007 1033 1008 b 1107 982 1081 1008 1107 997 b 1014 971 1107 939 1036 954 b 1013 972 1013 971 1013 972 b 590 439 779 892 692 660 b 175 10 519 285 404 32 b 38 279 19 0 -57 154 b 433 404 97 361 224 428 l 426 383 b 58 268 229 404 114 346 b 158 32 -24 160 32 32 b 536 450 339 38 465 313 b 983 988 638 665 753 896 b 949 997 971 992 961 993 b 267 772 724 1064 389 992 b 261 560 233 714 207 619 b 365 525 283 532 328 525 b 508 867 296 663 376 811 b 657 767 586 894 675 878 b 399 510 635 651 514 542 b 443 458 411 493 426 476 l 426 444 m 389 532 b 635 772 492 554 618 663 b 514 844 653 860 575 867 b 389 532 393 794 317 658 "},"Î":{"ha":657,"x_min":0,"x_max":0,"o":"m 426 444 b 376 510 404 467 389 489 b 244 547 328 499 279 510 b 244 783 185 614 211 718 b 953 1019 371 1015 724 1086 b 1014 1004 975 1015 997 1008 l 1014 1003 b 1046 1008 1022 1007 1033 1008 b 1107 982 1081 1008 1107 997 b 1014 971 1107 939 1036 954 b 1013 972 1013 971 1013 972 b 590 439 779 892 692 660 b 175 10 519 285 404 32 b 38 279 19 0 -57 154 b 433 404 97 361 224 428 l 426 383 b 58 268 229 404 114 346 b 158 32 -24 160 32 32 b 536 450 339 38 465 313 b 983 988 638 665 753 896 b 949 997 971 992 961 993 b 267 772 724 1064 389 992 b 261 560 233 714 207 619 b 365 525 283 532 328 525 b 508 867 296 663 376 811 b 657 767 586 894 675 878 b 399 510 635 651 514 542 b 443 458 411 493 426 476 l 426 444 m 389 532 b 635 772 492 554 618 663 b 514 844 653 860 575 867 b 389 532 393 794 317 658 m 826 1222 l 839 1228 l 853 1217 l 979 1082 l 968 1065 l 819 1171 l 682 1082 l 668 1103 "},"Ï":{"ha":657,"x_min":0,"x_max":0,"o":"m 819 1190 b 871 1144 846 1190 871 1171 b 819 1094 871 1118 846 1094 b 769 1144 789 1094 769 1118 b 819 1190 769 1171 789 1190 m 1001 1190 b 1053 1144 1028 1190 1053 1171 b 1001 1094 1053 1118 1028 1094 b 951 1144 971 1094 951 1118 b 1001 1190 951 1171 971 1190 m 426 444 b 376 510 404 467 389 489 b 244 547 328 499 279 510 b 244 783 185 614 211 718 b 953 1019 371 1015 724 1086 b 1014 1004 975 1015 997 1008 l 1014 1003 b 1046 1008 1022 1007 1033 1008 b 1107 982 1081 1008 1107 997 b 1014 971 1107 939 1036 954 b 1013 972 1013 971 1013 972 b 590 439 779 892 692 660 b 175 10 519 285 404 32 b 38 279 19 0 -57 154 b 433 404 97 361 224 428 l 426 383 b 58 268 229 404 114 346 b 158 32 -24 160 32 32 b 536 450 339 38 465 313 b 983 988 638 665 753 896 b 949 997 971 992 961 993 b 267 772 724 1064 389 992 b 261 560 233 714 207 619 b 365 525 283 532 328 525 b 508 867 296 663 376 811 b 657 767 586 894 675 878 b 399 510 635 651 514 542 b 443 458 411 493 426 476 l 426 444 m 389 532 b 635 772 492 554 618 663 b 514 844 653 860 575 867 b 389 532 393 794 317 658 "},"Ð":{"ha":1221,"x_min":0,"x_max":0,"o":"m 536 442 b 978 974 638 653 750 881 b 926 994 960 983 942 990 b 232 768 697 1057 354 989 b 229 551 201 707 178 608 b 333 519 257 525 294 514 b 476 856 263 658 344 801 b 626 763 556 890 649 874 b 365 501 610 646 482 531 b 410 447 383 486 394 469 l 399 436 b 344 497 378 453 361 475 b 211 535 299 492 244 497 b 217 779 157 601 178 707 b 931 1017 339 1006 693 1083 b 1008 986 958 1007 985 999 b 1179 1017 1060 1003 1115 1014 l 1185 994 b 1035 968 1129 992 1079 982 b 1174 408 1213 847 1229 603 b 753 -6 1118 226 986 -6 b 588 154 656 -6 588 61 b 1035 542 588 365 821 597 l 1031 519 b 610 154 831 575 610 353 b 753 15 610 71 669 15 b 1113 414 935 21 1064 242 b 1011 960 1167 607 1168 836 b 597 431 786 874 697 643 l 585 406 l 657 407 l 610 325 l 549 331 b 178 0 474 185 364 17 b 0 158 67 -12 -6 64 b 40 269 1 194 14 233 b 60 293 46 278 53 286 l 72 275 l 56 254 b 21 157 33 222 22 189 b 163 21 17 81 71 17 b 488 336 306 21 415 193 l 188 367 l 207 403 l 519 406 m 354 525 b 604 768 467 547 588 658 b 482 840 621 856 549 861 b 354 525 361 786 290 653 "},"Ñ":{"ha":1032,"x_min":0,"x_max":0,"o":"m 1501 1014 b 939 446 1189 976 1058 700 b 588 24 849 244 760 47 b 1063 953 879 299 804 736 b 1113 982 1088 949 1114 951 b 1021 997 1111 1011 1046 1018 b 961 1019 1008 1004 983 1014 b 253 781 729 1083 378 1008 b 247 543 215 711 193 608 b 383 500 281 506 333 494 b 432 435 394 478 410 457 l 447 451 b 406 506 432 472 415 489 b 664 765 518 533 642 646 b 513 863 681 874 589 894 b 372 522 383 808 301 657 b 264 554 333 522 292 528 b 275 769 215 614 243 711 b 956 997 394 993 735 1057 b 1001 981 972 993 986 989 b 540 435 760 893 644 657 b 193 18 443 240 356 57 b 42 67 118 8 69 29 b 53 251 6 121 17 196 b 432 371 113 326 232 388 l 432 392 b 36 263 226 414 96 343 b 26 51 -10 200 -18 115 b 193 -3 58 8 113 -19 b 557 425 372 40 458 225 b 1031 964 664 644 776 888 b 1035 963 1032 964 1033 963 b 538 10 715 694 769 253 l 561 0 b 961 435 761 8 861 218 b 1501 993 1075 685 1204 954 l 1501 1014 m 394 528 b 524 842 324 651 400 792 b 642 769 583 868 658 857 b 394 528 621 657 501 549 m 1326 1164 b 831 1135 1188 1039 974 1260 l 818 1151 b 1317 1175 1008 1336 1186 1094 l 1326 1164 "},"Ò":{"ha":797,"x_min":0,"x_max":0,"o":"m 876 824 b 622 1013 842 943 739 1011 b 254 783 482 1007 347 914 b 128 126 124 607 8 338 b 365 46 182 36 268 3 b 533 881 193 258 276 764 b 664 899 571 897 617 913 b 697 369 843 843 763 501 b 411 36 618 196 513 85 b 639 -22 468 -14 538 -33 l 643 -44 b 386 21 531 -62 443 -35 b 57 118 267 -26 129 -1 b 617 1036 -132 449 236 1035 b 901 829 753 1035 865 958 l 876 824 m 394 56 b 672 382 490 103 597 210 b 656 846 726 497 801 826 b 583 838 632 853 607 849 b 394 56 317 746 211 263 l 394 56 m 822 1068 l 796 1064 l 592 1156 l 653 1188 "},"Ó":{"ha":797,"x_min":0,"x_max":0,"o":"m 568 1064 l 542 1068 l 711 1188 l 772 1156 m 876 824 b 622 1013 842 943 739 1011 b 254 783 482 1007 347 914 b 128 126 124 607 8 338 b 365 46 182 36 268 3 b 533 881 193 258 276 764 b 664 899 571 897 617 913 b 697 369 843 843 763 501 b 411 36 618 196 513 85 b 639 -22 468 -14 538 -33 l 643 -44 b 386 21 531 -62 443 -35 b 57 118 267 -26 129 -1 b 617 1036 -132 449 236 1035 b 901 829 753 1035 865 958 l 876 824 m 394 56 b 672 382 490 103 597 210 b 656 846 726 497 801 826 b 583 838 632 853 607 849 b 394 56 317 746 211 263 l 394 56 "},"Ô":{"ha":797,"x_min":0,"x_max":0,"o":"m 876 824 b 622 1013 842 943 739 1011 b 254 783 482 1007 347 914 b 128 126 124 607 8 338 b 365 46 182 36 268 3 b 533 881 193 258 276 764 b 664 899 571 897 617 913 b 697 369 843 843 763 501 b 411 36 618 196 513 85 b 639 -22 468 -14 538 -33 l 643 -44 b 386 21 531 -62 443 -35 b 57 118 267 -26 129 -1 b 617 1036 -132 449 236 1035 b 901 829 753 1035 865 958 l 876 824 m 394 56 b 672 382 490 103 597 210 b 656 846 726 497 801 826 b 583 838 632 853 607 849 b 394 56 317 746 211 263 l 394 56 m 614 1222 l 626 1228 l 640 1217 l 767 1082 l 756 1065 l 607 1171 l 469 1082 l 456 1103 "},"Õ":{"ha":797,"x_min":0,"x_max":0,"o":"m 876 824 b 622 1013 842 943 739 1011 b 254 783 482 1007 347 914 b 128 126 124 607 8 338 b 365 46 182 36 268 3 b 533 881 193 258 276 764 b 664 899 571 897 617 913 b 697 369 843 843 763 501 b 411 36 618 196 513 85 b 639 -22 468 -14 538 -33 l 643 -44 b 386 21 531 -62 443 -35 b 57 118 267 -26 129 -1 b 617 1036 -132 449 236 1035 b 901 829 753 1035 865 958 l 876 824 m 394 56 b 672 382 490 103 597 210 b 656 846 726 497 801 826 b 583 838 632 853 607 849 b 394 56 317 746 211 263 m 889 1164 b 393 1135 750 1039 536 1260 l 381 1151 b 879 1175 571 1336 749 1094 l 889 1164 "},"Ö":{"ha":797,"x_min":0,"x_max":0,"o":"m 592 1247 b 643 1201 618 1247 643 1228 b 592 1151 643 1175 618 1151 b 542 1201 561 1151 542 1175 b 592 1247 542 1228 561 1247 m 774 1247 b 825 1201 800 1247 825 1228 b 774 1151 825 1175 800 1151 b 724 1201 743 1151 724 1175 b 774 1247 724 1228 743 1247 m 876 824 b 622 1013 842 943 739 1011 b 254 783 482 1007 347 914 b 128 126 124 607 8 338 b 365 46 182 36 268 3 b 533 881 193 258 276 764 b 664 899 571 897 617 913 b 697 369 843 843 763 501 b 411 36 618 196 513 85 b 639 -22 468 -14 538 -33 l 643 -44 b 386 21 531 -62 443 -35 b 57 118 267 -26 129 -1 b 617 1036 -132 449 236 1035 b 901 829 753 1035 865 958 l 876 824 m 394 56 b 672 382 490 103 597 210 b 656 846 726 497 801 826 b 583 838 632 853 607 849 b 394 56 317 746 211 263 l 394 56 "},"×":{"ha":685,"x_min":0,"x_max":0,"o":"m 400 296 l 464 113 l 438 81 l 357 253 l 221 125 l 207 163 l 331 310 l 256 467 l 318 538 l 375 365 l 494 508 l 526 419 "},"Ø":{"ha":797,"x_min":0,"x_max":0,"o":"m 876 824 b 749 981 854 896 808 950 l 703 879 b 697 369 829 788 757 490 b 411 36 618 196 513 85 b 639 -22 468 -14 538 -33 l 643 -44 b 386 21 531 -62 443 -35 b 304 0 360 10 332 3 l 238 -147 l 186 -147 l 244 0 b 57 118 169 7 101 44 b 617 1036 -132 449 236 1035 b 654 1033 629 1036 642 1035 l 688 1117 l 810 1117 l 758 1003 b 901 829 826 969 879 908 l 876 824 m 622 1013 b 254 783 482 1007 347 914 b 128 126 124 607 8 338 b 256 29 160 71 204 38 l 306 156 b 533 881 221 397 314 781 b 603 903 554 889 578 899 l 646 1011 b 622 1013 638 1011 629 1013 m 394 56 b 672 382 490 103 597 210 b 683 836 722 489 790 781 l 354 113 b 394 56 365 92 379 72 m 575 835 b 321 194 363 754 256 425 l 575 835 m 365 46 b 340 81 356 57 349 68 l 318 31 b 365 46 333 33 349 39 "},"Ù":{"ha":982,"x_min":0,"x_max":0,"o":"m 946 567 b 771 153 876 411 788 208 b 790 22 751 90 751 35 b 982 285 886 17 949 211 l 1003 285 b 790 1 971 200 903 -6 b 713 157 713 11 689 107 l 742 232 b 571 38 699 157 646 85 b 353 157 435 -40 313 35 b 553 631 374 231 493 500 b 611 900 593 715 619 810 b 464 1019 593 978 542 1019 b 64 776 313 1019 131 907 b 106 529 25 704 -10 557 b 161 522 121 522 142 522 b 219 815 110 629 143 742 b 435 868 274 865 368 914 b 421 676 492 828 458 731 b 199 507 369 599 283 532 b 246 456 208 490 228 474 l 228 438 b 176 507 204 463 190 486 b 99 507 149 500 121 500 b 43 788 -32 540 -3 704 b 464 1040 117 929 306 1040 b 668 900 553 1040 657 992 b 611 619 682 800 649 708 b 414 153 549 486 431 219 b 553 61 379 61 460 11 b 742 281 638 107 693 201 b 838 457 774 336 807 399 b 1313 1028 1029 867 1135 1064 b 1410 840 1401 1006 1418 911 b 1229 603 1396 760 1342 675 l 1213 619 b 1385 843 1325 693 1374 771 b 1296 1003 1386 903 1375 994 b 946 567 1140 1003 1003 694 m 190 529 b 399 683 267 546 350 611 b 417 851 429 728 465 818 b 235 799 364 886 276 836 b 190 529 163 732 135 626 m 743 233 b 742 232 742 233 743 232 l 743 233 m 1035 1125 l 1008 1121 l 804 1213 l 865 1244 "},"Ú":{"ha":982,"x_min":0,"x_max":0,"o":"m 831 1121 l 804 1125 l 974 1244 l 1035 1213 m 946 567 b 771 153 876 411 788 208 b 790 22 751 90 751 35 b 982 285 886 17 949 211 l 1003 285 b 790 1 971 200 903 -6 b 713 157 713 11 689 107 l 742 232 b 571 38 699 157 646 85 b 353 157 435 -40 313 35 b 553 631 374 231 493 500 b 611 900 593 715 619 810 b 464 1019 593 978 542 1019 b 64 776 313 1019 131 907 b 106 529 25 704 -10 557 b 161 522 121 522 142 522 b 219 815 110 629 143 742 b 435 868 274 865 368 914 b 421 676 492 828 458 731 b 199 507 369 599 283 532 b 246 456 208 490 228 474 l 228 438 b 176 507 204 463 190 486 b 99 507 149 500 121 500 b 43 788 -32 540 -3 704 b 464 1040 117 929 306 1040 b 668 900 553 1040 657 992 b 611 619 682 800 649 708 b 414 153 549 486 431 219 b 553 61 379 61 460 11 b 742 281 638 107 693 201 b 838 457 774 336 807 399 b 1313 1028 1029 867 1135 1064 b 1410 840 1401 1006 1418 911 b 1229 603 1396 760 1342 675 l 1213 619 b 1385 843 1325 693 1374 771 b 1296 1003 1386 903 1375 994 b 946 567 1140 1003 1003 694 m 190 529 b 399 683 267 546 350 611 b 417 851 429 728 465 818 b 235 799 364 886 276 836 b 190 529 163 732 135 626 m 743 233 b 742 232 742 233 743 232 l 743 233 "},"Û":{"ha":982,"x_min":0,"x_max":0,"o":"m 946 567 b 771 153 876 411 788 208 b 790 22 751 90 751 35 b 982 285 886 17 949 211 l 1003 285 b 790 1 971 200 903 -6 b 713 157 713 11 689 107 l 742 232 b 571 38 699 157 646 85 b 353 157 435 -40 313 35 b 553 631 374 231 493 500 b 611 900 593 715 619 810 b 464 1019 593 978 542 1019 b 64 776 313 1019 131 907 b 106 529 25 704 -10 557 b 161 522 121 522 142 522 b 219 815 110 629 143 742 b 435 868 274 865 368 914 b 421 676 492 828 458 731 b 199 507 369 599 283 532 b 246 456 208 490 228 474 l 228 438 b 176 507 204 463 190 486 b 99 507 149 500 121 500 b 43 788 -32 540 -3 704 b 464 1040 117 929 306 1040 b 668 900 553 1040 657 992 b 611 619 682 800 649 708 b 414 153 549 486 431 219 b 553 61 379 61 460 11 b 742 281 638 107 693 201 b 838 457 774 336 807 399 b 1313 1028 1029 867 1135 1064 b 1410 840 1401 1006 1418 911 b 1229 603 1396 760 1342 675 l 1213 619 b 1385 843 1325 693 1374 771 b 1296 1003 1386 903 1375 994 b 946 567 1140 1003 1003 694 m 190 529 b 399 683 267 546 350 611 b 417 851 429 728 465 818 b 235 799 364 886 276 836 b 190 529 163 732 135 626 m 743 233 b 742 232 742 233 743 232 l 743 233 m 896 1222 l 908 1228 l 922 1217 l 1049 1082 l 1038 1065 l 889 1171 l 751 1082 l 738 1103 "},"Ü":{"ha":982,"x_min":0,"x_max":0,"o":"m 863 1247 b 914 1201 889 1247 914 1228 b 863 1151 914 1175 889 1151 b 813 1201 832 1151 813 1175 b 863 1247 813 1228 832 1247 m 1044 1247 b 1096 1201 1071 1247 1096 1228 b 1044 1151 1096 1175 1071 1151 b 994 1201 1014 1151 994 1175 b 1044 1247 994 1228 1014 1247 m 946 567 b 771 153 876 411 788 208 b 790 22 751 90 751 35 b 982 285 886 17 949 211 l 1003 285 b 790 1 971 200 903 -6 b 713 157 713 11 689 107 l 742 232 b 571 38 699 157 646 85 b 353 157 435 -40 313 35 b 553 631 374 231 493 500 b 611 900 593 715 619 810 b 464 1019 593 978 542 1019 b 64 776 313 1019 131 907 b 106 529 25 704 -10 557 b 161 522 121 522 142 522 b 219 815 110 629 143 742 b 435 868 274 865 368 914 b 421 676 492 828 458 731 b 199 507 369 599 283 532 b 246 456 208 490 228 474 l 228 438 b 176 507 204 463 190 486 b 99 507 149 500 121 500 b 43 788 -32 540 -3 704 b 464 1040 117 929 306 1040 b 668 900 553 1040 657 992 b 611 619 682 800 649 708 b 414 153 549 486 431 219 b 553 61 379 61 460 11 b 742 281 638 107 693 201 b 838 457 774 336 807 399 b 1313 1028 1029 867 1135 1064 b 1410 840 1401 1006 1418 911 b 1229 603 1396 760 1342 675 l 1213 619 b 1385 843 1325 693 1374 771 b 1296 1003 1386 903 1375 994 b 946 567 1140 1003 1003 694 m 190 529 b 399 683 267 546 350 611 b 417 851 429 728 465 818 b 235 799 364 886 276 836 b 190 529 163 732 135 626 m 743 233 b 742 232 742 233 743 232 l 743 233 "},"Ý":{"ha":967,"x_min":0,"x_max":0,"o":"m 876 1121 l 850 1125 l 1019 1244 l 1081 1213 m 571 99 b 185 -21 367 121 242 60 b 293 -265 106 -135 163 -265 b 622 54 435 -265 549 -94 b 778 353 674 153 726 251 b 692 282 751 325 724 300 b 469 407 560 201 429 276 b 560 606 492 475 497 475 b 617 879 600 690 629 788 b 469 999 606 958 549 999 b 65 754 315 999 133 885 b 106 504 25 681 -10 532 b 167 497 126 497 144 497 b 310 844 93 640 179 793 b 469 747 394 879 486 863 b 201 481 439 631 321 511 b 247 429 213 464 231 446 l 231 413 b 179 481 207 435 190 458 b 99 481 150 475 126 475 b 42 765 -32 514 -4 681 b 469 1021 122 903 310 1021 b 681 879 560 1021 663 969 b 617 594 692 776 663 686 b 532 394 556 458 556 464 b 674 310 497 304 578 253 b 861 521 753 351 813 438 b 1289 982 956 714 1074 907 b 1294 953 1294 969 1294 964 b 903 481 1090 879 999 681 b 697 60 839 338 765 196 b 310 -287 622 -94 504 -271 b 167 -10 150 -300 71 -140 b 571 121 231 76 361 144 l 571 99 m 190 504 b 446 754 304 528 424 644 b 321 828 464 844 383 851 b 190 504 196 776 117 635 "},"Þ":{"ha":682,"x_min":0,"x_max":0,"o":"m 315 639 b 372 649 333 644 351 649 b 517 376 501 639 518 474 b 328 99 510 271 472 125 b 293 101 315 97 304 99 l 283 -121 l 236 -140 l 217 903 l 329 950 m 340 618 b 314 610 331 617 322 614 l 294 135 b 332 133 306 131 318 129 b 442 358 413 154 440 267 b 340 618 450 438 438 614 "},"|":{"ha":515,"x_min":0,"x_max":0,"o":"m 283 -178 l 236 -197 l 217 846 l 329 893 "},"ß":{"ha":790,"x_min":0,"x_max":0,"o":"m 64 107 b 542 250 263 -99 481 97 b 264 553 613 457 467 546 l 275 586 b 517 747 372 621 457 685 b 611 911 569 804 601 847 b 528 1019 618 965 596 1011 b 178 582 404 1033 289 832 l 72 338 l 31 231 b -67 -17 -6 135 -35 54 b -464 -210 -137 -174 -281 -356 l -449 -194 b -135 -21 -307 -328 -193 -146 b -4 299 -94 65 -58 168 b 528 1039 139 665 310 1063 b 635 918 603 1031 639 981 b 558 756 629 857 601 808 b 329 575 496 679 407 608 b 629 221 529 553 676 435 b 38 101 549 -15 217 -128 l 64 107 "},"à":{"ha":506,"x_min":0,"x_max":0,"o":"m 406 390 b 296 147 369 311 322 233 b 317 22 279 88 278 31 b 506 285 410 17 475 211 l 529 285 b 314 0 494 201 424 -6 b 231 104 260 4 233 56 b 38 1 182 31 113 -10 b -61 125 -25 11 -61 64 b 108 388 -58 218 14 340 b 258 397 154 413 221 411 b 326 351 282 388 304 374 l 343 390 l 406 390 m 314 329 b 251 375 293 351 272 367 b 156 367 219 388 186 381 b 0 122 69 325 10 218 b 46 28 -6 78 13 42 b 242 165 132 -6 208 99 b 314 329 261 224 288 275 m 406 492 l 379 488 l 175 579 l 236 611 "},"á":{"ha":506,"x_min":0,"x_max":0,"o":"m 201 488 l 175 492 l 344 611 l 406 579 m 406 390 b 296 147 369 311 322 233 b 317 22 279 88 278 31 b 506 285 410 17 475 211 l 529 285 b 314 0 494 201 424 -6 b 231 104 260 4 233 56 b 38 1 182 31 113 -10 b -61 125 -25 11 -61 64 b 108 388 -58 218 14 340 b 258 397 154 413 221 411 b 326 351 282 388 304 374 l 343 390 l 406 390 m 314 329 b 251 375 293 351 272 367 b 156 367 219 388 186 381 b 0 122 69 325 10 218 b 46 28 -6 78 13 42 b 242 165 132 -6 208 99 b 314 329 261 224 288 275 "},"â":{"ha":506,"x_min":0,"x_max":0,"o":"m 406 390 b 296 147 369 311 322 233 b 317 22 279 88 278 31 b 506 285 410 17 475 211 l 529 285 b 314 0 494 201 424 -6 b 231 104 260 4 233 56 b 38 1 182 31 113 -10 b -61 125 -25 11 -61 64 b 108 388 -58 218 14 340 b 258 397 154 413 221 411 b 326 351 282 388 304 374 l 343 390 l 406 390 m 314 329 b 251 375 293 351 272 367 b 156 367 219 388 186 381 b 0 122 69 325 10 218 b 46 28 -6 78 13 42 b 242 165 132 -6 208 99 b 314 329 261 224 288 275 m 303 618 l 315 624 l 329 613 l 456 478 l 444 461 l 296 567 l 158 478 l 144 499 "},"ã":{"ha":506,"x_min":0,"x_max":0,"o":"m 503 529 b 92 506 388 426 211 610 l 82 519 b 494 539 239 672 386 472 l 503 529 m 406 390 b 296 147 369 311 322 233 b 317 22 279 88 278 31 b 506 285 410 17 475 211 l 529 285 b 314 0 494 201 424 -6 b 231 104 260 4 233 56 b 38 1 182 31 113 -10 b -61 125 -25 11 -61 64 b 108 388 -58 218 14 340 b 258 397 154 413 221 411 b 326 351 282 388 304 374 l 343 390 l 406 390 m 314 329 b 251 375 293 351 272 367 b 156 367 219 388 186 381 b 0 122 69 325 10 218 b 46 28 -6 78 13 42 b 242 165 132 -6 208 99 b 314 329 261 224 288 275 "},"ä":{"ha":506,"x_min":0,"x_max":0,"o":"m 406 390 b 296 147 369 311 322 233 b 317 22 279 88 278 31 b 506 285 410 17 475 211 l 529 285 b 314 0 494 201 424 -6 b 231 104 260 4 233 56 b 38 1 182 31 113 -10 b -61 125 -25 11 -61 64 b 108 388 -58 218 14 340 b 258 397 154 413 221 411 b 326 351 282 388 304 374 l 343 390 l 406 390 m 314 329 b 251 375 293 351 272 367 b 156 367 219 388 186 381 b 0 122 69 325 10 218 b 46 28 -6 78 13 42 b 242 165 132 -6 208 99 b 314 329 261 224 288 275 m 208 583 b 260 538 235 583 260 564 b 208 488 260 511 235 488 b 158 538 178 488 158 511 b 208 583 158 564 178 583 m 390 583 b 442 538 417 583 442 564 b 390 488 442 511 417 488 b 340 538 360 488 340 511 b 390 583 340 564 360 583 "},"å":{"ha":506,"x_min":0,"x_max":0,"o":"m 406 390 b 296 147 369 311 322 233 b 317 22 279 88 278 31 b 506 285 410 17 475 211 l 529 285 b 314 0 494 201 424 -6 b 231 104 260 4 233 56 b 38 1 182 31 113 -10 b -61 125 -25 11 -61 64 b 108 388 -58 218 14 340 b 258 397 154 413 221 411 b 326 351 282 388 304 374 l 343 390 l 406 390 m 314 329 b 251 375 293 351 272 367 b 156 367 219 388 186 381 b 0 122 69 325 10 218 b 46 28 -6 78 13 42 b 242 165 132 -6 208 99 b 314 329 261 224 288 275 m 213 565 b 346 699 213 639 272 699 b 479 565 419 699 479 639 b 346 432 479 492 419 432 b 213 565 272 432 213 492 m 240 567 b 346 461 240 508 288 461 b 453 567 406 461 453 508 b 346 674 453 626 406 674 b 240 567 288 674 240 626 "},"æ":{"ha":640,"x_min":0,"x_max":0,"o":"m 317 193 b 313 63 306 163 289 101 b 372 25 325 40 346 26 b 640 285 510 15 589 168 l 664 285 b 365 0 614 151 524 -6 b 240 122 286 1 240 54 l 231 104 b 38 1 182 31 113 -10 b -61 125 -25 11 -61 64 b 108 388 -58 218 14 340 b 258 397 154 413 221 411 b 326 351 282 388 304 374 l 343 390 l 406 390 l 403 386 l 414 392 b 558 299 490 429 600 396 b 317 193 528 222 388 188 m 314 329 b 251 375 293 351 272 367 b 156 367 219 388 186 381 b 0 122 69 325 10 218 b 46 28 -6 78 13 42 b 242 165 132 -6 208 99 b 314 329 261 224 288 275 m 533 289 b 464 371 574 354 524 400 b 322 208 404 340 350 275 b 533 289 378 207 497 233 "},"ç":{"ha":331,"x_min":0,"x_max":0,"o":"m 217 285 b 207 372 243 326 232 360 b 85 318 167 390 113 346 b -7 122 33 267 0 192 b 64 25 -11 71 15 26 b 331 285 197 15 282 168 l 354 285 b 71 0 304 156 219 4 b 4 -107 49 -33 24 -76 b 92 -117 36 -106 69 -104 b 75 -214 142 -144 125 -193 b -86 -211 25 -235 -50 -222 l -78 -197 b 29 -193 -71 -199 -14 -204 b 33 -122 74 -182 90 -128 b -36 -125 10 -119 -18 -121 l -50 -111 b 47 0 -22 -79 18 -36 b -67 125 -25 6 -67 58 b 101 388 -65 218 10 340 b 238 285 176 425 293 390 l 217 285 "},"è":{"ha":335,"x_min":0,"x_max":0,"o":"m 228 289 b 158 371 268 354 218 400 b 17 208 99 340 44 275 b 228 289 72 207 192 233 m 11 193 b 7 63 0 163 -17 101 b 67 25 19 40 40 26 b 335 285 204 15 283 168 l 358 285 b 60 0 308 151 218 -6 b -65 125 -19 1 -65 56 b 108 392 -61 218 17 344 b 253 299 185 429 294 396 l 253 299 b 11 193 222 222 82 188 m 306 492 l 279 488 l 75 579 l 136 611 "},"é":{"ha":335,"x_min":0,"x_max":0,"o":"m 111 488 l 85 492 l 254 611 l 315 579 m 228 289 b 158 371 268 354 218 400 b 17 208 99 340 44 275 b 228 289 72 207 192 233 m 11 193 b 7 63 0 163 -17 101 b 67 25 19 40 40 26 b 335 285 204 15 283 168 l 358 285 b 60 0 308 151 218 -6 b -65 125 -19 1 -65 56 b 108 392 -61 218 17 344 b 253 299 185 429 294 396 l 253 299 b 11 193 222 222 82 188 "},"ê":{"ha":335,"x_min":0,"x_max":0,"o":"m 228 289 b 158 371 268 354 218 400 b 17 208 99 340 44 275 b 228 289 72 207 192 233 m 11 193 b 7 63 0 163 -17 101 b 67 25 19 40 40 26 b 335 285 204 15 283 168 l 358 285 b 60 0 308 151 218 -6 b -65 125 -19 1 -65 56 b 108 392 -61 218 17 344 b 253 299 185 429 294 396 l 253 299 b 11 193 222 222 82 188 m 215 618 l 228 624 l 242 613 l 368 478 l 357 461 l 208 567 l 71 478 l 57 499 "},"ë":{"ha":335,"x_min":0,"x_max":0,"o":"m 104 583 b 156 538 131 583 156 564 b 104 488 156 511 131 488 b 54 538 74 488 54 511 b 104 583 54 564 74 583 m 286 583 b 338 538 313 583 338 564 b 286 488 338 511 313 488 b 236 538 256 488 236 511 b 286 583 236 564 256 583 m 228 289 b 158 371 268 354 218 400 b 17 208 99 340 44 275 b 228 289 72 207 192 233 m 11 193 b 7 63 0 163 -17 101 b 67 25 19 40 40 26 b 335 285 204 15 283 168 l 358 285 b 60 0 308 151 218 -6 b -65 125 -19 1 -65 56 b 108 392 -61 218 17 344 b 253 299 185 429 294 396 l 253 299 b 11 193 222 222 82 188 "},"ì":{"ha":207,"x_min":0,"x_max":0,"o":"m 222 492 l 196 488 l -8 579 l 53 611 m 111 390 b 0 147 74 311 25 233 b 19 22 -19 88 -22 31 b 207 285 113 17 176 211 l 231 285 b 17 0 194 201 128 -6 b -60 157 -60 7 -83 101 b 44 390 -33 240 11 310 l 111 390 "},"í":{"ha":207,"x_min":0,"x_max":0,"o":"m 22 488 l -4 492 l 165 611 l 226 579 m 111 390 b 0 147 74 311 25 233 b 19 22 -19 88 -22 31 b 207 285 113 17 176 211 l 231 285 b 17 0 194 201 128 -6 b -60 157 -60 7 -83 101 b 44 390 -33 240 11 310 l 111 390 "},"î":{"ha":207,"x_min":0,"x_max":0,"o":"m 111 390 b 0 147 74 311 25 233 b 19 22 -19 88 -22 31 b 207 285 113 17 176 211 l 231 285 b 17 0 194 201 128 -6 b -60 157 -60 7 -83 101 b 44 390 -33 240 11 310 l 111 390 m 104 618 l 117 624 l 131 613 l 257 478 l 246 461 l 97 567 l -40 478 l -54 499 "},"ï":{"ha":207,"x_min":0,"x_max":0,"o":"m 24 583 b 75 538 50 583 75 564 b 24 488 75 511 50 488 b -26 538 -7 488 -26 511 b 24 583 -26 564 -7 583 m 206 583 b 257 538 232 583 257 564 b 206 488 257 511 232 488 b 156 538 175 488 156 511 b 206 583 156 564 175 583 m 111 390 b 0 147 74 311 25 233 b 19 22 -19 88 -22 31 b 207 285 113 17 176 211 l 231 285 b 17 0 194 201 128 -6 b -60 157 -60 7 -83 101 b 44 390 -33 240 11 310 l 111 390 "},"ð":{"ha":438,"x_min":0,"x_max":0,"o":"m 347 300 b 301 376 347 336 332 371 b 133 256 235 392 169 321 b 108 25 97 200 39 67 b 347 300 225 -14 347 200 m 72 15 b 72 271 -18 72 33 200 b 317 400 118 344 201 438 b 72 15 479 325 271 -85 m 338 529 l 378 413 l 361 392 l 310 501 l 222 419 l 214 444 l 293 538 l 244 638 l 285 683 l 321 574 l 397 665 l 418 608 "},"ñ":{"ha":533,"x_min":0,"x_max":0,"o":"m 515 529 b 104 506 400 426 224 610 l 94 519 b 507 539 251 672 399 472 l 515 529 m 321 300 b 311 381 335 342 339 378 b 108 132 247 383 160 238 l 49 0 l -18 0 l 93 242 b 118 367 111 282 142 354 b 24 285 75 382 38 313 l 0 285 b 111 403 18 326 58 390 b 169 285 185 421 182 346 b 315 406 210 342 256 401 b 375 276 392 408 396 342 b 311 100 357 218 324 164 b 344 24 306 71 308 26 b 535 285 439 18 504 215 l 558 285 b 342 0 522 206 454 -6 b 249 100 261 -1 243 49 b 321 300 251 122 258 146 "},"ò":{"ha":410,"x_min":0,"x_max":0,"o":"m 433 285 b 385 161 418 244 403 197 b 204 101 347 89 274 44 b -22 15 146 24 60 -28 b -22 257 -110 67 -61 190 b 219 399 21 331 107 438 b 217 121 303 358 283 222 b 364 172 274 74 335 114 b 410 285 379 206 397 244 l 433 285 m 190 236 b 218 189 204 236 217 214 b 242 290 233 226 242 263 b 36 246 242 457 78 333 b 13 24 6 190 -54 61 b 183 122 75 0 139 54 b 169 146 178 131 172 139 b 167 151 169 149 167 151 l 168 151 b 163 185 164 161 163 172 b 190 236 163 213 175 236 m 450 529 b 39 506 335 426 158 610 l 29 519 b 442 539 186 672 333 472 l 450 529 "},"ó":{"ha":410,"x_min":0,"x_max":0,"o":"m 433 285 b 385 161 418 244 403 197 b 204 101 347 89 274 44 b -22 15 146 24 60 -28 b -22 257 -110 67 -61 190 b 219 399 21 331 107 438 b 217 121 303 358 283 222 b 364 172 274 74 335 114 b 410 285 379 206 397 244 l 433 285 m 190 236 b 218 189 204 236 217 214 b 242 290 233 226 242 263 b 36 246 242 457 78 333 b 13 24 6 190 -54 61 b 183 122 75 0 139 54 b 169 146 178 131 172 139 b 167 151 169 149 167 151 l 168 151 b 163 185 164 161 163 172 b 190 236 163 213 175 236 m 118 488 l 92 492 l 261 611 l 322 579 "},"ô":{"ha":410,"x_min":0,"x_max":0,"o":"m 433 285 b 385 161 418 244 403 197 b 204 101 347 89 274 44 b -22 15 146 24 60 -28 b -22 257 -110 67 -61 190 b 219 399 21 331 107 438 b 217 121 303 358 283 222 b 364 172 274 74 335 114 b 410 285 379 206 397 244 l 433 285 m 190 236 b 218 189 204 236 217 214 b 242 290 233 226 242 263 b 36 246 242 457 78 333 b 13 24 6 190 -54 61 b 183 122 75 0 139 54 b 169 146 178 131 172 139 b 167 151 169 149 167 151 l 168 151 b 163 185 164 161 163 172 b 190 236 163 213 175 236 m 200 618 l 213 624 l 226 613 l 353 478 l 342 461 l 193 567 l 56 478 l 42 499 "},"õ":{"ha":410,"x_min":0,"x_max":0,"o":"m 522 529 b 111 506 407 426 231 610 l 101 519 b 514 539 258 672 406 472 l 522 529 m 347 300 b 301 376 347 336 332 371 b 133 256 235 392 169 321 b 108 25 97 200 39 67 b 347 300 225 -14 347 200 m 72 15 b 72 271 -18 72 33 200 b 317 400 118 344 201 438 b 72 15 479 325 271 -85 "},"ö":{"ha":410,"x_min":0,"x_max":0,"o":"m 433 285 b 385 161 418 244 403 197 b 204 101 347 89 274 44 b -22 15 146 24 60 -28 b -22 257 -110 67 -61 190 b 219 399 21 331 107 438 b 217 121 303 358 283 222 b 364 172 274 74 335 114 b 410 285 379 206 397 244 l 433 285 m 190 236 b 218 189 204 236 217 214 b 242 290 233 226 242 263 b 36 246 242 457 78 333 b 13 24 6 190 -54 61 b 183 122 75 0 139 54 b 169 146 178 131 172 139 b 167 151 169 149 167 151 l 168 151 b 163 185 164 161 163 172 b 190 236 163 213 175 236 m 136 583 b 188 538 163 583 188 564 b 136 488 188 511 163 488 b 86 538 106 488 86 511 b 136 583 86 564 106 583 m 318 583 b 369 538 344 583 369 564 b 318 488 369 511 344 488 b 268 538 288 488 268 511 b 318 583 268 564 288 583 "},"÷":{"ha":674,"x_min":0,"x_max":0,"o":"m 364 385 b 415 333 390 385 415 360 b 364 289 415 307 390 289 b 315 333 335 289 315 307 b 364 385 315 360 335 385 m 269 113 b 328 67 301 113 328 93 b 269 17 328 40 301 17 b 219 67 244 17 219 40 b 269 113 219 93 244 113 m 536 151 l 114 193 l 133 229 l 583 233 "},"ø":{"ha":410,"x_min":0,"x_max":0,"o":"m 72 15 b 72 271 -18 72 33 200 b 274 408 113 335 181 414 l 325 536 l 429 535 l 351 371 b 179 6 424 278 317 49 l 108 -144 l 57 -144 l 114 1 b 72 15 100 3 86 8 m 261 375 b 133 256 210 363 163 307 b 108 25 97 200 39 67 l 122 21 m 347 300 b 339 343 347 315 344 331 l 194 36 b 347 300 278 85 347 225 "},"ù":{"ha":429,"x_min":0,"x_max":0,"o":"m 314 492 l 288 488 l 83 579 l 144 611 m 329 392 b 218 150 290 313 244 232 b 236 19 197 89 194 29 b 429 285 333 14 399 213 l 453 285 b 233 -1 417 201 347 -7 b 150 96 181 1 154 49 b 17 -1 115 40 71 -4 b -60 156 -57 3 -81 101 b 49 392 -35 240 10 313 l 113 392 b 1 150 74 313 28 232 b 19 19 -19 89 -21 29 b 157 154 78 15 122 83 l 157 156 b 263 392 182 240 226 313 l 329 392 "},"ú":{"ha":429,"x_min":0,"x_max":0,"o":"m 157 488 l 131 492 l 300 611 l 361 579 m 329 392 b 218 150 290 313 244 232 b 236 19 197 89 194 29 b 429 285 333 14 399 213 l 453 285 b 233 -1 417 201 347 -7 b 150 96 181 1 154 49 b 17 -1 115 40 71 -4 b -60 156 -57 3 -81 101 b 49 392 -35 240 10 313 l 113 392 b 1 150 74 313 28 232 b 19 19 -19 89 -21 29 b 157 154 78 15 122 83 l 157 156 b 263 392 182 240 226 313 l 329 392 "},"û":{"ha":429,"x_min":0,"x_max":0,"o":"m 329 392 b 218 150 290 313 244 232 b 236 19 197 89 194 29 b 429 285 333 14 399 213 l 453 285 b 233 -1 417 201 347 -7 b 150 96 181 1 154 49 b 17 -1 115 40 71 -4 b -60 156 -57 3 -81 101 b 49 392 -35 240 10 313 l 113 392 b 1 150 74 313 28 232 b 19 19 -19 89 -21 29 b 157 154 78 15 122 83 l 157 156 b 263 392 182 240 226 313 l 329 392 m 207 618 l 219 624 l 233 613 l 360 478 l 349 461 l 200 567 l 63 478 l 49 499 "},"ü":{"ha":429,"x_min":0,"x_max":0,"o":"m 329 392 b 218 150 290 313 244 232 b 236 19 197 89 194 29 b 429 285 333 14 399 213 l 453 285 b 233 -1 417 201 347 -7 b 150 96 181 1 154 49 b 17 -1 115 40 71 -4 b -60 156 -57 3 -81 101 b 49 392 -35 240 10 313 l 113 392 b 1 150 74 313 28 232 b 19 19 -19 89 -21 29 b 157 154 78 15 122 83 l 157 156 b 263 392 182 240 226 313 l 329 392 m 146 583 b 197 538 172 583 197 564 b 146 488 197 511 172 488 b 96 538 115 488 96 511 b 146 583 96 564 115 583 m 328 583 b 379 538 354 583 379 564 b 328 488 379 511 354 488 b 278 538 297 488 278 511 b 328 583 278 564 297 583 "},"ý":{"ha":360,"x_min":0,"x_max":0,"o":"m 135 488 l 108 492 l 278 611 l 339 579 m 146 -25 b -53 -412 86 -164 21 -306 b -443 -653 -125 -532 -244 -672 b -653 -496 -557 -643 -628 -579 b -650 -326 -668 -443 -668 -385 b -554 -160 -636 -267 -603 -207 b 7 -56 -444 -39 -253 29 b -1 -78 4 -64 0 -71 b -537 -174 -250 4 -432 -64 b -631 -331 -581 -219 -612 -275 b -633 -490 -644 -385 -644 -440 b -439 -631 -610 -564 -547 -622 b -111 -400 -290 -631 -193 -519 b 86 -8 -37 -292 29 -151 l 108 44 b 17 -1 82 15 51 -3 b -61 153 -61 7 -83 106 b 46 390 -33 242 8 311 l 111 390 b -1 149 74 311 25 235 b 19 21 -19 89 -21 29 b 151 150 74 19 118 82 l 256 390 l 321 390 b 146 -25 260 251 204 113 "},"ÿ":{"ha":360,"x_min":0,"x_max":0,"o":"m 113 583 b 164 538 139 583 164 564 b 113 488 164 511 139 488 b 63 538 82 488 63 511 b 113 583 63 564 82 583 m 294 583 b 346 538 321 583 346 564 b 294 488 346 511 321 488 b 244 538 264 488 244 511 b 294 583 244 564 264 583 m 146 -25 b -53 -412 86 -164 21 -306 b -443 -653 -125 -532 -244 -672 b -653 -496 -557 -643 -628 -579 b -650 -326 -668 -443 -668 -385 b -554 -160 -636 -267 -603 -207 b 7 -56 -444 -39 -253 29 b -1 -78 4 -64 0 -71 b -537 -174 -250 4 -432 -64 b -631 -331 -581 -219 -612 -275 b -633 -490 -644 -385 -644 -440 b -439 -631 -610 -564 -547 -622 b -111 -400 -290 -631 -193 -519 b 86 -8 -37 -292 29 -151 l 108 44 b 17 -1 82 15 51 -3 b -61 153 -61 7 -83 106 b 46 390 -33 242 8 311 l 111 390 b -1 149 74 311 25 235 b 19 21 -19 89 -21 29 b 151 150 74 19 118 82 l 256 390 l 321 390 b 146 -25 260 251 204 113 "},"þ":{"ha":657,"x_min":0,"x_max":0,"o":"m 315 639 b 372 649 333 644 351 649 b 517 376 501 639 518 474 b 328 99 510 271 472 125 b 293 101 315 97 304 99 l 283 -121 l 236 -140 l 217 903 l 329 950 m 340 618 b 314 610 331 617 322 614 l 294 135 b 332 133 306 131 318 129 b 442 358 413 154 440 267 b 340 618 450 438 438 614 "},"ƒ":{"ha":275,"x_min":0,"x_max":0,"o":"m -639 -267 b -472 -362 -608 -319 -554 -357 b -144 -136 -321 -361 -221 -251 b 97 358 -53 3 25 189 b 185 564 104 381 132 457 b 426 1015 249 704 332 925 b 585 1024 476 1063 532 1078 l 567 1010 b 417 940 521 1067 465 1018 b 239 564 390 897 264 629 l 154 351 b -85 -149 83 179 6 -8 b -472 -386 -156 -267 -275 -403 b -658 -278 -564 -378 -625 -336 l -639 -267 m 375 553 b -36 529 260 450 83 633 l -46 543 b 367 563 111 696 258 496 l 375 553 "},"²":{"ha":335,"x_min":0,"x_max":0,"o":"m 214 1001 b 201 956 217 986 210 969 b 138 911 189 935 167 908 b 103 954 117 914 101 932 l 103 954 b 182 1039 110 1001 146 1029 b 253 1022 210 1046 236 1039 b 236 897 296 983 260 925 b 50 767 183 843 106 818 b 128 775 71 779 96 785 b 183 782 150 767 172 750 l 199 778 b 124 751 179 735 156 743 b 24 740 96 758 61 767 l 15 751 b 236 961 82 835 199 851 b 183 1025 246 1006 226 1035 b 114 951 150 1018 122 992 b 140 925 114 938 124 925 b 192 961 161 922 182 946 b 201 999 199 974 201 989 l 214 1001 "},"³":{"ha":339,"x_min":0,"x_max":0,"o":"m 263 1040 l 268 1022 l 160 953 b 221 867 208 951 226 908 b 89 731 217 806 161 722 b 69 899 0 743 35 844 l 88 899 b 92 743 58 854 14 756 b 183 869 149 743 179 818 b 133 936 193 918 174 953 l 128 949 l 228 1025 l 125 1025 l 132 1040 "},"´":{"ha":579,"x_min":0,"x_max":0,"o":"m 235 821 l 208 825 l 378 944 l 439 913 "},"·":{"ha":418,"x_min":0,"x_max":0,"o":"m 218 338 b 269 292 244 338 269 318 b 218 242 269 265 244 242 b 168 292 188 242 168 265 b 218 338 168 318 188 338 "},"¸":{"ha":429,"x_min":0,"x_max":0,"o":"m 138 -111 b 242 10 167 -76 213 -29 b 265 11 263 10 244 11 b 192 -107 242 -24 214 -74 b 279 -117 224 -106 257 -104 b 263 -214 329 -144 313 -193 b 101 -211 213 -235 138 -222 l 110 -197 b 217 -193 117 -199 174 -204 b 221 -122 261 -182 278 -128 b 151 -125 197 -119 169 -121 l 138 -111 "},"¹":{"ha":308,"x_min":0,"x_max":0,"o":"m 88 769 l 200 999 b 190 989 197 996 193 993 b 126 967 175 975 153 967 l 126 981 b 185 1000 151 981 168 986 b 222 1042 197 1010 211 1026 l 236 1042 l 122 769 l 168 769 l 168 757 l 39 757 l 39 769 "},"º":{"ha":561,"x_min":0,"x_max":0,"o":"m 97 299 b 156 438 97 353 118 399 b 294 494 193 475 240 494 b 433 436 349 494 396 475 b 492 297 472 397 492 351 b 433 157 492 243 472 197 b 293 100 394 119 349 100 b 154 157 239 100 193 119 b 97 297 115 196 97 243 l 97 299 m 119 297 b 171 174 119 251 136 207 b 293 124 203 142 244 124 b 417 174 342 124 382 142 b 468 297 450 208 468 251 b 417 419 468 343 450 388 b 293 471 385 454 342 471 b 171 421 247 471 204 454 b 119 299 139 388 119 344 l 119 297 "},"`":{"ha":521,"x_min":0,"x_max":0,"o":"m 189 940 l 215 944 l 419 853 l 358 821 "},"ﬁ":{"ha":482,"x_min":0,"x_max":0,"o":"m 208 306 b 450 757 272 446 356 667 b 608 765 500 804 556 819 l 590 751 b 440 682 544 808 489 760 b 263 306 414 639 288 371 l 178 93 b -61 -407 107 -79 29 -267 b -449 -644 -132 -525 -251 -661 b -654 -487 -564 -635 -632 -571 b -651 -317 -671 -437 -671 -376 b -560 -156 -637 -258 -604 -203 b -6 -54 -450 -39 -261 31 b -10 -75 -6 -60 -8 -69 b -544 -169 -257 6 -439 -58 b -632 -324 -586 -215 -617 -269 b -635 -481 -647 -379 -647 -433 b -449 -621 -611 -556 -551 -614 b -121 -394 -297 -619 -197 -510 b 121 100 -29 -256 49 -69 l 208 306 m 536 390 b 425 147 499 311 450 233 b 444 22 406 88 403 31 b 632 285 538 17 601 211 l 656 285 b 442 0 619 201 553 -6 b 365 157 365 7 342 101 b 469 390 392 240 436 310 l 536 390 m 546 526 b 571 503 561 526 569 517 b 515 438 571 472 544 438 b 492 481 494 438 486 456 b 546 526 501 506 524 526 m 608 765 b 560 467 665 667 599 535 l 542 482 b 590 751 586 550 635 685 l 608 765 m 482 379 b 24 285 343 254 78 428 l 0 285 b 472 390 74 467 357 294 l 482 379 "},"ﬂ":{"ha":467,"x_min":0,"x_max":0,"o":"m 521 804 b 260 147 483 725 285 233 b 279 22 240 88 238 31 b 467 285 372 17 436 211 l 490 285 b 276 0 454 201 388 -6 b 200 157 200 7 176 101 b 454 804 226 240 421 724 l 521 804 m 164 547 b -24 93 133 482 71 332 b -262 -407 -94 -79 -172 -267 b -650 -644 -333 -525 -453 -661 b -853 -317 -837 -629 -897 -471 b -761 -156 -839 -258 -806 -203 b -207 -54 -651 -39 -462 31 b -211 -75 -207 -60 -210 -69 b -746 -169 -458 6 -640 -58 b -833 -324 -787 -215 -818 -269 b -650 -621 -872 -464 -819 -608 b -322 -394 -499 -619 -399 -510 b -81 100 -231 -256 -149 -71 l 99 546 b 578 1031 231 846 390 1093 b 629 801 669 983 654 871 l 574 801 b 565 1007 599 867 618 983 b 164 547 418 1067 288 831 m 467 797 b 15 590 383 631 103 760 l -3 601 b 454 804 108 843 361 682 l 467 797 "},"Ž":{"ha":878,"x_min":0,"x_max":0,"o":"m 740 1107 l 728 1101 l 714 1113 l 588 1247 l 599 1264 l 747 1158 l 885 1247 l 899 1226 m 538 514 b 967 989 633 713 756 907 b 932 1001 956 994 944 997 b 207 764 694 1065 335 996 b 200 538 176 700 147 600 b 311 501 229 508 269 496 b 463 856 236 647 322 804 b 618 757 543 892 642 874 b 351 485 600 636 468 514 b 397 426 363 468 374 450 l 379 415 b 322 479 357 439 340 463 b 183 519 275 474 218 485 b 189 775 125 589 147 700 b 938 1025 322 1014 688 1094 b 994 1001 954 1019 976 1014 b 1036 1014 1006 1007 1019 1010 b 1093 983 1064 1014 1093 1001 b 1001 972 1100 932 1025 954 b 999 974 1000 972 999 974 b 600 514 793 901 696 708 b 781 218 757 507 826 371 b 632 -26 760 147 696 36 b 43 -244 417 -257 164 -336 b 61 4 -32 -179 4 -61 b 658 247 194 171 444 269 l 653 224 b 78 -8 450 242 207 147 b 32 -172 43 -53 10 -118 b 593 10 121 -386 515 -85 b 589 485 699 119 842 438 l 589 485 b 456 457 574 442 489 418 b 538 514 435 501 496 515 m 335 508 b 600 764 450 532 578 647 b 474 839 613 856 538 863 b 335 508 340 788 264 642 "},"ž":{"ha":432,"x_min":0,"x_max":0,"o":"m 238 467 l 225 461 l 211 472 l 85 607 l 96 624 l 244 518 l 382 607 l 396 586 m 42 378 l 47 388 l 57 382 b 313 400 128 350 254 343 l 333 390 b 158 146 299 306 231 219 b 54 58 128 113 92 86 b 181 18 100 57 144 46 b 432 285 282 78 371 149 l 456 285 b 197 3 394 144 300 63 b -186 -647 390 -253 71 -642 b -390 -528 -269 -647 -344 -618 b -339 -274 -429 -457 -403 -349 l -339 -274 b 4 -65 -243 -167 -121 -115 b 156 8 54 -40 108 -18 b 21 36 128 28 81 38 b -72 -7 -12 15 -43 0 l -72 -7 b -104 28 -100 -15 -137 0 b -4 57 -92 40 -58 54 b 14 58 1 57 8 57 b 144 164 57 86 101 119 b 275 326 203 222 238 257 b 44 326 206 292 114 300 l 24 285 l 0 285 m 178 -7 b 11 -85 124 -35 68 -62 b -324 -289 -110 -136 -231 -186 b -367 -525 -381 -360 -406 -458 b 178 -7 -200 -814 336 -281 "},"ˇ":{"ha":515,"x_min":0,"x_max":0,"o":"m 239 799 l 226 793 l 213 804 l 86 939 l 97 956 l 246 850 l 383 939 l 397 918 "},"Ł":{"ha":961,"x_min":0,"x_max":0,"o":"m 415 349 b 229 47 369 222 311 111 b 776 -81 339 -10 582 -240 l 789 -96 b 214 29 510 -297 392 -60 b 76 -10 174 1 128 -17 b 13 96 29 -3 -26 46 b 207 58 61 146 160 96 b 361 351 275 117 321 226 l 0 368 l -19 415 l 385 431 l 401 488 b 654 1001 460 693 522 904 b 871 1007 717 1046 797 1064 b 935 835 921 968 946 899 b 751 596 921 756 867 669 l 739 618 b 911 840 847 688 899 767 b 853 990 917 899 899 956 b 665 978 797 1036 724 1025 b 460 482 556 893 522 681 b 444 433 454 465 450 449 l 728 444 l 775 332 "},"ł":{"ha":840,"x_min":0,"x_max":0,"o":"m 208 151 b 229 22 192 90 189 32 b 417 285 313 14 397 232 l 440 285 b 226 1 404 203 339 -4 b 147 156 143 4 122 90 b 239 394 190 265 208 315 l 40 390 l 21 438 l 264 456 b 778 1031 404 794 568 1103 b 818 840 858 1000 846 910 b 351 507 750 660 543 506 l 331 461 l 475 472 l 515 400 l 304 396 b 263 290 289 360 275 325 l 208 151 m 361 529 b 799 850 549 532 728 683 b 768 1010 822 907 833 985 b 361 529 621 1071 486 825 "},"ı":{"ha":207,"x_min":0,"x_max":0,"o":"m 111 390 b 0 147 74 311 25 233 b 19 22 -19 88 -22 31 b 207 285 113 17 176 211 l 231 285 b 17 0 194 201 128 -6 b -60 157 -60 7 -83 101 b 44 390 -33 240 11 310 l 111 390 "},"˛":{"ha":1157,"x_min":0,"x_max":0,"o":""},"˝":{"ha":1158,"x_min":0,"x_max":0,"o":"m 235 821 l 208 825 l 378 944 l 439 913 m 422 821 l 396 825 l 565 944 l 626 913 "},"˚":{"ha":488,"x_min":0,"x_max":0,"o":"m 129 842 b 168 935 129 879 144 908 b 260 972 192 958 225 972 b 351 933 294 972 328 960 b 390 842 378 907 390 876 b 351 749 390 807 378 775 b 260 711 328 725 294 711 b 167 749 222 711 193 725 b 129 842 140 775 129 807 m 158 842 b 188 769 158 814 169 790 b 260 740 206 751 231 740 b 332 769 288 740 310 751 b 361 842 350 790 361 814 b 332 913 361 868 350 894 b 260 943 311 933 288 943 b 188 914 232 943 208 932 b 158 842 169 893 158 869 "},"\n":{"ha":761,"x_min":0,"x_max":0,"o":"m 386 597 b 385 603 385 599 385 601 l 385 614 b 429 721 385 653 400 689 b 539 783 457 754 494 774 l 539 779 l 539 771 l 539 753 b 492 644 539 714 524 678 b 396 596 460 613 428 596 l 393 597 b 392 596 393 596 392 596 b 389 597 390 596 389 597 b 386 597 389 597 386 597 m 697 218 b 601 58 660 140 631 88 b 507 15 574 31 540 15 b 444 32 490 15 471 21 b 389 44 421 39 401 44 b 328 32 374 44 354 39 b 268 15 300 21 281 15 b 208 35 247 15 229 24 b 147 96 188 47 168 68 b 75 233 115 140 92 185 b 49 374 58 283 49 329 b 107 539 49 442 68 499 b 257 604 146 583 196 604 b 329 588 279 604 303 599 b 388 572 357 578 376 572 b 444 588 397 572 415 578 b 514 606 471 600 493 606 b 607 586 549 606 579 599 b 682 528 635 574 660 556 b 613 460 650 507 628 486 b 589 375 596 436 589 408 b 617 282 589 342 599 310 b 697 218 635 254 663 235 "},"˙":{"ha":414,"x_min":0,"x_max":0,"o":"m 204 706 b 256 660 231 706 256 686 b 204 610 256 633 231 610 b 154 660 174 610 154 633 b 204 706 154 686 174 706 "},"\\":{"ha":811,"x_min":0,"x_max":0,"o":"m 703 -3 l 651 -3 l 200 969 l 322 969 "},"⁄":{"ha":582,"x_min":0,"x_max":0,"o":"m 81 0 l 29 0 l 410 972 l 532 972 "},"Ź":{"ha":878,"x_min":0,"x_max":0,"o":"m 538 514 b 456 457 496 515 435 501 b 589 485 489 418 574 442 l 589 485 b 593 10 842 438 699 119 b 32 -172 515 -85 121 -386 b 78 -8 10 -118 43 -53 b 653 224 207 147 450 242 l 658 247 b 61 4 444 269 194 171 b 43 -244 4 -61 -32 -179 b 632 -26 164 -336 417 -257 b 781 218 696 36 760 147 b 600 514 826 371 757 507 b 999 974 696 708 793 901 b 1001 972 999 974 1000 972 b 1093 983 1025 954 1100 932 b 1036 1014 1093 1001 1064 1014 b 994 1001 1019 1010 1006 1007 b 938 1025 976 1014 954 1019 b 189 775 688 1094 322 1014 b 183 519 147 700 125 589 b 322 479 218 485 275 474 b 379 415 340 463 357 439 l 397 426 b 351 485 374 450 363 468 b 618 757 468 514 600 636 b 463 856 642 874 543 892 b 311 501 322 804 236 647 b 200 538 269 496 229 508 b 207 764 147 600 176 700 b 932 1001 335 996 694 1065 b 967 989 944 997 956 994 b 538 514 756 907 633 713 m 335 508 b 474 839 264 642 340 788 b 600 764 538 863 613 856 b 335 508 578 647 450 532 m 674 1108 l 647 1113 l 817 1232 l 878 1200 "},"Ť":{"ha":708,"x_min":0,"x_max":0,"o":"m 406 446 b 350 514 383 469 368 493 b 217 554 306 501 249 514 b 222 796 158 621 181 729 b 451 1000 271 886 357 960 b 1494 1033 843 1163 1185 815 l 1506 1017 b 957 946 1296 868 1122 899 b 621 440 786 838 708 633 b 192 1 542 285 431 24 b 51 276 36 -10 -44 149 b 451 407 114 361 242 429 l 451 385 b 69 265 249 407 125 343 b 175 24 -10 153 47 24 b 558 451 363 24 490 306 b 926 956 651 640 746 843 b 457 976 774 1000 625 1050 b 236 785 368 938 289 871 b 232 565 210 724 181 628 b 338 531 260 536 301 531 b 486 882 265 672 350 825 b 638 785 564 910 660 893 b 379 519 621 660 490 549 b 424 464 390 499 401 481 l 406 446 m 363 536 b 621 785 475 561 599 672 b 497 858 632 875 558 886 b 363 536 368 808 294 667 m 894 1089 l 882 1083 l 868 1094 l 742 1229 l 753 1246 l 901 1140 l 1039 1229 l 1053 1208 "}}}
